<?xml version="1.0" standalone="no"?>
<!DOCTYPE svg PUBLIC "-//W3C//DTD SVG 1.1//EN" "http://www.w3.org/Graphics/SVG/1.1/DTD/svg11.dtd" >
<svg xmlns="http://www.w3.org/2000/svg">
<metadata></metadata>
<defs>
<font id="pluto_sanscond_heavy" horiz-adv-x="1075" >
<font-face units-per-em="2048" ascent="1536" descent="-512" />
<missing-glyph horiz-adv-x="419" />
<glyph horiz-adv-x="0" />
<glyph horiz-adv-x="0" />
<glyph horiz-adv-x="682" />
<glyph unicode=" "  horiz-adv-x="419" />
<glyph unicode="&#x09;" horiz-adv-x="419" />
<glyph unicode="&#xa0;" horiz-adv-x="419" />
<glyph unicode="!" horiz-adv-x="579" d="M94 170q0 96 51 148.5t146 52.5q92 0 144 -53t52 -148t-51.5 -147t-144.5 -52q-95 0 -146 52t-51 147zM117 1393h346l-55 -904h-240z" />
<glyph unicode="&#x22;" horiz-adv-x="890" d="M113 1393h266l-19 -533h-235zM514 1393h268l-18 -533h-240z" />
<glyph unicode="#" horiz-adv-x="1232" d="M72 305v219h176l71 330h-143v217h191l69 322h207v-25l-63 -297h221l69 322h209v-25l-63 -297h147v-217h-194l-70 -330h158v-219h-205l-66 -305h-211v27l60 278h-219l-66 -305h-209v27l60 278h-129zM463 524h219l72 330h-222z" />
<glyph unicode="$" horiz-adv-x="1085" d="M70 975q0 167 106.5 284.5t294.5 143.5v172h133v-164q111 -4 216.5 -30.5t176.5 -63.5l-96 -293q-147 82 -297 94v-272l96 -35q165 -60 240.5 -150t75.5 -229q0 -180 -110 -301.5t-302 -144.5v-250h-133v246q-111 7 -214 37t-169 65l80 305q137 -95 303 -110v284l-125 45 q-143 52 -209.5 138t-66.5 229zM393 1006q0 -80 78 -111v213q-78 -26 -78 -102zM604 289q80 29 80 117q0 68 -80 110v-227z" />
<glyph unicode="%" horiz-adv-x="1648" d="M61 1030q0 180 93.5 281.5t244.5 101.5t245.5 -101.5t94.5 -281.5q0 -181 -94.5 -281t-245.5 -100q-152 0 -245 100t-93 281zM289 1030q0 -78 30 -115.5t80 -37.5q109 0 109 153q0 154 -109 154q-50 0 -80 -38t-30 -116zM403 0v27l619 1366h225v-25l-616 -1368h-228z M909 358q0 182 94 283.5t246 101.5q151 0 245.5 -102t94.5 -283q0 -179 -94.5 -278.5t-245.5 -99.5q-152 0 -246 99t-94 279zM1139 358q0 -151 110 -151q109 0 109 151q0 156 -109 156q-110 0 -110 -156z" />
<glyph unicode="&#x26;" horiz-adv-x="1419" d="M94 369q0 124 67.5 211.5t196.5 152.5q-64 77 -95.5 149t-31.5 167q0 74 26.5 138.5t77.5 115.5t133.5 80.5t186.5 29.5q203 0 312.5 -95.5t109.5 -266.5q0 -131 -81.5 -226.5t-209.5 -156.5l166 -174q111 128 195 311l248 -187q-106 -202 -236 -344l223 -233v-49h-376 l-82 94q-185 -106 -404 -106q-196 0 -311 107t-115 282zM444 414q0 -61 43.5 -101.5t118.5 -40.5q54 0 125 33l-207 238q-80 -54 -80 -129zM557 999q0 -74 68 -155l4 2q119 51 119 158q0 47 -26 78.5t-71 31.5q-41 0 -67.5 -32.5t-26.5 -82.5z" />
<glyph unicode="'" horiz-adv-x="487" d="M113 1393h266l-19 -533h-235z" />
<glyph unicode="(" horiz-adv-x="612" d="M72 537q0 168 29 326t75 273.5t94.5 198.5t96.5 131l192 -108q-79 -138 -132.5 -352t-53.5 -471q0 -255 53.5 -469.5t132.5 -352.5l-192 -108q-48 49 -96 132t-94.5 199.5t-75.5 274.5t-29 326z" />
<glyph unicode=")" horiz-adv-x="612" d="M53 -287q79 138 133 353t54 469q0 257 -54 470.5t-133 352.5l191 108q48 -48 97 -131t95.5 -198.5t75.5 -273.5t29 -326t-29 -326t-75.5 -274t-95.5 -199.5t-97 -132.5z" />
<glyph unicode="*" horiz-adv-x="937" d="M72 991l71 240l211 -88l-22 250h274l-22 -252l211 90l71 -240l-207 -55l140 -188l-205 -136l-125 215l-125 -213l-205 131l135 195z" />
<glyph unicode="+" horiz-adv-x="1013" d="M74 483v275h299v362h268v-362h297v-275h-297v-362h-268v362h-299z" />
<glyph unicode="," horiz-adv-x="569" d="M90 166q0 97 50.5 152t140.5 55q91 0 143.5 -56t52.5 -151q0 -117 -49 -266.5t-111 -253.5l-188 78l70 253q-53 18 -81 67.5t-28 121.5z" />
<glyph unicode="-" horiz-adv-x="966" d="M115 483v275h737v-275h-737z" />
<glyph unicode="." horiz-adv-x="575" d="M90 170q0 95 51.5 148t145.5 53t146 -53t52 -148t-52 -147t-146 -52t-145.5 52t-51.5 147z" />
<glyph unicode="/" horiz-adv-x="940" d="M47 0v27l621 1366h225v-25l-617 -1368h-229z" />
<glyph unicode="0" horiz-adv-x="1249" d="M90 694q0 336 138.5 527.5t394.5 191.5q259 0 397.5 -191t138.5 -528q0 -334 -138.5 -524t-397.5 -190q-256 0 -394.5 190.5t-138.5 523.5zM426 694q0 -393 197 -393q105 0 151.5 100t46.5 293q0 196 -46.5 297t-151.5 101q-197 0 -197 -398z" />
<glyph unicode="1" horiz-adv-x="931" d="M10 1049l518 344h252v-1393h-348v977l-289 -193z" />
<glyph unicode="2" horiz-adv-x="1153" d="M76 903q5 236 133.5 373t353.5 137q229 0 350 -127.5t121 -331.5q0 -127 -53 -230.5t-180 -225.5l-197 -193h457v-305h-942v262l422 393q74 71 105.5 135t31.5 140t-34 119t-101 43q-76 0 -114 -67t-40 -183z" />
<glyph unicode="3" horiz-adv-x="1103" d="M72 1335q65 27 183.5 52.5t217.5 25.5q500 0 500 -391q0 -103 -50.5 -183.5t-134.5 -111.5q111 -42 169.5 -124.5t58.5 -219.5q0 -188 -136 -295.5t-407 -107.5q-108 0 -217.5 26.5t-177.5 54.5l84 291q155 -76 295 -76q90 0 146 44t56 116q0 71 -44 103t-136 32h-254 v281h254q69 0 106.5 34t37.5 87q0 70 -47 107.5t-130 37.5q-53 0 -121 -17.5t-107.5 -33.5t-70.5 -31z" />
<glyph unicode="4" horiz-adv-x="1236" d="M47 242v229l492 922h456v-891h174v-260h-174v-242h-346v242h-602zM391 502h258v510z" />
<glyph unicode="5" horiz-adv-x="1093" d="M66 68l84 288q157 -80 290 -80q94 0 152.5 46.5t58.5 132.5q0 151 -194 151h-316l-14 15l59 772h781v-306h-490l-14 -225h41q502 0 502 -399q0 -241 -138.5 -362t-390.5 -121q-122 0 -231 28.5t-180 59.5z" />
<glyph unicode="6" horiz-adv-x="1206" d="M88 698q0 326 147 520.5t412 194.5q126 0 243 -32t179 -66l-88 -287q-58 34 -137.5 61t-153.5 27q-65 0 -112 -22t-75 -65.5t-42.5 -97.5t-20.5 -128q105 117 254 117q212 0 322 -114.5t110 -324.5q0 -229 -134 -365t-349 -136q-263 0 -409 194.5t-146 523.5zM446 539 q34 -238 181 -238q70 0 112.5 52t42.5 128q0 82 -40.5 125t-110.5 43q-111 0 -185 -110z" />
<glyph unicode="7" horiz-adv-x="1017" d="M59 1087v306h916v-244l-443 -1149h-380v33l436 1054h-529z" />
<glyph unicode="8" horiz-adv-x="1228" d="M88 383q0 143 54.5 225t172.5 119q-90 30 -138 109.5t-48 185.5q0 192 121.5 291.5t365.5 99.5q241 0 361.5 -99.5t120.5 -291.5q0 -106 -47.5 -185.5t-137.5 -109.5q120 -37 174 -119t54 -225q0 -187 -132.5 -295t-392.5 -108q-262 0 -395 107.5t-133 295.5zM440 436 q0 -76 46 -125t130 -49q82 0 127 49.5t45 124.5q0 73 -43.5 120.5t-130.5 47.5q-86 0 -130 -47.5t-44 -120.5zM473 987q0 -65 35 -107t106 -42t105.5 42t34.5 107q0 69 -35.5 109.5t-102.5 40.5q-71 0 -107 -40t-36 -110z" />
<glyph unicode="9" horiz-adv-x="1206" d="M80 911q0 229 134 365.5t349 136.5q175 0 300.5 -90t189 -251t63.5 -378q0 -326 -146 -520t-411 -194q-125 0 -240.5 31.5t-181.5 66.5l88 287q56 -34 136 -61.5t155 -27.5q125 0 181.5 81t66.5 233q-101 -117 -252 -117q-211 0 -321.5 114.5t-110.5 323.5zM424 911 q0 -82 39.5 -125t111.5 -43q106 0 183 109q-34 240 -180 240q-69 0 -111.5 -52.5t-42.5 -128.5z" />
<glyph unicode=":" horiz-adv-x="608" d="M111 164q0 92 49.5 143t140.5 51t142 -51t51 -143q0 -93 -51 -144t-142 -51t-140.5 50.5t-49.5 144.5zM111 907q0 92 49.5 143.5t140.5 51.5t142 -51.5t51 -143.5q0 -93 -51 -143.5t-142 -50.5t-140.5 50.5t-49.5 143.5z" />
<glyph unicode=";" horiz-adv-x="606" d="M106 907q0 92 50 143.5t141 51.5t141.5 -51.5t50.5 -143.5q0 -93 -50.5 -143.5t-141.5 -50.5t-141 50.5t-50 143.5zM117 158q0 94 48.5 147t135.5 53q88 0 139.5 -54t51.5 -146q0 -113 -48 -257t-108 -245l-182 76l67 243q-104 37 -104 183z" />
<glyph unicode="&#x3c;" horiz-adv-x="1048" d="M70 479v269l841 374h23v-264l-592 -240l592 -235v-266h-23z" />
<glyph unicode="=" horiz-adv-x="1110" d="M123 199v274h864v-274h-864zM123 766v274h864v-274h-864z" />
<glyph unicode="&#x3e;" horiz-adv-x="1048" d="M115 117v266l594 235l-594 240v264h24l840 -374v-269l-840 -362h-24z" />
<glyph unicode="?" horiz-adv-x="878" d="M63 1286q169 127 379 127q174 0 270.5 -99.5t96.5 -258.5q0 -100 -36.5 -175t-104.5 -143l-109 -108q-21 -21 -29 -31t-14 -25.5t-6 -37.5q0 -16 4 -48h-278q-29 71 -29 140q0 48 24.5 88.5t75.5 89.5l94 90q33 35 46.5 62t13.5 67q0 46 -28 72t-79 26q-99 0 -207 -112z M180 170q0 96 51 148.5t144 52.5q94 0 146 -53t52 -148t-52 -147t-146 -52t-144.5 52t-50.5 147z" />
<glyph unicode="@" horiz-adv-x="1720" d="M80 539q0 212 59 388t163.5 295.5t252 185t322.5 65.5t320 -57.5t247 -162.5t158.5 -258t56.5 -340q0 -167 -32 -289.5t-92.5 -197t-142 -110t-186.5 -35.5q-88 0 -140.5 26.5t-86.5 85.5q-74 -110 -236 -110t-265 139t-103 356q0 220 103 361t265 141q75 0 126 -20 t87 -68v72h332v-678q0 -66 10 -88.5t45 -22.5q59 0 101.5 109t42.5 319q0 317 -161 489.5t-449 172.5q-139 0 -253.5 -49t-198 -143.5t-129.5 -241t-46 -334.5q0 -373 167 -571.5t460 -198.5q169 0 305 79l55 -151q-163 -94 -360 -94q-372 0 -584.5 246.5t-212.5 689.5z M715 520q0 -93 38.5 -149t100.5 -56t102 50v319q-41 45 -102 45q-63 0 -101 -56.5t-38 -152.5z" />
<glyph unicode="A" horiz-adv-x="1308" d="M10 0l441 1393h409l436 -1393h-350l-67 252h-451l-70 -252h-348zM514 512h281l-140 532z" />
<glyph unicode="B" horiz-adv-x="1300" d="M150 0v1393h561q206 0 316 -93t110 -282q0 -204 -158 -293q252 -65 252 -338q0 -184 -114.5 -285.5t-325.5 -101.5h-641zM502 281h225q137 0 137 137q0 143 -147 143h-215v-280zM502 852h145q135 0 135 133q0 127 -131 127h-149v-260z" />
<glyph unicode="C" horiz-adv-x="1228" d="M80 696q0 165 47.5 301t131 226.5t197 140t244.5 49.5q141 0 265.5 -58t208.5 -151l-158 -246q-68 65 -130.5 98.5t-142.5 33.5q-143 0 -224 -100t-81 -294t81 -293.5t224 -99.5q81 0 143 33.5t130 97.5l158 -246q-84 -93 -208.5 -150.5t-265.5 -57.5q-131 0 -244.5 49.5 t-197 139.5t-131 226t-47.5 301z" />
<glyph unicode="D" horiz-adv-x="1404" d="M150 0v1393h559q132 0 243.5 -46.5t193.5 -133.5t128.5 -220t46.5 -299q0 -165 -46.5 -297.5t-128.5 -218.5t-193.5 -132t-243.5 -46h-559zM502 305h160q146 0 224.5 100.5t78.5 288.5q0 190 -78 291.5t-223 101.5h-162v-782z" />
<glyph unicode="E" horiz-adv-x="1214" d="M150 0v1393h972v-308h-637v-231h510v-291h-510v-258h637v-305h-972z" />
<glyph unicode="F" horiz-adv-x="1144" d="M150 0v1393h937v-308h-602v-327h508v-307h-508v-451h-335z" />
<glyph unicode="G" horiz-adv-x="1325" d="M80 694q0 166 49.5 303t135 227t200.5 139.5t246 49.5q285 0 469 -156l-142 -278q-145 111 -284 111q-154 0 -235 -103t-81 -293q0 -196 79 -293.5t218 -97.5q103 0 174 47v209h-250v264h566v-680q-88 -69 -234 -116t-280 -47q-131 0 -246 49t-200.5 139t-135 226 t-49.5 300z" />
<glyph unicode="H" horiz-adv-x="1476" d="M150 0v1393h352v-537h473v537h352v-1393h-352v551h-473v-551h-352z" />
<glyph unicode="I" horiz-adv-x="649" d="M150 0v1393h352v-1393h-352z" />
<glyph unicode="J" horiz-adv-x="1136" d="M23 473l335 31q4 -114 39 -165.5t107 -51.5q70 0 106.5 54.5t36.5 176.5v875h352v-875q0 -120 -30 -217t-90 -170.5t-157.5 -113.5t-225.5 -40q-227 0 -348.5 133t-124.5 363z" />
<glyph unicode="K" horiz-adv-x="1314" d="M150 0v1393h352v-547h63l342 547h355v-54l-426 -643l454 -655v-41h-387l-340 539h-61v-539h-352z" />
<glyph unicode="L" horiz-adv-x="1091" d="M150 0v1393h352v-1088h561v-305h-913z" />
<glyph unicode="M" horiz-adv-x="1683" d="M150 0v1393h323l369 -541l368 541h324v-1393h-352v807l-312 -465h-57l-311 465v-807h-352z" />
<glyph unicode="N" horiz-adv-x="1474" d="M150 0v1393h303l520 -803v803h354v-1393h-307l-520 801v-801h-350z" />
<glyph unicode="O" horiz-adv-x="1378" d="M80 694q0 209 72 371.5t210.5 255t323.5 92.5q140 0 255.5 -53.5t193.5 -149t120.5 -228t42.5 -288.5q0 -207 -72.5 -368t-212.5 -253.5t-327 -92.5q-185 0 -323.5 92.5t-210.5 253.5t-72 368zM422 694q0 -192 70.5 -288.5t193.5 -96.5q126 0 198 96.5t72 288.5 q0 195 -72 292t-198 97q-123 0 -193.5 -97t-70.5 -292z" />
<glyph unicode="P" horiz-adv-x="1261" d="M150 0v1393h618q91 0 170 -32t141 -93.5t97.5 -162t35.5 -228.5q0 -116 -36 -213.5t-97 -161.5t-141.5 -99.5t-169.5 -35.5h-266v-367h-352zM502 672h188q70 0 118 57.5t48 149.5q0 94 -47.5 151t-118.5 57h-188v-415z" />
<glyph unicode="Q" horiz-adv-x="1390" d="M80 694q0 209 72 371.5t210.5 255t323.5 92.5q140 0 255.5 -53.5t193.5 -149t120.5 -228t42.5 -288.5q0 -213 -76.5 -376.5t-217.5 -251.5q42 -46 68 -70.5t67 -47t80 -22.5q105 0 157 25l33 -281q-97 -39 -217 -39q-65 0 -127 21.5t-108.5 54t-92.5 74.5t-77 79 t-63 71.5t-50 48.5q-181 3 -316.5 96t-206.5 253t-71 365zM418 694q0 -191 72.5 -288t195.5 -97q126 0 199 96.5t73 288.5q0 194 -72.5 290.5t-199.5 96.5q-124 0 -196 -96.5t-72 -290.5z" />
<glyph unicode="R" horiz-adv-x="1298" d="M150 0v1393h626q193 0 308.5 -129t115.5 -328q0 -142 -73.5 -249.5t-192.5 -156.5l315 -460v-70h-354l-315 494h-78v-494h-352zM502 752h182q72 0 115 46.5t43 121.5q0 77 -42.5 122t-115.5 45h-182v-335z" />
<glyph unicode="S" horiz-adv-x="1103" d="M74 86l80 315q71 -51 164.5 -83.5t175.5 -32.5q75 0 124.5 33.5t49.5 95.5q0 42 -27.5 73.5t-93.5 53.5l-168 59q-152 51 -222.5 142t-70.5 239q0 183 132 306.5t364 123.5q114 0 229.5 -28t189.5 -70l-96 -293q-70 41 -153.5 66.5t-159.5 25.5q-77 0 -118.5 -31 t-41.5 -84q0 -43 26 -69t83 -45l168 -60q167 -57 244 -153.5t77 -237.5q0 -198 -142 -325t-376 -127q-118 0 -242 32.5t-196 73.5z" />
<glyph unicode="T" horiz-adv-x="1099" d="M45 1085v308h1010v-308h-328v-1085h-352v1085h-330z" />
<glyph unicode="U" horiz-adv-x="1398" d="M135 567v826h352v-803q0 -149 50 -219t161 -70q113 0 164 71.5t51 219.5v801h353v-826q0 -128 -34 -233.5t-101.5 -186t-178 -125.5t-254.5 -45t-252.5 41t-176 119t-101 185.5t-33.5 244.5z" />
<glyph unicode="V" horiz-adv-x="1337" d="M10 1393h379l277 -990l280 990h381l-440 -1393h-441z" />
<glyph unicode="W" horiz-adv-x="1961" d="M10 1393h375l283 -998l166 549l-132 449h379l236 -938l256 938h379l-439 -1393h-380l-148 526l-160 -526h-379z" />
<glyph unicode="X" horiz-adv-x="1331" d="M39 0v27l383 667l-383 674v25h393l234 -469l231 469h395v-25l-383 -674l383 -667v-27h-399l-227 465l-230 -465h-397z" />
<glyph unicode="Y" horiz-adv-x="1230" d="M4 1368v25h387l225 -535l224 535h387v-25l-439 -831v-537h-346v535z" />
<glyph unicode="Z" horiz-adv-x="1150" d="M94 0v244l516 843h-516v306h965v-244l-514 -844h514v-305h-965z" />
<glyph unicode="[" horiz-adv-x="665" d="M131 -385v1839h463v-274h-195v-1291h195v-274h-463z" />
<glyph unicode="\" horiz-adv-x="940" d="M47 1368v25h225l621 -1366v-27h-229z" />
<glyph unicode="]" horiz-adv-x="665" d="M72 -111h192v1291h-192v274h460v-1839h-460v274z" />
<glyph unicode="^" d="M80 770v27l330 596h254l331 -596v-27h-286l-170 375l-177 -375h-282z" />
<glyph unicode="_" horiz-adv-x="1099" d="M115 -63h870v-242h-870v242z" />
<glyph unicode="`" horiz-adv-x="1044" d="M283 1518h338l141 -324h-285z" />
<glyph unicode="a" d="M59 297q0 176 128 270.5t339 94.5q25 0 95 -9v6q0 82 -40.5 113t-121.5 31q-115 0 -252 -55l-57 268q198 74 382 74q206 0 315 -116t109 -329v-645h-335v70q-104 -90 -246 -90q-151 0 -233.5 85t-82.5 232zM387 334q0 -52 27.5 -77.5t74.5 -25.5q85 0 132 54v161 q-31 7 -70 7q-74 0 -119 -31t-45 -88z" />
<glyph unicode="b" horiz-adv-x="1210" d="M129 0v1454h344v-475q104 111 254 111q186 0 294.5 -144t108.5 -409q0 -266 -108.5 -411.5t-294.5 -145.5q-160 0 -254 112v-92h-344zM473 346q57 -61 133 -61q81 0 125.5 65.5t44.5 181.5q0 119 -44.5 185.5t-125.5 66.5q-39 0 -75 -18.5t-58 -44.5v-375z" />
<glyph unicode="c" horiz-adv-x="1024" d="M76 537q0 263 143.5 413t374.5 150q214 0 373 -142l-142 -256q-91 84 -200 84q-85 0 -141 -64t-56 -185q0 -123 56 -187.5t145 -64.5q107 0 196 86l142 -258q-163 -142 -373 -142q-231 0 -374.5 151.5t-143.5 414.5z" />
<glyph unicode="d" horiz-adv-x="1210" d="M80 537q0 265 110 409t297 144q145 0 248 -107v471h346v-1454h-346v92q-94 -112 -248 -112q-187 0 -297 146t-110 411zM432 532q0 -116 45.5 -181.5t124.5 -65.5q38 0 74 17t59 42v379q-23 25 -59 43t-74 18q-81 0 -125.5 -66.5t-44.5 -185.5z" />
<glyph unicode="e" horiz-adv-x="1054" d="M76 532q0 249 134 408.5t351 159.5q106 0 186.5 -32.5t129 -92t72.5 -137.5t24 -174q0 -124 -25 -213h-538q5 -92 53 -146.5t147 -54.5q121 0 238 92l119 -242q-155 -129 -402 -129q-161 0 -273 73.5t-164 197.5t-52 290zM422 664h262q6 21 6 47q0 60 -33 91.5t-90 31.5 q-67 0 -103.5 -45.5t-41.5 -124.5z" />
<glyph unicode="f" horiz-adv-x="827" d="M63 754v272h148v68q0 190 79.5 285.5t252.5 95.5q63 0 131.5 -13t113.5 -32l-57 -273q-55 31 -104 31q-70 0 -70 -78v-84h217v-272h-217v-754h-346v754h-148z" />
<glyph unicode="g" horiz-adv-x="1210" d="M82 573q0 240 110.5 378.5t294.5 138.5q158 0 248 -97v78h348v-977q0 -252 -133.5 -376t-361.5 -124q-226 0 -395 87l75 278q163 -88 281 -88q87 0 136.5 39t49.5 135v107q-98 -91 -248 -91q-184 0 -294.5 138t-110.5 374zM434 573q0 -96 45.5 -152t124.5 -56 q66 0 131 57v303q-63 59 -131 59q-81 0 -125.5 -56t-44.5 -155z" />
<glyph unicode="h" horiz-adv-x="1222" d="M129 0v1454h344v-485q46 55 125.5 88t169.5 33q334 0 334 -416v-674h-346v600q0 87 -31.5 126.5t-99.5 39.5q-51 0 -90.5 -31.5t-61.5 -75.5v-659h-344z" />
<glyph unicode="i" horiz-adv-x="604" d="M111 1364q0 162 192 162q189 0 189 -162t-189 -162q-192 0 -192 162zM129 0v1071h346v-1071h-346z" />
<glyph unicode="j" horiz-adv-x="604" d="M10 -190q119 108 119 278v983h346v-958q0 -104 -20.5 -188.5t-58.5 -145.5t-80 -103t-97 -79zM111 1364q0 162 192 162q191 0 191 -162t-191 -162q-192 0 -192 162z" />
<glyph unicode="k" horiz-adv-x="1185" d="M129 0v1454h344v-817l279 434h372v-57l-336 -453l357 -502v-59h-381l-291 453v-453h-344z" />
<glyph unicode="l" horiz-adv-x="663" d="M129 258v1196h346v-1098q0 -44 15 -63t45 -19q37 0 81 27l9 -276q-96 -45 -228 -45q-139 0 -203.5 64t-64.5 214z" />
<glyph unicode="m" horiz-adv-x="1808" d="M129 0v1071h344v-102q48 57 123.5 89t167.5 32q191 0 270 -146q108 146 299 146q188 0 271.5 -104.5t83.5 -307.5v-678h-345v606q0 85 -30.5 122.5t-95.5 37.5q-83 0 -127 -82v-6v-678h-347v606q0 85 -29.5 122.5t-92.5 37.5q-52 0 -90 -26t-58 -68v-672h-344z" />
<glyph unicode="n" horiz-adv-x="1222" d="M129 0v1071h344v-102q46 55 125.5 88t169.5 33q334 0 334 -416v-674h-346v600q0 87 -31 126.5t-98 39.5q-52 0 -92 -31.5t-62 -75.5v-659h-344z" />
<glyph unicode="o" horiz-adv-x="1136" d="M76 532q0 268 132.5 418t358.5 150q228 0 361 -149.5t133 -418.5q0 -266 -133 -413.5t-361 -147.5q-226 0 -358.5 148t-132.5 413zM414 532q0 -241 153 -241q156 0 156 241q0 246 -156 246q-153 0 -153 -246z" />
<glyph unicode="p" horiz-adv-x="1210" d="M129 -385v1456h344v-96q92 117 248 117q186 0 297.5 -146.5t111.5 -410.5q0 -265 -111 -409t-298 -144q-147 0 -248 108v-475h-344zM473 346q21 -24 59 -41.5t76 -17.5q82 0 126 66t44 186q0 116 -44.5 180.5t-125.5 64.5q-84 0 -135 -61v-377z" />
<glyph unicode="q" horiz-adv-x="1210" d="M80 532q0 266 108.5 412t294.5 146q158 0 254 -115v96h344v-1456h-344v475q-107 -110 -254 -110q-186 0 -294.5 144t-108.5 408zM434 539q0 -119 44.5 -185.5t125.5 -66.5q74 0 133 59v375q-56 63 -133 63q-81 0 -125.5 -64.5t-44.5 -180.5z" />
<glyph unicode="r" horiz-adv-x="888" d="M129 0v1071h348v-117q39 70 94 103t136 33q85 0 153 -37l-39 -326q-76 39 -157 39q-67 0 -115.5 -38t-71.5 -107v-621h-348z" />
<glyph unicode="s" horiz-adv-x="923" d="M72 59l63 281q58 -37 128.5 -63.5t127.5 -26.5q52 0 79.5 20t27.5 56q0 32 -19.5 52.5t-64.5 35.5l-92 37q-120 45 -177 114.5t-57 179.5q0 156 104.5 250.5t296.5 94.5q88 0 190 -20.5t159 -47.5l-82 -270q-131 67 -230 67q-84 0 -84 -69q0 -23 19 -40t65 -34l88 -33 q129 -50 180.5 -124.5t51.5 -182.5q0 -151 -112 -253.5t-296 -102.5q-108 0 -207 23.5t-159 55.5z" />
<glyph unicode="t" horiz-adv-x="925" d="M53 799v272h170l41 272h281v-272h297v-272h-297v-404q0 -112 92 -112q38 0 84 17.5t78 41.5l82 -270q-88 -45 -165.5 -68.5t-183.5 -23.5q-154 0 -242.5 90.5t-88.5 277.5v451h-148z" />
<glyph unicode="u" horiz-adv-x="1222" d="M121 397v674h346v-602q0 -86 31 -125t96 -39q53 0 93.5 32t60.5 75v659h346v-1071h-346v102q-46 -55 -125 -87.5t-170 -32.5q-332 0 -332 415z" />
<glyph unicode="v" horiz-adv-x="1153" d="M25 1071h354l196 -754l201 754h354l-356 -1071h-397z" />
<glyph unicode="w" horiz-adv-x="1794" d="M37 1071h354l146 -754l170 754h389l151 -754l164 754h354l-311 -1071h-393l-164 647l-174 -647h-395z" />
<glyph unicode="x" horiz-adv-x="1118" d="M53 0v27l262 505l-262 515v24h369l135 -356l139 356h369v-24l-266 -515l266 -505v-27h-373l-135 350l-131 -350h-373z" />
<glyph unicode="y" horiz-adv-x="1105" d="M8 1071h383l162 -688l172 686q57 0 173 1t175 1l-383 -1143q-57 -172 -146.5 -253t-252.5 -81q-107 0 -209 58l47 258q65 -35 135 -35q52 0 82 28t47 91l10 43z" />
<glyph unicode="z" horiz-adv-x="950" d="M94 0v244l328 553h-328v274h762v-244l-324 -553h324v-274h-762z" />
<glyph unicode="{" horiz-adv-x="675" d="M53 428v203q101 0 147 34.5t46 108.5q0 69 -38 205t-38 213q0 262 317 262h109v-244h-47q-111 0 -111 -100q0 -49 39 -181t39 -204q0 -162 -160 -197q160 -35 160 -196q0 -73 -39 -205t-39 -180q0 -103 111 -103h47v-243h-109q-317 0 -317 276q0 77 38 216t38 212 q0 67 -45.5 95t-147.5 28z" />
<glyph unicode="|" horiz-adv-x="530" d="M131 -385v1839h268v-1839h-268z" />
<glyph unicode="}" horiz-adv-x="677" d="M80 -156h55q103 0 103 103q0 48 -38 180t-38 205q0 162 160 196q-160 34 -160 197q0 72 38 204t38 181q0 100 -103 100h-55v244h110q157 0 236.5 -67t79.5 -195q0 -77 -37 -213t-37 -205q0 -74 45.5 -108.5t147.5 -34.5v-203q-104 0 -148.5 -28t-44.5 -95q0 -73 37 -212 t37 -216q0 -276 -316 -276h-110v243z" />
<glyph unicode="~" horiz-adv-x="962" d="M80 614q28 78 91.5 132.5t141.5 54.5q51 0 100.5 -21t80.5 -45.5t68.5 -45.5t68.5 -21q84 0 143 112l109 -170q-30 -88 -97 -142t-143 -54q-46 0 -91 21t-75 45.5t-70.5 45.5t-78.5 21q-43 0 -81 -29.5t-63 -81.5z" />
<glyph unicode="&#xa1;" horiz-adv-x="557" d="M80 901q0 95 52.5 147t146.5 52t144 -52t50 -147t-50.5 -148t-143.5 -53q-94 0 -146.5 53.5t-52.5 147.5zM106 -322l54 904h239l54 -904h-347z" />
<glyph unicode="&#xa2;" horiz-adv-x="1071" d="M82 537q0 263 144 413t376 150q42 0 82 -6l53 225l137 -37l-53 -227q81 -36 152 -97l-142 -256q-45 41 -79 60l-115 -486q98 2 194 95l142 -258q-159 -142 -371 -142q-25 0 -37 2l-59 -254l-135 37l55 242q-159 48 -251.5 188.5t-92.5 350.5zM422 537q0 -148 80 -218 l112 476q-84 -5 -138 -71t-54 -187z" />
<glyph unicode="&#xa3;" horiz-adv-x="1142" d="M72 217q0 97 53.5 158t136.5 61q33 0 70 -14q0 61 -35 209h-156v153h121q-24 117 -24 224q0 179 99.5 292t295.5 113q102 0 211.5 -32t171.5 -74l-94 -306q-103 91 -213 91q-62 0 -92.5 -46t-30.5 -126q0 -71 8 -136h264v-153h-248q16 -204 6 -299q6 -4 30 -24t43 -31 t36 -11q45 0 58 49t8 160h270q16 -148 -3.5 -256t-85 -173.5t-175.5 -65.5q-28 0 -56.5 9t-57.5 27.5t-47.5 32.5t-49 40.5t-41.5 35.5q-52 -77 -110 -111t-150 -34q-99 0 -156 66.5t-57 170.5zM229 188q0 -51 35 -51q41 0 55 94q-19 19 -40 19q-24 0 -37 -17.5t-13 -44.5z " />
<glyph unicode="&#xa4;" horiz-adv-x="1112" d="M94 354l101 101q-39 73 -39 163t39 166l-101 103l197 194l108 -110q72 30 148 30q86 0 160 -36l114 116l197 -194l-117 -117q35 -65 35 -152q0 -80 -33 -151l115 -113l-197 -194l-114 114q-69 -34 -160 -34q-84 0 -148 28l-108 -108zM383 618q0 -69 46.5 -117t117.5 -48 q69 0 114.5 48t45.5 117t-45.5 117.5t-114.5 48.5q-71 0 -117.5 -48.5t-46.5 -117.5z" />
<glyph unicode="&#xa5;" horiz-adv-x="1122" d="M63 1368v25h357l135 -580l152 580h354v-25l-285 -713h180v-155h-227v-111h227v-153h-227v-236h-348v236h-227v153h227v111h-227v155h180z" />
<glyph unicode="&#xa6;" horiz-adv-x="542" d="M137 326h269v-711h-269v711zM137 768v686h269v-686h-269z" />
<glyph unicode="&#xa7;" horiz-adv-x="1110" d="M100 580q0 154 117 251q-117 73 -117 230q0 156 128.5 254t349.5 98q114 0 228 -26t187 -62l-92 -272q-78 39 -173.5 66.5t-174.5 27.5q-117 0 -117 -70q0 -14 7 -24.5t14 -16.5t25 -12.5t26.5 -8.5t32.5 -7l166 -45q305 -84 305 -322q0 -159 -119 -260q119 -82 119 -219 q0 -162 -128 -260.5t-347 -98.5q-118 0 -235.5 30.5t-184.5 66.5l78 274q184 -98 352 -98q56 0 86.5 18t30.5 51q0 35 -34 54.5t-106 36.5l-157 40q-140 37 -203.5 109.5t-63.5 194.5zM401 618q0 -38 21.5 -60t69.5 -36l102 -28q46 11 74 40t28 72q0 42 -31 69.5t-81 37.5 l-82 20q-47 -13 -74 -45.5t-27 -69.5z" />
<glyph unicode="&#xa8;" horiz-adv-x="1044" d="M125 1360q0 153 172 153q78 0 124 -37t46 -116q0 -78 -46 -116t-124 -38q-79 0 -125.5 38t-46.5 116zM578 1360q0 153 172 153q168 0 168 -153q0 -79 -44.5 -116.5t-123.5 -37.5t-125.5 38t-46.5 116z" />
<glyph unicode="&#xa9;" horiz-adv-x="1593" d="M80 694q0 152 54.5 285.5t149.5 228.5t227.5 150t283.5 55q152 0 285.5 -55t228.5 -150t149.5 -228.5t54.5 -285.5q0 -201 -93 -364.5t-257.5 -256.5t-367.5 -93q-201 0 -365 93t-257 256.5t-93 364.5zM229 694q0 -247 160.5 -410t405.5 -163q163 0 293.5 74.5t203 205.5 t72.5 293q0 250 -160.5 414t-408.5 164q-245 0 -405.5 -164t-160.5 -414zM440 694q0 157 103.5 258t265.5 101q157 0 278 -99l-96 -170q-71 56 -160 56q-71 0 -113 -40.5t-42 -105.5t41.5 -104t113.5 -39q90 0 160 55l96 -172q-124 -98 -278 -98q-162 0 -265.5 100.5 t-103.5 257.5z" />
<glyph unicode="&#xaa;" horiz-adv-x="874" d="M100 858q0 121 90 185.5t252 64.5h9v22q0 48 -18.5 65t-57.5 17q-43 0 -94.5 -16.5t-81.5 -38.5l-39 201q48 20 133 34.5t143 14.5q138 0 189 -62.5t51 -191.5v-260q0 -27 6.5 -38t28.5 -11q27 0 55 22l6 -184q-87 -33 -168 -33q-84 0 -125 74q-74 -74 -174 -74 q-91 0 -148 58.5t-57 150.5zM162 332v174h565v-174h-565zM295 891q0 -66 78 -66q40 0 78 21v14v113q-24 4 -41 4q-46 0 -80.5 -22t-34.5 -64z" />
<glyph unicode="&#xab;" horiz-adv-x="1036" d="M72 584v65l286 426h25l125 -61l-150 -396l150 -395l-125 -63h-25zM514 584v65l289 426h22l127 -61l-149 -396l149 -395l-127 -63h-22z" />
<glyph unicode="&#xac;" horiz-adv-x="1097" d="M104 606v275h865l-2 -637h-269v362h-594z" />
<glyph unicode="&#xad;" horiz-adv-x="966" d="M115 483v275h737v-275h-737z" />
<glyph unicode="&#xae;" horiz-adv-x="1593" d="M80 694q0 152 54.5 285.5t149.5 228.5t227.5 150t283.5 55q152 0 285.5 -55t228.5 -150t149.5 -228.5t54.5 -285.5q0 -201 -93 -364.5t-257.5 -256.5t-367.5 -93q-201 0 -365 93t-257 256.5t-93 364.5zM229 694q0 -247 160.5 -410t405.5 -163q163 0 293.5 74.5t203 205.5 t72.5 293q0 250 -160.5 414t-408.5 164q-245 0 -405.5 -164t-160.5 -414zM494 346v696h360q115 0 185.5 -62.5t70.5 -170.5q0 -72 -35.5 -124t-97.5 -77l151 -215v-47h-235l-150 238h-18v-238h-231zM725 741h100q26 0 40 15.5t14 38.5q0 53 -54 53h-100v-107z" />
<glyph unicode="&#xaf;" horiz-adv-x="1044" d="M289 1237v217h465v-217h-465z" />
<glyph unicode="&#xb0;" horiz-adv-x="833" d="M78 1030q0 180 94 281.5t244 101.5q152 0 246 -101.5t94 -281.5q0 -181 -94 -281t-246 -100q-151 0 -244.5 100t-93.5 281zM297 1030q0 -166 119 -166q56 0 87.5 41t31.5 125q0 166 -119 166t-119 -166z" />
<glyph unicode="&#xb1;" horiz-adv-x="1103" d="M121 80v274h862v-274h-862zM121 715v274h299v363h266v-363h297v-274h-297v-215h-266v215h-299z" />
<glyph unicode="&#xb2;" horiz-adv-x="632" d="M53 1354q3 122 70.5 193t185.5 71q121 0 184.5 -66t63.5 -172q0 -66 -30 -123.5t-99 -117.5l-90 -78h231v-166h-491v141l221 197q70 65 70 131q0 35 -17.5 57.5t-50.5 22.5q-78 0 -78 -121z" />
<glyph unicode="&#xb3;" horiz-adv-x="604" d="M51 1579q35 14 98 26.5t125 12.5q123 0 186.5 -52t63.5 -151q0 -51 -27.5 -90.5t-74.5 -56.5q123 -36 123 -176q0 -95 -69 -151t-202 -56q-101 0 -221 41l45 155q27 -12 74.5 -23t89.5 -11q44 0 68 19.5t24 53.5t-22 49t-70 15h-129v149h129q37 0 55.5 17t18.5 45 q0 61 -82 61q-87 0 -162 -37z" />
<glyph unicode="&#xb4;" horiz-adv-x="1044" d="M283 1194l141 324h338l-195 -324h-284z" />
<glyph unicode="&#xb5;" horiz-adv-x="1171" d="M133 -385v1456h346v-487q0 -159 22 -221t97 -62q77 0 123 76v694h348v-1071h-348v70q-96 -84 -242 -90v-365h-346z" />
<glyph unicode="&#xb6;" horiz-adv-x="1124" d="M53 764q0 144 81 225.5t208 81.5h315v-1456h-208v842h-107q-127 0 -208 81t-81 226zM768 -385v1456h209v-1456h-209z" />
<glyph unicode="&#xb7;" horiz-adv-x="589" d="M98 602q0 95 51.5 148t145.5 53t146.5 -53t52.5 -148t-52.5 -147t-146.5 -52t-145.5 52t-51.5 147z" />
<glyph unicode="&#xb8;" horiz-adv-x="1044" d="M342 -383l27 109q67 -23 106 -23q78 0 78 49q0 47 -82 47q-49 0 -111 -10l-6 12l54 203h131l-31 -113q21 7 37 7q75 0 116 -39.5t41 -102.5q0 -75 -60.5 -118.5t-156.5 -43.5q-73 0 -143 23z" />
<glyph unicode="&#xb9;" horiz-adv-x="518" d="M16 1427l275 179h131v-711h-184v494l-148 -105z" />
<glyph unicode="&#xba;" horiz-adv-x="894" d="M109 1030q0 185 92 284t245 99q152 0 246 -99.5t94 -283.5t-94 -282.5t-246 -98.5q-153 0 -245 98t-92 283zM164 332v174h565v-174h-565zM317 1030q0 -91 34.5 -134.5t94.5 -43.5q127 0 127 178t-127 178q-60 0 -94.5 -43.5t-34.5 -134.5z" />
<glyph unicode="&#xbb;" horiz-adv-x="1036" d="M84 219l152 399l-152 394l127 63h25l284 -426v-65l-284 -424h-25zM528 219l152 399l-152 394l127 63h25l285 -426v-65l-285 -424h-25z" />
<glyph unicode="&#xbc;" horiz-adv-x="1505" d="M49 1223l275 178h131v-711h-185v494l-147 -105zM313 0v27l643 1366h177v-25l-641 -1368h-179zM850 121v123l254 467h242v-451h88v-139h-88v-121h-187v121h-309zM1034 260h125v240z" />
<glyph unicode="&#xbd;" horiz-adv-x="1513" d="M49 1223l275 178h131v-711h-185v494l-147 -105zM313 0v27l643 1366h177v-25l-641 -1368h-179zM918 459q3 122 70.5 193t185.5 71q120 0 183.5 -66t63.5 -172q0 -65 -30.5 -122.5t-100.5 -118.5l-90 -78h234v-166h-494v141l221 197q70 62 70 131q0 34 -18 57t-50 23 q-78 0 -78 -123z" />
<glyph unicode="&#xbe;" horiz-adv-x="1558" d="M70 1374q35 14 98 26.5t125 12.5q123 0 186.5 -52t63.5 -151q0 -51 -28 -90.5t-75 -56.5q123 -36 123 -176q0 -95 -68.5 -151t-201.5 -56q-101 0 -221 41l45 156q78 -35 164 -35q44 0 68 19.5t24 53.5t-22 49t-70 15h-129v149h129q37 0 55 17t18 45q0 61 -82 61 q-86 0 -161 -37zM377 0v27l643 1366h176v-25l-641 -1368h-178zM915 121v123l254 467h242v-451h88v-139h-88v-121h-186v121h-310zM1100 260h125v240z" />
<glyph unicode="&#xbf;" horiz-adv-x="864" d="M61 16q0 100 36.5 174.5t105.5 143.5l108 108q30 31 39.5 48t9.5 45q0 15 -4 51h279q29 -74 29 -140q0 -49 -24.5 -88.5t-76.5 -91.5l-94 -90q-33 -34 -46 -61t-13 -68q0 -45 28 -71.5t78 -26.5q95 0 207 112l84 -276q-169 -127 -379 -127q-174 0 -270.5 99.5 t-96.5 258.5zM297 901q0 95 52.5 147t146.5 52t144 -52t50 -147t-50.5 -148t-143.5 -53q-94 0 -146.5 53.5t-52.5 147.5z" />
<glyph unicode="&#xc0;" horiz-adv-x="1308" d="M10 0l441 1393h409l436 -1393h-350l-67 252h-451l-70 -252h-348zM336 1839h338l141 -323h-285zM514 512h281l-140 532z" />
<glyph unicode="&#xc1;" horiz-adv-x="1308" d="M10 0l441 1393h409l436 -1393h-350l-67 252h-451l-70 -252h-348zM479 1516l142 323h337l-194 -323h-285zM514 512h281l-140 532z" />
<glyph unicode="&#xc2;" horiz-adv-x="1308" d="M10 0l441 1393h409l436 -1393h-350l-67 252h-451l-70 -252h-348zM315 1516l172 323h332l172 -323h-250l-88 157l-90 -157h-248zM514 512h281l-140 532z" />
<glyph unicode="&#xc3;" horiz-adv-x="1308" d="M10 0l441 1393h409l436 -1393h-350l-67 252h-451l-70 -252h-348zM301 1651q32 80 90 133t123 53q46 0 89 -18.5t69.5 -41t59 -41t61.5 -18.5q76 0 118 90l93 -110q-45 -95 -95.5 -142t-117.5 -47q-42 0 -85 18.5t-71.5 40t-61.5 40t-59 18.5q-70 0 -123 -88zM514 512h281 l-140 532z" />
<glyph unicode="&#xc4;" horiz-adv-x="1308" d="M10 0l441 1393h409l436 -1393h-350l-67 252h-451l-70 -252h-348zM258 1681q0 79 46 116.5t126 37.5q78 0 124 -37.5t46 -116.5q0 -78 -46 -115.5t-124 -37.5q-79 0 -125.5 37.5t-46.5 115.5zM514 512h281l-140 532zM711 1681q0 79 46 116.5t126 37.5q168 0 168 -154 q0 -79 -44.5 -116t-123.5 -37t-125.5 37.5t-46.5 115.5z" />
<glyph unicode="&#xc5;" horiz-adv-x="1308" d="M10 0l441 1393h28q-24 44 -24 98q0 83 58.5 142t141.5 59t142 -59t59 -142q0 -49 -27 -98h31l436 -1393h-350l-67 252h-451l-70 -252h-348zM514 512h281l-140 532zM580 1491q0 -32 21.5 -54t53.5 -22t54 22t22 54t-22 54t-54 22t-53.5 -22t-21.5 -54z" />
<glyph unicode="&#xc6;" horiz-adv-x="1882" d="M-29 0l629 1393h1190v-308h-635v-235h508v-283h-508v-262h635v-305h-967v252h-387l-98 -252h-367zM561 512h262v592z" />
<glyph unicode="&#xc7;" horiz-adv-x="1228" d="M82 696q0 165 47.5 301t131 226.5t197 140t244.5 49.5q141 0 265.5 -58t208.5 -151l-158 -246q-68 65 -130.5 98.5t-142.5 33.5q-143 0 -224 -100t-81 -294t81 -293.5t224 -99.5q81 0 143 33.5t130 97.5l158 -246q-82 -90 -201 -147t-256 -61l-23 -89q21 7 37 7 q75 0 116.5 -39.5t41.5 -102.5q0 -75 -60.5 -118.5t-156.5 -43.5q-74 0 -144 23l27 109q67 -23 107 -23q77 0 77 49q0 47 -82 47q-47 0 -110 -10l-6 12l49 189q-228 38 -369 225.5t-141 480.5z" />
<glyph unicode="&#xc8;" horiz-adv-x="1214" d="M150 0v1393h972v-308h-637v-231h510v-291h-510v-258h637v-305h-972zM330 1839h338l141 -323h-285z" />
<glyph unicode="&#xc9;" horiz-adv-x="1214" d="M150 0v1393h972v-308h-637v-231h510v-291h-510v-258h637v-305h-972zM469 1516l141 323h338l-194 -323h-285z" />
<glyph unicode="&#xca;" horiz-adv-x="1214" d="M150 0v1393h972v-308h-637v-231h510v-291h-510v-258h637v-305h-972zM303 1516l172 323h332l172 -323h-250l-88 157l-90 -157h-248z" />
<glyph unicode="&#xcb;" horiz-adv-x="1214" d="M150 0v1393h972v-308h-637v-231h510v-291h-510v-258h637v-305h-972zM244 1681q0 79 46 116.5t126 37.5q78 0 124 -37.5t46 -116.5q0 -78 -46 -115.5t-124 -37.5q-79 0 -125.5 37.5t-46.5 115.5zM696 1681q0 79 46 116.5t126 37.5q168 0 168 -154q0 -79 -44.5 -116 t-123.5 -37t-125.5 37.5t-46.5 115.5z" />
<glyph unicode="&#xcc;" horiz-adv-x="649" d="M2 1839h338l141 -323h-284zM150 0v1393h352v-1393h-352z" />
<glyph unicode="&#xcd;" horiz-adv-x="649" d="M150 0v1393h352v-1393h-352zM174 1516l141 323h338l-194 -323h-285z" />
<glyph unicode="&#xce;" horiz-adv-x="649" d="M-10 1516l172 323h332l172 -323h-250l-88 157l-90 -157h-248zM150 0v1393h352v-1393h-352z" />
<glyph unicode="&#xcf;" horiz-adv-x="649" d="M-74 1681q0 79 46 116.5t126 37.5q78 0 124 -37.5t46 -116.5q0 -78 -46 -115.5t-124 -37.5q-79 0 -125.5 37.5t-46.5 115.5zM150 0v1393h352v-1393h-352zM379 1681q0 79 46 116.5t126 37.5q168 0 168 -154q0 -79 -44.5 -116t-123.5 -37t-125.5 37.5t-46.5 115.5z" />
<glyph unicode="&#xd0;" horiz-adv-x="1413" d="M55 606v172h629v-172h-629zM156 0v1393h561q132 0 243.5 -46.5t193.5 -133.5t128.5 -220t46.5 -299q0 -165 -46.5 -297.5t-128.5 -218.5t-193.5 -132t-243.5 -46h-561zM508 305h162q145 0 225 101t80 288q0 190 -79.5 291.5t-225.5 101.5h-162v-782z" />
<glyph unicode="&#xd1;" horiz-adv-x="1474" d="M150 0v1393h303l520 -803v803h354v-1393h-307l-520 801v-801h-350zM387 1651q32 80 90 133t123 53q46 0 89 -18.5t69.5 -41t59 -41t61.5 -18.5q76 0 118 90l93 -110q-45 -95 -95.5 -142t-117.5 -47q-42 0 -85 18.5t-71.5 40t-61.5 40t-59 18.5q-70 0 -123 -88z" />
<glyph unicode="&#xd2;" horiz-adv-x="1378" d="M80 694q0 209 72 371.5t210.5 255t323.5 92.5q140 0 255.5 -53.5t193.5 -149t120.5 -228t42.5 -288.5q0 -207 -72.5 -368t-212.5 -253.5t-327 -92.5q-185 0 -323.5 92.5t-210.5 253.5t-72 368zM365 1839h337l142 -323h-285zM422 694q0 -192 70.5 -288.5t193.5 -96.5 q126 0 198 96.5t72 288.5q0 195 -72 292t-198 97q-123 0 -193.5 -97t-70.5 -292z" />
<glyph unicode="&#xd3;" horiz-adv-x="1378" d="M80 694q0 209 72 371.5t210.5 255t323.5 92.5q140 0 255.5 -53.5t193.5 -149t120.5 -228t42.5 -288.5q0 -207 -72.5 -368t-212.5 -253.5t-327 -92.5q-185 0 -323.5 92.5t-210.5 253.5t-72 368zM422 694q0 -192 70.5 -288.5t193.5 -96.5q126 0 198 96.5t72 288.5 q0 195 -72 292t-198 97q-123 0 -193.5 -97t-70.5 -292zM535 1516l141 323h338l-195 -323h-284z" />
<glyph unicode="&#xd4;" horiz-adv-x="1378" d="M80 694q0 209 72 371.5t210.5 255t323.5 92.5q140 0 255.5 -53.5t193.5 -149t120.5 -228t42.5 -288.5q0 -207 -72.5 -368t-212.5 -253.5t-327 -92.5q-185 0 -323.5 92.5t-210.5 253.5t-72 368zM350 1516l172 323h332l172 -323h-250l-88 157l-90 -157h-248zM422 694 q0 -192 70.5 -288.5t193.5 -96.5q126 0 198 96.5t72 288.5q0 195 -72 292t-198 97q-123 0 -193.5 -97t-70.5 -292z" />
<glyph unicode="&#xd5;" horiz-adv-x="1378" d="M80 694q0 209 72 371.5t210.5 255t323.5 92.5q140 0 255.5 -53.5t193.5 -149t120.5 -228t42.5 -288.5q0 -207 -72.5 -368t-212.5 -253.5t-327 -92.5q-185 0 -323.5 92.5t-210.5 253.5t-72 368zM336 1651q32 80 90 133t123 53q46 0 88.5 -18.5t69 -41t59 -41t61.5 -18.5 q77 0 119 90l92 -110q-45 -95 -95.5 -142t-117.5 -47q-42 0 -84.5 18.5t-71 40t-61.5 40t-59 18.5q-70 0 -123 -88zM422 694q0 -192 70.5 -288.5t193.5 -96.5q126 0 198 96.5t72 288.5q0 195 -72 292t-198 97q-123 0 -193.5 -97t-70.5 -292z" />
<glyph unicode="&#xd6;" horiz-adv-x="1378" d="M80 694q0 209 72 371.5t210.5 255t323.5 92.5q140 0 255.5 -53.5t193.5 -149t120.5 -228t42.5 -288.5q0 -207 -72.5 -368t-212.5 -253.5t-327 -92.5q-185 0 -323.5 92.5t-210.5 253.5t-72 368zM295 1681q0 79 46 116.5t126 37.5q78 0 124 -37.5t46 -116.5 q0 -78 -46 -115.5t-124 -37.5q-79 0 -125.5 37.5t-46.5 115.5zM422 694q0 -192 70.5 -288.5t193.5 -96.5q126 0 198 96.5t72 288.5q0 195 -72 292t-198 97q-123 0 -193.5 -97t-70.5 -292zM748 1681q0 79 46 116.5t126 37.5q167 0 167 -154q0 -153 -167 -153 q-79 0 -125.5 37.5t-46.5 115.5z" />
<glyph unicode="&#xd7;" horiz-adv-x="993" d="M94 365l213 256l-213 253l193 197l211 -258l209 258l190 -197l-211 -253l211 -256l-190 -195l-209 256l-211 -256z" />
<glyph unicode="&#xd8;" horiz-adv-x="1376" d="M80 694q0 209 72 371.5t210.5 255t323.5 92.5q191 0 334 -98l53 78h201v-25l-123 -178q147 -195 147 -496q0 -207 -72.5 -368t-212.5 -253.5t-327 -92.5q-176 0 -311 83l-45 -63h-203v27l111 159q-158 197 -158 508zM422 694q0 -120 27 -202l380 548q-61 43 -143 43 q-123 0 -193.5 -97t-70.5 -292zM563 338q54 -29 123 -29q126 0 198 96.5t72 288.5q0 103 -22 183z" />
<glyph unicode="&#xd9;" horiz-adv-x="1398" d="M135 567v826h352v-803q0 -149 50 -219t161 -70q113 0 164 71.5t51 219.5v801h353v-826q0 -128 -34 -233.5t-101.5 -186t-178 -125.5t-254.5 -45t-252.5 41t-176 119t-101 185.5t-33.5 244.5zM377 1839h338l141 -323h-285z" />
<glyph unicode="&#xda;" horiz-adv-x="1398" d="M135 567v826h352v-803q0 -149 50 -219t161 -70q113 0 164 71.5t51 219.5v801h353v-826q0 -128 -34 -233.5t-101.5 -186t-178 -125.5t-254.5 -45t-252.5 41t-176 119t-101 185.5t-33.5 244.5zM545 1516l141 323h338l-195 -323h-284z" />
<glyph unicode="&#xdb;" horiz-adv-x="1398" d="M135 567v826h352v-803q0 -149 50 -219t161 -70q113 0 164 71.5t51 219.5v801h353v-826q0 -128 -34 -233.5t-101.5 -186t-178 -125.5t-254.5 -45t-252.5 41t-176 119t-101 185.5t-33.5 244.5zM362 1516l173 323h331l172 -323h-250l-88 157l-90 -157h-248z" />
<glyph unicode="&#xdc;" horiz-adv-x="1398" d="M135 567v826h352v-803q0 -149 50 -219t161 -70q113 0 164 71.5t51 219.5v801h353v-826q0 -128 -34 -233.5t-101.5 -186t-178 -125.5t-254.5 -45t-252.5 41t-176 119t-101 185.5t-33.5 244.5zM303 1681q0 79 46 116.5t126 37.5q78 0 124 -37.5t46 -116.5q0 -78 -46 -115.5 t-124 -37.5q-79 0 -125.5 37.5t-46.5 115.5zM756 1681q0 79 46 116.5t126 37.5q168 0 168 -154q0 -79 -44.5 -116t-123.5 -37t-125.5 37.5t-46.5 115.5z" />
<glyph unicode="&#xdd;" horiz-adv-x="1230" d="M4 1368v25h387l225 -535l224 535h387v-25l-439 -831v-537h-346v535zM461 1516l141 323h338l-195 -323h-284z" />
<glyph unicode="&#xde;" horiz-adv-x="1267" d="M150 0v1393h346v-179h266q91 0 169.5 -30.5t140.5 -90.5t97 -159t35 -227q0 -116 -35.5 -212t-96.5 -158t-140.5 -96t-169.5 -34h-266v-207h-346zM496 512h182q77 0 125.5 53.5t48.5 145.5q0 93 -48.5 145.5t-125.5 52.5h-182v-397z" />
<glyph unicode="&#xdf;" horiz-adv-x="1255" d="M127 0v897q0 129 30 230.5t79 165.5t118 106t141.5 59t153.5 17q92 0 168.5 -26.5t126.5 -68.5t85 -97t50 -110.5t15 -109.5q0 -59 -17.5 -118.5t-38 -98t-38 -72.5t-17.5 -47t21 -38.5t50.5 -60t59.5 -77.5t51 -102.5t21 -122.5q0 -147 -95.5 -246.5t-256.5 -99.5 q-155 0 -265 45l33 276q52 -27 98 -27t76.5 29t30.5 76q0 40 -27.5 86.5t-60.5 81.5t-60.5 76t-27.5 71q0 33 27 88t54 116.5t27 111.5q0 72 -32.5 115.5t-90.5 43.5q-71 0 -106 -74t-35 -202v-893h-348z" />
<glyph unicode="&#xe0;" d="M59 297q0 176 128 270.5t339 94.5q25 0 95 -9v6q0 82 -40.5 113t-121.5 31q-115 0 -252 -55l-57 268q198 74 382 74q206 0 315 -116t109 -329v-645h-335v70q-104 -90 -246 -90q-151 0 -233.5 85t-82.5 232zM248 1518h338l141 -324h-285zM387 334q0 -52 27.5 -77.5 t74.5 -25.5q85 0 132 54v161q-31 7 -70 7q-74 0 -119 -31t-45 -88z" />
<glyph unicode="&#xe1;" d="M59 297q0 176 128 270.5t339 94.5q25 0 95 -9v6q0 82 -40.5 113t-121.5 31q-115 0 -252 -55l-57 268q198 74 382 74q206 0 315 -116t109 -329v-645h-335v70q-104 -90 -246 -90q-151 0 -233.5 85t-82.5 232zM387 334q0 -52 27.5 -77.5t74.5 -25.5q85 0 132 54v161 q-31 7 -70 7q-74 0 -119 -31t-45 -88zM389 1194l141 324h338l-194 -324h-285z" />
<glyph unicode="&#xe2;" d="M59 297q0 176 128 270.5t339 94.5q25 0 95 -9v6q0 82 -40.5 113t-121.5 31q-115 0 -252 -55l-57 268q198 74 382 74q206 0 315 -116t109 -329v-645h-335v70q-104 -90 -246 -90q-151 0 -233.5 85t-82.5 232zM221 1194l172 324h332l172 -324h-250l-88 158l-90 -158h-248z M387 334q0 -52 27.5 -77.5t74.5 -25.5q85 0 132 54v161q-31 7 -70 7q-74 0 -119 -31t-45 -88z" />
<glyph unicode="&#xe3;" d="M59 297q0 176 128 270.5t339 94.5q25 0 95 -9v6q0 82 -40.5 113t-121.5 31q-115 0 -252 -55l-57 268q198 74 382 74q206 0 315 -116t109 -329v-645h-335v70q-104 -90 -246 -90q-151 0 -233.5 85t-82.5 232zM205 1329q32 80 90 133.5t123 53.5q46 0 88.5 -18.5t69 -41 t59 -41t61.5 -18.5q77 0 119 90l92 -111q-44 -94 -95 -141t-118 -47q-42 0 -84.5 18.5t-71 40t-61.5 40t-59 18.5q-70 0 -123 -88zM387 334q0 -52 27.5 -77.5t74.5 -25.5q85 0 132 54v161q-31 7 -70 7q-74 0 -119 -31t-45 -88z" />
<glyph unicode="&#xe4;" d="M59 297q0 176 128 270.5t339 94.5q25 0 95 -9v6q0 82 -40.5 113t-121.5 31q-115 0 -252 -55l-57 268q198 74 382 74q206 0 315 -116t109 -329v-645h-335v70q-104 -90 -246 -90q-151 0 -233.5 85t-82.5 232zM152 1360q0 153 172 153q78 0 124 -37t46 -116q0 -78 -46 -116 t-124 -38q-79 0 -125.5 38t-46.5 116zM387 334q0 -52 27.5 -77.5t74.5 -25.5q85 0 132 54v161q-31 7 -70 7q-74 0 -119 -31t-45 -88zM604 1360q0 153 172 153q168 0 168 -153q0 -79 -44.5 -116.5t-123.5 -37.5t-125.5 38t-46.5 116z" />
<glyph unicode="&#xe5;" d="M59 297q0 176 128 270.5t339 94.5q25 0 95 -9v6q0 82 -40.5 113t-121.5 31q-115 0 -252 -55l-57 268q198 74 382 74q206 0 315 -116t109 -329v-645h-335v70q-104 -90 -246 -90q-151 0 -233.5 85t-82.5 232zM342 1372q0 83 59 142t142 59t141.5 -59t58.5 -142t-58.5 -142 t-141.5 -59t-142 59t-59 142zM387 334q0 -52 27.5 -77.5t74.5 -25.5q85 0 132 54v161q-31 7 -70 7q-74 0 -119 -31t-45 -88zM467 1372q0 -32 22 -54t54 -22t53.5 22t21.5 54t-21.5 54t-53.5 22t-54 -22t-22 -54z" />
<glyph unicode="&#xe6;" horiz-adv-x="1603" d="M59 301q0 91 38 161.5t104 113.5t149.5 64.5t181.5 21.5q40 0 91 -7q0 84 -39 116t-115 32q-60 0 -136 -16.5t-124 -38.5l-59 270q190 72 405 72q188 0 276 -119q100 129 297 129q86 0 153.5 -23t112 -62t74 -94.5t42 -118t12.5 -134.5q0 -134 -25 -211h-563 q18 -219 221 -219q131 0 246 98l112 -217q-72 -69 -172.5 -108.5t-214.5 -39.5q-245 0 -344 172q-167 -163 -381 -163q-160 0 -251 80t-91 241zM387 332q0 -54 30.5 -77.5t71.5 -23.5q82 0 134 56v159q-25 7 -60 7q-176 0 -176 -121zM956 657h297q7 25 7 52 q0 62 -37.5 102.5t-96.5 40.5q-83 0 -126.5 -54t-43.5 -141z" />
<glyph unicode="&#xe7;" horiz-adv-x="1024" d="M76 537q0 263 143.5 413t374.5 150q214 0 373 -142l-142 -256q-91 84 -200 84q-85 0 -141 -64t-56 -185q0 -123 56 -187.5t145 -64.5q107 0 196 86l142 -258q-157 -137 -361 -142l-20 -80q21 7 37 7q75 0 116 -39.5t41 -102.5q0 -75 -60.5 -118.5t-156.5 -43.5 q-73 0 -143 23l26 109q67 -23 107 -23q78 0 78 49q0 47 -82 47q-49 0 -111 -10l-6 12l47 181q-184 36 -293.5 181.5t-109.5 373.5z" />
<glyph unicode="&#xe8;" horiz-adv-x="1054" d="M76 532q0 249 134 408.5t351 159.5q106 0 186.5 -32.5t129 -92t72.5 -137.5t24 -174q0 -124 -25 -213h-538q5 -92 53 -146.5t147 -54.5q121 0 238 92l119 -242q-155 -129 -402 -129q-161 0 -273 73.5t-164 197.5t-52 290zM268 1518h338l142 -324h-285zM422 664h262 q6 21 6 47q0 60 -33 91.5t-90 31.5q-67 0 -103.5 -45.5t-41.5 -124.5z" />
<glyph unicode="&#xe9;" horiz-adv-x="1054" d="M76 532q0 249 134 408.5t351 159.5q106 0 186.5 -32.5t129 -92t72.5 -137.5t24 -174q0 -124 -25 -213h-538q5 -92 53 -146.5t147 -54.5q121 0 238 92l119 -242q-155 -129 -402 -129q-161 0 -273 73.5t-164 197.5t-52 290zM406 1194l141 324h338l-195 -324h-284zM422 664 h262q6 21 6 47q0 60 -33 91.5t-90 31.5q-67 0 -103.5 -45.5t-41.5 -124.5z" />
<glyph unicode="&#xea;" horiz-adv-x="1054" d="M76 532q0 249 134 408.5t351 159.5q106 0 186.5 -32.5t129 -92t72.5 -137.5t24 -174q0 -124 -25 -213h-538q5 -92 53 -146.5t147 -54.5q121 0 238 92l119 -242q-155 -129 -402 -129q-161 0 -273 73.5t-164 197.5t-52 290zM229 1194l172 324h332l172 -324h-250l-88 158 l-90 -158h-248zM422 664h262q6 21 6 47q0 60 -33 91.5t-90 31.5q-67 0 -103.5 -45.5t-41.5 -124.5z" />
<glyph unicode="&#xeb;" horiz-adv-x="1054" d="M76 532q0 249 134 408.5t351 159.5q106 0 186.5 -32.5t129 -92t72.5 -137.5t24 -174q0 -124 -25 -213h-538q5 -92 53 -146.5t147 -54.5q121 0 238 92l119 -242q-155 -129 -402 -129q-161 0 -273 73.5t-164 197.5t-52 290zM168 1360q0 153 172 153q78 0 124 -37t46 -116 q0 -78 -46 -116t-124 -38q-79 0 -125.5 38t-46.5 116zM422 664h262q6 21 6 47q0 60 -33 91.5t-90 31.5q-67 0 -103.5 -45.5t-41.5 -124.5zM621 1360q0 153 172 153q168 0 168 -153q0 -79 -44.5 -116.5t-123.5 -37.5t-125.5 38t-46.5 116z" />
<glyph unicode="&#xec;" horiz-adv-x="604" d="M2 1518h338l141 -324h-284zM129 0v1071h346v-1071h-346z" />
<glyph unicode="&#xed;" horiz-adv-x="604" d="M129 0v1071h346v-1071h-346zM135 1194l141 324h338l-194 -324h-285z" />
<glyph unicode="&#xee;" horiz-adv-x="604" d="M-35 1194l172 324h332l172 -324h-250l-88 158l-90 -158h-248zM129 0v1071h346v-1071h-346z" />
<glyph unicode="&#xef;" horiz-adv-x="604" d="M-92 1360q0 153 172 153q78 0 124 -37t46 -116q0 -78 -46 -116t-124 -38q-79 0 -125.5 38t-46.5 116zM129 0v1071h346v-1071h-346zM360 1360q0 153 172 153q168 0 168 -153q0 -79 -44.5 -116.5t-123.5 -37.5t-125.5 38t-46.5 116z" />
<glyph unicode="&#xf0;" horiz-adv-x="1107" d="M80 481q0 194 95 316.5t265 122.5q114 0 215 -78q-28 148 -120 262l-72 -90l-86 76l78 96q-48 40 -111 69l137 220q83 -18 160 -62l72 88l86 -71l-64 -78q130 -106 207.5 -275.5t77.5 -378.5q0 -348 -129 -533t-373 -185q-195 0 -316.5 136t-121.5 365zM424 479 q0 -83 28 -130.5t80 -47.5q119 0 134 281q-63 67 -125 67q-56 0 -86.5 -42t-30.5 -128z" />
<glyph unicode="&#xf1;" horiz-adv-x="1222" d="M129 0v1071h344v-102q46 55 125.5 88t169.5 33q334 0 334 -416v-674h-346v600q0 87 -31 126.5t-98 39.5q-52 0 -92 -31.5t-62 -75.5v-659h-344zM272 1329q32 80 90 133.5t123 53.5q46 0 89 -18.5t69.5 -41t59 -41t61.5 -18.5q77 0 119 90l92 -111q-44 -94 -95 -141 t-118 -47q-42 0 -85 18.5t-71.5 40t-61.5 40t-59 18.5q-70 0 -123 -88z" />
<glyph unicode="&#xf2;" horiz-adv-x="1136" d="M76 532q0 268 132.5 418t358.5 150q228 0 361 -149.5t133 -418.5q0 -266 -133 -413.5t-361 -147.5q-226 0 -358.5 148t-132.5 413zM246 1518h338l141 -324h-285zM414 532q0 -241 153 -241q156 0 156 241q0 246 -156 246q-153 0 -153 -246z" />
<glyph unicode="&#xf3;" horiz-adv-x="1136" d="M76 532q0 268 132.5 418t358.5 150q228 0 361 -149.5t133 -418.5q0 -266 -133 -413.5t-361 -147.5q-226 0 -358.5 148t-132.5 413zM414 532q0 -241 153 -241q156 0 156 241q0 246 -156 246q-153 0 -153 -246zM414 1194l141 324h338l-195 -324h-284z" />
<glyph unicode="&#xf4;" horiz-adv-x="1136" d="M76 532q0 268 132.5 418t358.5 150q228 0 361 -149.5t133 -418.5q0 -266 -133 -413.5t-361 -147.5q-226 0 -358.5 148t-132.5 413zM231 1194l172 324h332l172 -324h-250l-88 158l-90 -158h-248zM414 532q0 -241 153 -241q156 0 156 241q0 246 -156 246q-153 0 -153 -246z " />
<glyph unicode="&#xf5;" horiz-adv-x="1136" d="M76 532q0 268 132.5 418t358.5 150q228 0 361 -149.5t133 -418.5q0 -266 -133 -413.5t-361 -147.5q-226 0 -358.5 148t-132.5 413zM215 1329q32 80 90 133.5t123 53.5q46 0 89 -18.5t69.5 -41t59 -41t61.5 -18.5q76 0 118 90l93 -111q-44 -94 -95 -141t-118 -47 q-42 0 -85 18.5t-71.5 40t-61.5 40t-59 18.5q-70 0 -123 -88zM414 532q0 -241 153 -241q156 0 156 241q0 246 -156 246q-153 0 -153 -246z" />
<glyph unicode="&#xf6;" horiz-adv-x="1136" d="M76 532q0 268 132.5 418t358.5 150q228 0 361 -149.5t133 -418.5q0 -266 -133 -413.5t-361 -147.5q-226 0 -358.5 148t-132.5 413zM170 1360q0 153 172 153q78 0 124 -37t46 -116q0 -78 -46 -116t-124 -38q-79 0 -125.5 38t-46.5 116zM414 532q0 -241 153 -241 q156 0 156 241q0 246 -156 246q-153 0 -153 -246zM623 1360q0 153 172 153q168 0 168 -153q0 -79 -44.5 -116.5t-123.5 -37.5t-125.5 38t-46.5 116z" />
<glyph unicode="&#xf7;" horiz-adv-x="1021" d="M80 483v275h862v-275h-862zM346 205q0 84 43.5 130t126.5 46q80 0 125 -46.5t45 -129.5q0 -84 -45 -130t-125 -46q-83 0 -126.5 45.5t-43.5 130.5zM346 1032q0 84 43.5 130t126.5 46q80 0 125 -46.5t45 -129.5q0 -84 -45 -130t-125 -46q-83 0 -126.5 45.5t-43.5 130.5z " />
<glyph unicode="&#xf8;" horiz-adv-x="1136" d="M76 532q0 268 132.5 418t358.5 150q161 0 277 -78l35 49h135v-27l-76 -106q123 -148 123 -406q0 -266 -133 -413.5t-361 -147.5q-147 0 -264 68l-29 -39h-137v27l68 96q-129 148 -129 409zM414 532q0 -54 10 -102l227 322q-33 26 -84 26q-153 0 -153 -246zM494 309 q30 -18 73 -18q156 0 156 241q0 37 -8 91z" />
<glyph unicode="&#xf9;" horiz-adv-x="1222" d="M121 397v674h346v-602q0 -86 31 -125t96 -39q53 0 93.5 32t60.5 75v659h346v-1071h-346v102q-46 -55 -125 -87.5t-170 -32.5q-332 0 -332 415zM276 1518h338l142 -324h-285z" />
<glyph unicode="&#xfa;" horiz-adv-x="1222" d="M121 397v674h346v-602q0 -86 31 -125t96 -39q53 0 93.5 32t60.5 75v659h346v-1071h-346v102q-46 -55 -125 -87.5t-170 -32.5q-332 0 -332 415zM471 1194l141 324h338l-194 -324h-285z" />
<glyph unicode="&#xfb;" horiz-adv-x="1222" d="M121 397v674h346v-602q0 -86 31 -125t96 -39q53 0 93.5 32t60.5 75v659h346v-1071h-346v102q-46 -55 -125 -87.5t-170 -32.5q-332 0 -332 415zM268 1194l172 324h332l172 -324h-250l-88 158l-90 -158h-248z" />
<glyph unicode="&#xfc;" horiz-adv-x="1222" d="M121 397v674h346v-602q0 -86 31 -125t96 -39q53 0 93.5 32t60.5 75v659h346v-1071h-346v102q-46 -55 -125 -87.5t-170 -32.5q-332 0 -332 415zM213 1360q0 153 172 153q78 0 124 -37t46 -116q0 -78 -46 -116t-124 -38q-79 0 -125.5 38t-46.5 116zM666 1360q0 153 172 153 q168 0 168 -153q0 -79 -44.5 -116.5t-123.5 -37.5t-125.5 38t-46.5 116z" />
<glyph unicode="&#xfd;" horiz-adv-x="1105" d="M8 1071h383l162 -688l172 686q57 0 173 1t175 1l-383 -1143q-57 -172 -146.5 -253t-252.5 -81q-107 0 -209 58l47 258q65 -35 135 -35q52 0 82 28t47 91l10 43zM397 1194l142 324h338l-195 -324h-285z" />
<glyph unicode="&#xfe;" horiz-adv-x="1210" d="M129 -385v1839h344v-479q92 117 248 117q186 0 297.5 -146.5t111.5 -410.5q0 -265 -111 -409t-298 -144q-147 0 -248 108v-475h-344zM473 346q21 -24 59 -41.5t76 -17.5q82 0 126 66t44 186q0 116 -44.5 180.5t-125.5 64.5q-84 0 -135 -61v-377z" />
<glyph unicode="&#xff;" horiz-adv-x="1105" d="M8 1071h383l162 -688l172 686q57 0 173 1t175 1l-383 -1143q-57 -172 -146.5 -253t-252.5 -81q-107 0 -209 58l47 258q65 -35 135 -35q52 0 82 28t47 91l10 43zM158 1360q0 153 172 153q78 0 124 -37t46 -116q0 -78 -46 -116t-124 -38q-79 0 -125.5 38t-46.5 116z M610 1360q0 153 172 153q168 0 168 -153q0 -79 -44.5 -116.5t-123.5 -37.5t-125.5 38t-46.5 116z" />
<glyph unicode="&#x152;" horiz-adv-x="1984" d="M80 692q0 204 77 368t214 257.5t307 93.5q133 0 244 -65v47h968v-308h-635v-235h508v-283h-508v-262h635v-305h-968v49q-118 -72 -244 -72q-170 0 -307 93t-214 256.5t-77 365.5zM414 692q0 -164 79.5 -275.5t206.5 -111.5q69 0 127 29t95 80v563q-84 104 -224 104 q-126 0 -205 -111t-79 -278z" />
<glyph unicode="&#x153;" horiz-adv-x="1812" d="M76 532q0 269 131 418.5t358 149.5q127 0 227.5 -53t159.5 -150q60 95 154.5 149t212.5 54q208 0 311 -121t103 -326q0 -111 -25 -196h-549q2 -85 53 -150t152 -65q122 0 248 98l110 -234q-161 -135 -389 -135q-266 0 -385 195q-60 -95 -158.5 -145t-224.5 -50 q-227 0 -358 147t-131 414zM408 532q0 -123 42.5 -183t116.5 -60q75 0 117.5 60t42.5 183q0 126 -42.5 186t-117.5 60q-74 0 -116.5 -60.5t-42.5 -185.5zM1174 657h282q4 12 4 35q0 75 -33.5 117.5t-95.5 42.5q-74 0 -114.5 -51.5t-42.5 -143.5z" />
<glyph unicode="&#x178;" horiz-adv-x="1230" d="M4 1368v25h387l225 -535l224 535h387v-25l-439 -831v-537h-346v535zM219 1681q0 79 46 116.5t126 37.5q78 0 124 -37.5t46 -116.5q0 -78 -46 -115.5t-124 -37.5q-79 0 -125.5 37.5t-46.5 115.5zM672 1681q0 79 46 116.5t126 37.5q168 0 168 -154q0 -79 -44.5 -116 t-123.5 -37t-125.5 37.5t-46.5 115.5z" />
<glyph unicode="&#x2c6;" horiz-adv-x="1044" d="M184 1194l172 324h332l172 -324h-250l-88 158l-90 -158h-248z" />
<glyph unicode="&#x2dc;" horiz-adv-x="1044" d="M170 1329q32 80 90 133.5t123 53.5q46 0 89 -18.5t69.5 -41t59 -41t61.5 -18.5q76 0 118 90l92 -111q-44 -94 -95 -141t-118 -47q-42 0 -84.5 18.5t-71 40t-61.5 40t-59 18.5q-70 0 -123 -88z" />
<glyph unicode="&#x2000;" horiz-adv-x="919" />
<glyph unicode="&#x2001;" horiz-adv-x="1839" />
<glyph unicode="&#x2002;" horiz-adv-x="919" />
<glyph unicode="&#x2003;" horiz-adv-x="1839" />
<glyph unicode="&#x2004;" horiz-adv-x="613" />
<glyph unicode="&#x2005;" horiz-adv-x="459" />
<glyph unicode="&#x2006;" horiz-adv-x="306" />
<glyph unicode="&#x2007;" horiz-adv-x="306" />
<glyph unicode="&#x2008;" horiz-adv-x="229" />
<glyph unicode="&#x2009;" horiz-adv-x="367" />
<glyph unicode="&#x200a;" horiz-adv-x="102" />
<glyph unicode="&#x2010;" horiz-adv-x="966" d="M115 483v275h737v-275h-737z" />
<glyph unicode="&#x2011;" horiz-adv-x="966" d="M115 483v275h737v-275h-737z" />
<glyph unicode="&#x2012;" horiz-adv-x="966" d="M115 483v275h737v-275h-737z" />
<glyph unicode="&#x2013;" horiz-adv-x="1140" d="M115 483v275h911v-275h-911z" />
<glyph unicode="&#x2014;" horiz-adv-x="1595" d="M115 483v275h1366v-275h-1366z" />
<glyph unicode="&#x2018;" horiz-adv-x="555" d="M84 891q0 118 47.5 266.5t108.5 255.5l190 -78l-72 -256q111 -37 111 -188q0 -96 -50 -150.5t-143 -54.5q-90 0 -141 55t-51 150z" />
<glyph unicode="&#x2019;" horiz-adv-x="550" d="M88 1206q0 97 50.5 152t140.5 55q91 0 143.5 -56t52.5 -151q0 -117 -49 -266.5t-111 -253.5l-188 78l70 254q-53 19 -81 68t-28 120z" />
<glyph unicode="&#x201a;" horiz-adv-x="569" d="M90 166q0 97 50.5 152t140.5 55q91 0 143.5 -56t52.5 -151q0 -117 -49 -266.5t-111 -253.5l-188 78l70 253q-53 18 -81 67.5t-28 121.5z" />
<glyph unicode="&#x201c;" horiz-adv-x="935" d="M86 950q0 104 43 236.5t96 226.5l162 -67l-61 -232q94 -30 94 -164q0 -86 -42.5 -133t-123.5 -47q-79 0 -123.5 48t-44.5 132zM514 950q0 104 43 236.5t96 226.5l162 -67l-61 -232q94 -30 94 -164q0 -85 -43 -132.5t-121 -47.5q-81 0 -125.5 48t-44.5 132z" />
<glyph unicode="&#x201d;" horiz-adv-x="931" d="M88 1233q0 85 43.5 131.5t122.5 46.5t123.5 -48t44.5 -130q0 -105 -42 -238.5t-95 -226.5l-164 70l61 229q-94 30 -94 166zM516 1233q0 84 44 131t122 47t124 -48t46 -130q0 -104 -43 -237.5t-96 -227.5l-162 70l61 229q-96 29 -96 166z" />
<glyph unicode="&#x201e;" horiz-adv-x="950" d="M94 109q0 85 43.5 132.5t122.5 47.5t123.5 -48t44.5 -132q0 -105 -42 -237.5t-95 -225.5l-164 65l61 234q-94 27 -94 164zM522 109q0 85 43.5 132.5t122.5 47.5q78 0 124 -48.5t46 -131.5q0 -104 -43 -236.5t-96 -226.5l-164 65l63 234q-96 26 -96 164z" />
<glyph unicode="&#x2022;" horiz-adv-x="815" d="M143 618q0 137 70 212t197 75q125 0 194.5 -75.5t69.5 -211.5q0 -137 -69.5 -211.5t-194.5 -74.5q-128 0 -197.5 74t-69.5 212z" />
<glyph unicode="&#x2026;" horiz-adv-x="1550" d="M92 150q0 88 46.5 136t131.5 48t133 -48.5t48 -135.5t-48 -134t-133 -47t-131.5 47t-46.5 134zM596 150q0 88 46.5 136t131.5 48t132.5 -48.5t47.5 -135.5t-47.5 -134t-132.5 -47t-131.5 47t-46.5 134zM1102 150q0 88 46 136t132 48q84 0 131 -48.5t47 -135.5t-47 -134 t-131 -47q-86 0 -132 46.5t-46 134.5z" />
<glyph unicode="&#x202f;" horiz-adv-x="367" />
<glyph unicode="&#x2039;" horiz-adv-x="591" d="M72 584v65l286 426h25l125 -61l-150 -396l150 -395l-125 -63h-25z" />
<glyph unicode="&#x203a;" horiz-adv-x="591" d="M84 219l152 399l-152 394l127 63h25l284 -426v-65l-284 -424h-25z" />
<glyph unicode="&#x205f;" horiz-adv-x="459" />
<glyph unicode="&#x20ac;" horiz-adv-x="1116" d="M86 479v154h78v67v23h-78v154h88q35 259 169 397.5t345 138.5q219 0 363 -137l-117 -275q-84 91 -205 91q-158 0 -199 -215h340l-59 -154h-293v-23q0 -47 2 -67h262l-53 -154h-188q43 -178 186 -178q52 0 90 15.5t88 52.5l125 -277q-168 -112 -350 -112q-195 0 -326 131 t-172 368h-96z" />
<glyph unicode="&#x2122;" horiz-adv-x="1468" d="M125 1171v187h455v-187h-140v-440h-178v440h-137zM700 731v627h154l162 -234l164 234h153v-627h-180v318l-121 -181h-33l-118 181v-318h-181z" />
<glyph unicode="&#x25fc;" d="M0 0v1075h1075v-1075h-1075z" />
<glyph unicode="&#xfb01;" horiz-adv-x="1421" d="M63 754v272h148v68q0 190 79.5 285.5t252.5 95.5q63 0 131.5 -13t113.5 -32l-57 -273q-55 31 -104 31q-70 0 -70 -78v-84h217v-272h-217v-754h-346v754h-148zM930 1364q0 162 192 162q189 0 189 -162t-189 -162q-192 0 -192 162zM948 0v1071h346v-1071h-346z" />
<glyph unicode="&#xfb02;" horiz-adv-x="1478" d="M63 754v272h148v68q0 190 79.5 285.5t252.5 95.5q63 0 131.5 -13t113.5 -32l-57 -273q-55 31 -104 31q-70 0 -70 -78v-84h217v-272h-217v-754h-346v754h-148zM946 258v1196h346v-1098q0 -44 15 -63t45 -19q38 0 82 27l8 -276q-96 -45 -228 -45q-139 0 -203.5 64 t-64.5 214z" />
</font>
</defs>
</svg>
