<?xml version="1.0" standalone="no"?>
<!DOCTYPE svg PUBLIC "-//W3C//DTD SVG 1.1//EN" "http://www.w3.org/Graphics/SVG/1.1/DTD/svg11.dtd" >
<svg xmlns="http://www.w3.org/2000/svg">
<metadata></metadata>
<defs>
<font id="pluto_sanscond_bold" horiz-adv-x="1067" >
<font-face units-per-em="2048" ascent="1536" descent="-512" />
<missing-glyph horiz-adv-x="419" />
<glyph horiz-adv-x="0" />
<glyph horiz-adv-x="0" />
<glyph horiz-adv-x="682" />
<glyph unicode=" "  horiz-adv-x="419" />
<glyph unicode="&#x09;" horiz-adv-x="419" />
<glyph unicode="&#xa0;" horiz-adv-x="419" />
<glyph unicode="!" horiz-adv-x="552" d="M102 152q0 86 44.5 133t127.5 47q84 0 131.5 -47t47.5 -133t-47.5 -132.5t-131.5 -46.5q-83 0 -127.5 46.5t-44.5 132.5zM125 1393h299l-45 -930h-209z" />
<glyph unicode="&#x22;" horiz-adv-x="858" d="M119 1393h231l-16 -525h-205zM510 1393h231l-14 -525h-207z" />
<glyph unicode="#" horiz-adv-x="1232" d="M74 311v215h184l70 330h-140v215h187l69 322h207v-23l-63 -299h207l69 322h205v-23l-63 -299h153v-215h-201l-69 -330h158v-215h-205l-66 -311h-207v23l62 288h-207l-66 -311h-208v23l61 288h-137zM471 526h207l70 330h-207z" />
<glyph unicode="$" horiz-adv-x="1081" d="M74 985q0 160 100.5 274.5t280.5 143.5v172h157v-166q105 -4 205.5 -31t169.5 -65l-84 -262q-135 81 -291 90v-318l80 -26q162 -56 238 -145.5t76 -227.5q0 -171 -106 -290.5t-288 -145.5v-252h-157v248q-105 8 -203 38.5t-160 65.5l70 274q146 -97 293 -110v334l-105 37 q-139 46 -207.5 134.5t-68.5 227.5zM367 1008q0 -85 88 -127v243q-88 -30 -88 -116zM612 266q90 39 90 137q0 44 -21.5 73.5t-68.5 53.5v-264z" />
<glyph unicode="%" horiz-adv-x="1619" d="M63 1036q0 178 91 277.5t239 99.5t240 -100t92 -277t-91.5 -274.5t-240.5 -97.5t-239.5 97.5t-90.5 274.5zM274 1036q0 -80 32 -119.5t87 -39.5q56 0 87.5 39t31.5 120q0 82 -31.5 122t-87.5 40q-55 0 -87 -40t-32 -122zM387 0v23l608 1370h236v-23l-604 -1370h-240z M895 352q0 178 91 277.5t239 99.5t239.5 -99.5t91.5 -277.5q0 -177 -91 -274.5t-240 -97.5t-239.5 97.5t-90.5 274.5zM1104 352q0 -80 33 -119.5t88 -39.5q118 0 118 159q0 162 -118 162q-55 0 -88 -40.5t-33 -121.5z" />
<glyph unicode="&#x26;" horiz-adv-x="1388" d="M100 358q0 122 67.5 209.5t192.5 155.5q-66 79 -97.5 153t-31.5 173q0 72 26 136.5t75.5 116t128.5 81.5t178 30q193 0 300.5 -96.5t107.5 -269.5q0 -243 -289 -383l186 -199q116 144 189 334l219 -158q-92 -211 -228 -367l222 -233v-43h-342l-86 96q-179 -114 -400 -114 q-191 0 -304.5 104.5t-113.5 273.5zM406 399q0 -71 48.5 -116t129.5 -45q85 0 164 49l-230 260q-58 -33 -85 -66.5t-27 -81.5zM518 1018q0 -80 82 -184l31 14q127 56 127 170q0 59 -32.5 98t-86.5 39q-53 0 -87 -39t-34 -98z" />
<glyph unicode="'" horiz-adv-x="466" d="M119 1393h231l-16 -525h-205z" />
<glyph unicode="(" horiz-adv-x="591" d="M80 537q0 169 28.5 327.5t74 274.5t92 197.5t92.5 129.5l165 -96q-80 -136 -137 -353t-57 -482q0 -262 57 -479t137 -355l-165 -96q-45 48 -92 130t-92.5 198.5t-74 275.5t-28.5 328z" />
<glyph unicode=")" horiz-adv-x="591" d="M59 -299q80 136 137.5 353.5t57.5 480.5q0 266 -57.5 483t-137.5 352l166 96q46 -48 92.5 -129.5t92 -197.5t74 -274.5t28.5 -327.5t-28.5 -328t-74 -275.5t-92.5 -198.5t-92 -130z" />
<glyph unicode="*" horiz-adv-x="913" d="M78 1018l61 205l217 -84l-16 254h233l-16 -256l217 86l62 -205l-215 -57l137 -199l-174 -113l-127 217l-127 -217l-176 111l135 205z" />
<glyph unicode="+" horiz-adv-x="1007" d="M78 502v237h309v373h231v-373h312v-237h-312v-373h-231v373h-309z" />
<glyph unicode="," horiz-adv-x="542" d="M98 145q0 89 44 138t126 49q81 0 127.5 -50.5t46.5 -136.5q0 -110 -46.5 -255t-102.5 -242l-164 65l74 264q-51 15 -78 59.5t-27 108.5z" />
<glyph unicode="-" horiz-adv-x="960" d="M121 502v237h719v-237h-719z" />
<glyph unicode="." horiz-adv-x="546" d="M98 152q0 86 45.5 133t128.5 47q84 0 131.5 -47t47.5 -133t-47.5 -132.5t-131.5 -46.5q-83 0 -128.5 46.5t-45.5 132.5z" />
<glyph unicode="/" horiz-adv-x="944" d="M51 0v23l606 1370h236v-23l-604 -1370h-238z" />
<glyph unicode="0" horiz-adv-x="1249" d="M98 694q0 335 135 527t390 192q257 0 392.5 -191.5t135.5 -527.5q0 -333 -135.5 -523.5t-392.5 -190.5q-255 0 -390 191t-135 523zM385 694q0 -436 238 -436q125 0 181 112.5t56 323.5q0 443 -237 443q-122 0 -180 -116t-58 -327z" />
<glyph unicode="1" horiz-adv-x="913" d="M18 1065l514 328h222v-1393h-301v1034l-320 -198z" />
<glyph unicode="2" horiz-adv-x="1144" d="M86 913q5 231 129 365.5t344 134.5q114 0 203.5 -34.5t145.5 -96.5t85 -143t29 -178q0 -129 -54.5 -234t-181.5 -229l-245 -234h510v-264h-930v227l438 410q83 76 119.5 147t36.5 154q0 91 -43.5 145t-128.5 54q-92 0 -139.5 -75.5t-47.5 -201.5z" />
<glyph unicode="3" horiz-adv-x="1105" d="M82 1329q65 31 179.5 57.5t217.5 26.5q243 0 365.5 -98t122.5 -287q0 -105 -52.5 -188.5t-136.5 -112.5q115 -45 173.5 -126t58.5 -220q0 -188 -135 -294.5t-396 -106.5q-175 0 -395 83l74 254q150 -79 307 -79q106 0 173 51t67 139q0 82 -52 120t-157 38h-267v258h267 q83 0 126.5 39.5t43.5 103.5q0 82 -57 126t-152 44q-82 0 -173 -29.5t-137 -56.5z" />
<glyph unicode="4" horiz-adv-x="1234" d="M51 258v197l529 938h397v-912h192v-223h-192v-258h-299v258h-627zM348 481h330v598z" />
<glyph unicode="5" horiz-adv-x="1095" d="M72 70l73 252q150 -84 306 -84q109 0 177 53.5t68 161.5q0 93 -61 136.5t-168 43.5h-320l-12 12l55 748h773v-265h-521l-18 -274h82q495 0 495 -395q0 -239 -138 -359t-382 -120q-206 0 -409 90z" />
<glyph unicode="6" horiz-adv-x="1206" d="M96 698q0 326 145.5 520.5t407.5 194.5q127 0 242 -34t174 -72l-78 -246q-54 36 -137 65t-164 29q-142 0 -209 -95t-78 -269q114 135 291 135q209 0 320.5 -118t111.5 -329q0 -226 -133.5 -362.5t-343.5 -136.5q-260 0 -404.5 194.5t-144.5 523.5zM408 535 q20 -131 75 -205t148 -74q86 0 140 64t54 159q0 99 -51 151t-139 52q-135 0 -227 -147z" />
<glyph unicode="7" horiz-adv-x="1003" d="M59 1128v265h899v-211l-458 -1182h-330v29l457 1099h-568z" />
<glyph unicode="8" horiz-adv-x="1224" d="M96 381q0 145 55.5 227t178.5 119q-94 30 -143.5 111.5t-49.5 189.5q0 188 120 286.5t355 98.5q233 0 353 -98.5t120 -286.5q0 -109 -49 -190t-145 -111q124 -37 180.5 -119t56.5 -227q0 -187 -132.5 -294t-383.5 -107q-253 0 -384.5 107t-131.5 294zM399 428 q0 -90 57 -147.5t156 -57.5q97 0 155 58t58 147q0 84 -53.5 138.5t-161.5 54.5q-103 0 -157 -55t-54 -138zM434 997q0 -74 43.5 -124t132.5 -50q91 0 134.5 49.5t43.5 124.5q0 84 -46 130.5t-130 46.5q-86 0 -132 -46.5t-46 -130.5z" />
<glyph unicode="9" horiz-adv-x="1206" d="M84 913q0 227 133 363.5t344 136.5q260 0 404.5 -195t144.5 -524q0 -326 -145.5 -520t-407.5 -194q-127 0 -241.5 33.5t-176.5 72.5l80 246q54 -36 137 -65t164 -29q72 0 125.5 25.5t86 74.5t50.5 113.5t23 148.5q-111 -133 -287 -133q-210 0 -322 117.5t-112 328.5z M381 913q0 -99 51 -150.5t141 -51.5q77 0 133 44.5t91 102.5q-42 279 -222 279q-86 0 -140 -64t-54 -160z" />
<glyph unicode=":" horiz-adv-x="583" d="M119 145q0 85 44 131t126 46t128 -46.5t46 -130.5q0 -83 -46 -128.5t-128 -45.5t-126 45.5t-44 128.5zM119 924q0 85 44 130.5t126 45.5t128 -46t46 -130q0 -83 -46 -128.5t-128 -45.5t-126 45.5t-44 128.5z" />
<glyph unicode=";" horiz-adv-x="581" d="M115 924q0 85 44 130.5t126 45.5t128 -46t46 -130q0 -83 -46 -128.5t-128 -45.5t-126 45.5t-44 128.5zM123 139q0 86 43 133t121 47q79 0 124.5 -49t45.5 -131q0 -106 -46 -247t-100 -236l-159 63l71 256q-50 15 -75 58t-25 106z" />
<glyph unicode="&#x3c;" horiz-adv-x="1044" d="M74 498v233l829 385h21v-229l-615 -269l615 -264v-231h-21z" />
<glyph unicode="=" horiz-adv-x="1110" d="M131 215v238h848v-238h-848zM131 786v238h848v-238h-848z" />
<glyph unicode="&#x3e;" horiz-adv-x="1044" d="M121 123v231l616 264l-616 269v229h22l826 -385v-233l-826 -375h-22z" />
<glyph unicode="?" horiz-adv-x="862" d="M63 1274q155 139 369 139q168 0 263.5 -99t95.5 -261q0 -96 -37.5 -171.5t-108.5 -150.5l-108 -113q-41 -43 -48 -58q-8 -19 -8 -44q0 -26 6 -53h-241q-23 67 -23 129q0 49 24 89t79 97l94 101q38 40 53.5 73t15.5 88t-34.5 89t-96.5 34q-110 0 -219 -125zM195 152 q0 87 45 133.5t129 46.5t131 -47t47 -133t-47 -132.5t-131 -46.5q-85 0 -129.5 46.5t-44.5 132.5z" />
<glyph unicode="@" horiz-adv-x="1730" d="M82 539q0 279 102 492t283.5 327.5t415.5 114.5q233 0 411 -100.5t275.5 -286t97.5 -429.5q0 -327 -117 -480.5t-321 -153.5q-87 0 -135.5 25.5t-81.5 84.5q-71 -108 -244 -108q-167 0 -271 138.5t-104 356.5q0 221 104 361.5t271 140.5q80 0 134.5 -18.5t90.5 -65.5v68 h285v-668q0 -73 10 -97t45 -24q57 0 99.5 111t42.5 313q0 306 -156 475.5t-436 169.5q-134 0 -244.5 -47.5t-191.5 -139.5t-126 -235t-45 -325q0 -364 160.5 -557t446.5 -193q164 0 299 78l61 -170q-163 -94 -360 -94q-378 0 -589.5 246t-211.5 690zM686 520 q0 -109 48.5 -177.5t127.5 -68.5t131 66v369q-46 59 -131 59q-80 0 -128 -68t-48 -180z" />
<glyph unicode="A" horiz-adv-x="1292" d="M18 0l455 1393h352l445 -1393h-301l-78 272h-492l-80 -272h-301zM473 496h344l-168 596z" />
<glyph unicode="B" horiz-adv-x="1282" d="M158 0v1393h532q202 0 310 -92.5t108 -280.5q0 -105 -44 -180.5t-124 -114.5q127 -30 194.5 -114.5t67.5 -221.5q0 -186 -111.5 -287.5t-320.5 -101.5h-612zM461 256h264q164 0 164 152q0 163 -180 163h-248v-315zM461 844h182q160 0 160 149q0 74 -36 109t-118 35h-188 v-293z" />
<glyph unicode="C" horiz-adv-x="1234" d="M88 696q0 165 47 301t130 226.5t196 140t244 49.5q141 0 261 -60t205 -159l-149 -209q-70 72 -135.5 110t-153.5 38q-158 0 -247 -112t-89 -325t89 -324.5t247 -111.5q89 0 155 38t134 110l149 -209q-85 -99 -205 -159t-261 -60q-131 0 -244 49.5t-196 139.5t-130 226 t-47 301z" />
<glyph unicode="D" horiz-adv-x="1400" d="M158 0v1393h538q132 0 243.5 -46.5t194 -133.5t129 -220t46.5 -299q0 -165 -46.5 -297.5t-129 -218.5t-194 -132t-243.5 -46h-538zM461 264h196q161 0 251.5 112t90.5 318q0 209 -90.5 321.5t-251.5 112.5h-196v-864z" />
<glyph unicode="E" horiz-adv-x="1210" d="M158 0v1393h958v-267h-667v-284h540v-258h-540v-320h667v-264h-958z" />
<glyph unicode="F" horiz-adv-x="1142" d="M158 0v1393h923v-267h-632v-381h538v-266h-538v-479h-291z" />
<glyph unicode="G" horiz-adv-x="1335" d="M88 694q0 166 49.5 303t135 227t200.5 139.5t246 49.5q280 0 463 -162l-121 -241q-151 123 -305 123q-169 0 -263 -115t-94 -324q0 -214 92 -324t248 -110q129 0 209 57v254h-280v252h559v-678q-86 -70 -230 -117.5t-278 -47.5q-131 0 -246 49t-200.5 139t-135 226 t-49.5 300z" />
<glyph unicode="H" horiz-adv-x="1472" d="M158 0v1393h303v-557h551v557h303v-1393h-303v571h-551v-571h-303z" />
<glyph unicode="I" horiz-adv-x="620" d="M158 0v1393h303v-1393h-303z" />
<glyph unicode="J" horiz-adv-x="1138" d="M29 469l290 29q6 -131 50 -190.5t135 -59.5q92 0 138 63t46 199v883h303v-879q0 -119 -29.5 -216t-89 -169.5t-154.5 -112t-220 -39.5q-224 0 -344 131.5t-125 360.5z" />
<glyph unicode="K" horiz-adv-x="1280" d="M158 0v1393h303v-572h76l374 572h306v-45l-445 -652l488 -655v-41h-340l-390 557h-69v-557h-303z" />
<glyph unicode="L" horiz-adv-x="1079" d="M158 0v1393h303v-1129h588v-264h-891z" />
<glyph unicode="M" horiz-adv-x="1677" d="M158 0v1393h293l387 -574l389 574h293v-1393h-303v889l-353 -518h-51l-352 518v-889h-303z" />
<glyph unicode="N" horiz-adv-x="1472" d="M158 0v1393h262l588 -885v885h305v-1393h-266l-588 883v-883h-301z" />
<glyph unicode="O" horiz-adv-x="1394" d="M88 694q0 210 73 372.5t211.5 254.5t321.5 92q185 0 325 -92t214 -255t74 -372q0 -208 -74 -369.5t-214 -253t-325 -91.5q-183 0 -321.5 91.5t-211.5 253t-73 369.5zM385 694q0 -214 83 -322t226 -108q146 0 231 108t85 322q0 217 -84.5 325.5t-231.5 108.5 q-144 0 -226.5 -108.5t-82.5 -325.5z" />
<glyph unicode="P" horiz-adv-x="1249" d="M158 0v1393h594q90 0 168.5 -31t140 -92t96.5 -160.5t35 -226.5q0 -228 -128 -365t-312 -137h-291v-381h-303zM461 645h225q85 0 141 66t56 174q0 115 -55.5 179t-141.5 64h-225v-483z" />
<glyph unicode="Q" horiz-adv-x="1396" d="M88 694q0 210 73 372.5t211.5 254.5t321.5 92q185 0 325 -92t214 -255t74 -372q0 -223 -87 -393t-243 -254q46 -51 76.5 -80t78.5 -55.5t95 -26.5q103 0 166 29l30 -244q-97 -39 -217 -39q-79 0 -153 30.5t-129.5 77.5t-99.5 94t-82.5 90.5t-59.5 56.5q-180 3 -315.5 95 t-207 252t-71.5 367zM379 694q0 -214 85.5 -322t229.5 -108q146 0 231 108t85 322q0 217 -84.5 324.5t-231.5 107.5q-145 0 -230 -108t-85 -324z" />
<glyph unicode="R" horiz-adv-x="1271" d="M158 0v1393h602q191 0 307.5 -127.5t116.5 -329.5q0 -154 -83 -265.5t-216 -152.5l344 -465v-53h-322l-346 500h-100v-500h-303zM461 733h219q88 0 141 53.5t53 143.5q0 95 -52.5 146.5t-141.5 51.5h-219v-395z" />
<glyph unicode="S" horiz-adv-x="1101" d="M76 88l69 283q74 -50 173 -84.5t190 -34.5q87 0 146 40t59 114q0 107 -140 151l-182 57q-153 46 -226 138t-73 243q0 82 31.5 156t90.5 132.5t152.5 93t208.5 34.5q117 0 231.5 -28t188.5 -70l-84 -262q-68 40 -157 65t-168 25q-93 0 -144 -36t-51 -99q0 -53 30.5 -84 t96.5 -52l180 -59q169 -56 247.5 -151.5t78.5 -237.5q0 -190 -140.5 -316t-365.5 -126q-121 0 -246 33t-196 75z" />
<glyph unicode="T" horiz-adv-x="1099" d="M45 1126v267h1010v-267h-348v-1126h-304v1126h-358z" />
<glyph unicode="U" horiz-adv-x="1394" d="M143 563v830h303v-809q0 -163 60.5 -244.5t187.5 -81.5q252 0 252 328v807h303v-830q0 -126 -33 -230.5t-99 -185t-174 -125.5t-249 -45q-276 0 -413.5 155.5t-137.5 430.5z" />
<glyph unicode="V" horiz-adv-x="1314" d="M20 1393h326l309 -1057l316 1057h327l-454 -1393h-377z" />
<glyph unicode="W" horiz-adv-x="1947" d="M20 1393h322l313 -1053l191 598l-137 455h325l275 -1004l295 1004h327l-454 -1393h-328l-172 580l-186 -580h-324z" />
<glyph unicode="X" horiz-adv-x="1308" d="M43 0v23l399 671l-399 676v23h340l270 -500l271 500h342v-23l-404 -676l404 -671v-23h-346l-267 496l-268 -496h-342z" />
<glyph unicode="Y" horiz-adv-x="1224" d="M12 1370v23h334l266 -568l269 568h329v-23l-450 -821v-549h-297v547z" />
<glyph unicode="Z" horiz-adv-x="1136" d="M96 0v211l559 917h-559v265h944v-211l-557 -918h557v-264h-944z" />
<glyph unicode="[" horiz-adv-x="647" d="M139 -385v1839h436v-237h-202v-1364h202v-238h-436z" />
<glyph unicode="\" horiz-adv-x="944" d="M51 1370v23h236l606 -1370v-23h-238z" />
<glyph unicode="]" horiz-adv-x="647" d="M72 -147h202v1364h-202v237h436v-1839h-436v238z" />
<glyph unicode="^" horiz-adv-x="1052" d="M90 784v23l326 586h221l328 -586v-23h-265l-174 377l-178 -377h-258z" />
<glyph unicode="_" horiz-adv-x="1112" d="M121 -63h870v-230h-870v230z" />
<glyph unicode="`" horiz-adv-x="1044" d="M305 1518h293l141 -316h-245z" />
<glyph unicode="a" d="M68 299q0 179 130 275t343 96q36 0 106 -8v12q0 89 -46 125.5t-134 36.5q-127 0 -262 -60l-53 240q186 74 366 74q202 0 311 -111t109 -313v-666h-291v72q-110 -92 -260 -92q-154 0 -236.5 85t-82.5 234zM365 330q0 -58 33.5 -88.5t86.5 -30.5q108 0 162 65v185 q-50 8 -86 8q-87 0 -141.5 -36.5t-54.5 -102.5z" />
<glyph unicode="b" horiz-adv-x="1202" d="M139 0v1454h297v-477q104 113 266 113q189 0 300.5 -145t111.5 -408t-111.5 -410t-300.5 -147q-168 0 -266 116v-96h-297zM436 324q28 -35 71 -57.5t93 -22.5q98 0 154.5 76.5t56.5 211.5q0 138 -56 215.5t-155 77.5q-49 0 -93.5 -23t-70.5 -57v-421z" />
<glyph unicode="c" horiz-adv-x="1034" d="M84 537q0 260 146 411.5t374 151.5q206 0 365 -148l-131 -225q-50 48 -102.5 74t-125.5 26q-97 0 -160 -75.5t-63 -214.5q0 -140 64 -216.5t165 -76.5q69 0 121 26t101 74l131 -225q-162 -148 -365 -148q-228 0 -374 153t-146 413z" />
<glyph unicode="d" horiz-adv-x="1202" d="M88 537q0 262 113 407.5t303 145.5q158 0 262 -113v477h297v-1454h-297v96q-98 -116 -262 -116q-189 0 -302.5 147t-113.5 410zM391 532q0 -135 56 -211.5t153 -76.5q49 0 93.5 22t72.5 56v426q-28 33 -72 55t-94 22q-98 0 -153.5 -77.5t-55.5 -215.5z" />
<glyph unicode="e" d="M84 532q0 249 133 408.5t350 159.5q105 0 185.5 -33t128.5 -92t72 -135.5t24 -169.5q0 -110 -27 -221h-573q17 -226 235 -226q136 0 250 99l109 -222q-155 -129 -404 -129q-120 0 -213.5 42t-151.5 117.5t-88 177t-30 224.5zM393 666h316q6 21 6 47q0 69 -39 104t-107 35 q-81 0 -125.5 -50t-50.5 -136z" />
<glyph unicode="f" horiz-adv-x="819" d="M68 786v236h155v82q0 185 78.5 278t249.5 93q137 0 235 -50l-59 -254q-62 41 -119 41q-44 0 -66 -22t-22 -72v-96h246v-236h-246v-786h-297v786h-155z" />
<glyph unicode="g" horiz-adv-x="1204" d="M90 573q0 236 113.5 376.5t300.5 140.5q169 0 262 -93v74h299v-987q0 -126 -36 -221.5t-101 -153.5t-151 -86.5t-191 -28.5q-93 0 -177 17t-122 32.5t-86 39.5l63 254q2 -1 22 -11.5t26 -13.5t26.5 -13.5t31.5 -14.5t31.5 -12t36 -11.5t35.5 -8t39 -6.5t39 -2 q99 0 157 43.5t58 153.5v121q-101 -101 -262 -101q-187 0 -300.5 139t-113.5 373zM393 573q0 -114 56.5 -181.5t154.5 -67.5q89 0 162 77v347q-73 77 -162 77q-98 0 -154.5 -67.5t-56.5 -184.5z" />
<glyph unicode="h" horiz-adv-x="1212" d="M139 0v1454h297v-496q49 59 130.5 95.5t176.5 36.5q338 0 338 -418v-672h-297v610q0 103 -38 152t-121 49q-67 0 -116.5 -44t-72.5 -105v-662h-297z" />
<glyph unicode="i" horiz-adv-x="577" d="M117 1372q0 146 174 146q168 0 168 -146q0 -149 -168 -149q-174 0 -174 149zM139 0v1071h299v-1071h-299z" />
<glyph unicode="j" horiz-adv-x="577" d="M10 -211q62 51 95.5 117.5t33.5 167.5v997h299v-981q0 -99 -19.5 -179.5t-56 -138.5t-78 -99t-96.5 -76zM117 1372q0 146 172 146q170 0 170 -146q0 -149 -170 -149q-172 0 -172 149z" />
<glyph unicode="k" horiz-adv-x="1132" d="M139 0v1454h297v-815l301 432h324v-49l-352 -455l378 -518v-49h-339l-312 449v-449h-297z" />
<glyph unicode="l" horiz-adv-x="641" d="M141 246v1208h299v-1126q0 -52 16.5 -72t51.5 -20q45 0 92 28l10 -237q-100 -47 -217 -47q-129 0 -190.5 62t-61.5 204z" />
<glyph unicode="m" horiz-adv-x="1810" d="M139 0v1071h297v-110q49 60 126 94.5t173 34.5q204 0 283 -158q100 158 307 158q186 0 269 -104t83 -306v-680h-295v618q0 103 -35.5 148t-117.5 45q-112 0 -162 -121v-10v-680h-295v618q0 101 -38.5 147t-115.5 46q-68 0 -114 -36.5t-68 -94.5v-680h-297z" />
<glyph unicode="n" horiz-adv-x="1212" d="M139 0v1071h297v-113q49 59 130.5 95.5t176.5 36.5q338 0 338 -418v-672h-299v610q0 104 -37 152.5t-118 48.5q-68 0 -118 -44t-73 -105v-662h-297z" />
<glyph unicode="o" horiz-adv-x="1153" d="M84 532q0 266 133 417t358 151t358.5 -151t133.5 -417q0 -263 -133.5 -412t-358.5 -149t-358 149t-133 412zM379 532q0 -142 51.5 -214t144.5 -72q94 0 145.5 72t51.5 214q0 145 -51.5 218t-145.5 73q-93 0 -144.5 -73t-51.5 -218z" />
<glyph unicode="p" horiz-adv-x="1202" d="M139 -385v1456h297v-98q100 119 260 119q190 0 304 -147.5t114 -409.5q0 -263 -114 -408t-304 -145q-158 0 -260 110v-477h-297zM436 322q24 -32 69.5 -54t94.5 -22q99 0 155 77.5t56 215.5q0 135 -56.5 211.5t-154.5 76.5q-49 0 -93.5 -21.5t-70.5 -55.5v-428z" />
<glyph unicode="q" horiz-adv-x="1202" d="M90 532q0 264 111 411t299 147q166 0 266 -119v100h297v-1456h-297v477q-107 -112 -266 -112q-189 0 -299.5 144.5t-110.5 407.5zM393 539q0 -138 55.5 -216.5t153.5 -78.5q48 0 91.5 22.5t72.5 55.5v423q-29 34 -72.5 57t-91.5 23q-98 0 -153.5 -75.5t-55.5 -210.5z" />
<glyph unicode="r" horiz-adv-x="862" d="M139 0v1071h301v-123q37 74 92.5 108t139.5 34q91 0 157 -41l-38 -279q-67 41 -152 41q-145 0 -199 -172v-639h-301z" />
<glyph unicode="s" horiz-adv-x="927" d="M80 57l57 258q158 -90 279 -90q61 0 94 22.5t33 63.5t-23.5 64.5t-79.5 42.5l-98 35q-248 82 -248 299q0 150 101.5 244t287.5 94q87 0 187.5 -21t158.5 -49l-69 -248q-147 68 -254 68t-107 -80q0 -27 24 -47t77 -39l98 -35q134 -45 190 -120.5t56 -186.5 q0 -146 -112 -249t-294 -103q-103 0 -199 23t-159 54z" />
<glyph unicode="t" horiz-adv-x="909" d="M57 836v235h174l35 272h242v-272h313v-235h-313v-463q0 -131 108 -131q42 0 91.5 18t83.5 45l73 -235q-81 -45 -153 -67.5t-172 -22.5q-149 0 -238.5 87.5t-89.5 266.5v502h-154z" />
<glyph unicode="u" horiz-adv-x="1212" d="M131 399v672h299v-610q0 -103 37.5 -152t116.5 -49q69 0 119 44t73 106v661h297v-1071h-297v111q-47 -57 -129.5 -93t-177.5 -36q-171 0 -254.5 108t-83.5 309z" />
<glyph unicode="v" horiz-adv-x="1155" d="M35 1071h317l226 -795l225 795h317l-356 -1071h-373z" />
<glyph unicode="w" horiz-adv-x="1787" d="M47 1071h318l172 -795l184 795h356l164 -795l191 795h319l-317 -1071h-365l-174 684l-188 -684h-363z" />
<glyph unicode="x" horiz-adv-x="1093" d="M55 0v23l283 509l-283 517v22h320l170 -379l174 379h317v-22l-284 -517l284 -509v-23h-321l-170 373l-166 -373h-324z" />
<glyph unicode="y" horiz-adv-x="1103" d="M18 1071h330l205 -739l205 737q49 0 149.5 1t149.5 1l-391 -1151q-56 -167 -142 -246.5t-241 -79.5q-55 0 -112 17.5t-97 42.5l43 225q73 -39 145 -39q57 0 90.5 33t55.5 107l16 51z" />
<glyph unicode="z" horiz-adv-x="950" d="M98 0v211l381 623h-381v237h756v-211l-379 -622h379v-238h-756z" />
<glyph unicode="{" horiz-adv-x="647" d="M61 440v178q97 0 142 36t45 110q0 73 -41 217t-41 221q0 120 74 186t223 66h98v-211h-47q-62 0 -88.5 -32t-26.5 -81q0 -51 41 -191.5t41 -217.5q0 -159 -153 -193q153 -34 153 -194q0 -75 -41 -216t-41 -194q0 -49 26.5 -80.5t88.5 -31.5h47v-211h-98q-297 0 -297 266 q0 76 41 221.5t41 222.5q0 70 -44 99.5t-143 29.5z" />
<glyph unicode="|" horiz-adv-x="507" d="M139 -385v1839h232v-1839h-232z" />
<glyph unicode="}" horiz-adv-x="649" d="M84 -188h53q60 0 86.5 32t26.5 80q0 53 -42 194t-42 216q0 160 153 194q-153 34 -153 193q0 77 42 217.5t42 191.5q0 49 -26.5 81t-86.5 32h-53v211h102q146 0 220.5 -66t74.5 -186q0 -77 -41 -221t-41 -217q0 -75 44.5 -110.5t144.5 -35.5v-178q-102 0 -145.5 -29.5 t-43.5 -99.5q0 -77 41 -222.5t41 -221.5q0 -266 -295 -266h-102v211z" />
<glyph unicode="~" horiz-adv-x="948" d="M90 604q25 78 85 133.5t136 55.5q48 0 96 -23t79.5 -50t69.5 -50t69 -23q82 0 137 119l98 -143q-28 -88 -90 -141.5t-137 -53.5q-45 0 -89 22.5t-74 49t-70.5 49t-77.5 22.5q-42 0 -79.5 -30.5t-58.5 -85.5z" />
<glyph unicode="&#xa1;" horiz-adv-x="528" d="M88 922q0 86 46 132t130 46t129 -46t45 -132t-45.5 -133.5t-128.5 -47.5t-129.5 47.5t-46.5 133.5zM115 -319l47 927h209l43 -927h-299z" />
<glyph unicode="&#xa2;" horiz-adv-x="1075" d="M86 537q0 260 145 411.5t373 151.5q21 0 53 -4l56 231l155 -45l-53 -225q84 -39 154 -105l-129 -225q-62 53 -88 66l-129 -549q67 1 116.5 26.5t100.5 73.5l129 -225q-159 -148 -365 -148q-8 0 -23 1t-22 1l-59 -254l-154 43l57 246q-146 57 -231.5 194.5t-85.5 334.5z M387 537q0 -162 84 -240l123 528q-92 -6 -149.5 -80.5t-57.5 -207.5z" />
<glyph unicode="&#xa3;" horiz-adv-x="1144" d="M78 207q0 94 52.5 153.5t135.5 59.5q36 0 74 -19q0 65 -35 224h-162v170h123q-20 113 -20 215q0 179 98 291t287 112q105 0 210.5 -35t164.5 -80l-86 -262q-42 42 -103 71.5t-129 29.5q-70 0 -106.5 -55t-36.5 -148q0 -41 8 -139h299v-170h-279q22 -190 13 -301 q8 -6 30.5 -26t38 -32.5t37.5 -23.5t39 -11q54 0 71.5 56t12.5 180h246q14 -147 -6 -253.5t-83.5 -170t-168.5 -63.5q-32 0 -64.5 10.5t-63.5 31t-54.5 38.5t-53.5 44t-45 37q-44 -82 -99.5 -121.5t-143.5 -39.5q-94 0 -147.5 63.5t-53.5 163.5zM229 193q0 -58 39 -58 q51 0 60 103q-14 18 -43 18q-26 0 -41 -17.5t-15 -45.5z" />
<glyph unicode="&#xa4;" horiz-adv-x="1103" d="M104 340l103 104q-47 76 -47 174q0 99 47 175l-103 106l170 168l109 -113q68 39 160 39q101 0 172 -45l114 119l172 -168l-118 -117q43 -72 43 -164q0 -86 -41 -163l116 -115l-172 -168l-114 117q-73 -43 -172 -43q-93 0 -160 37l-109 -111zM369 618q0 -76 49 -127 t125 -51q77 0 125.5 51t48.5 127q0 75 -49 127t-125 52q-75 0 -124.5 -52t-49.5 -127z" />
<glyph unicode="&#xa5;" horiz-adv-x="1103" d="M66 1370v23h307l174 -605l186 605h307v-23l-288 -690h190v-170h-246v-107h246v-165h-246v-238h-301v238h-241v165h241v107h-241v170h188z" />
<glyph unicode="&#xa6;" horiz-adv-x="520" d="M143 326h234v-711h-234v711zM143 768v686h234v-686h-234z" />
<glyph unicode="&#xa7;" horiz-adv-x="1114" d="M106 582q0 164 130 264q-65 37 -97.5 91t-32.5 138q0 148 125.5 243t341.5 95q114 0 228.5 -26t187.5 -62l-80 -242q-78 37 -175 64t-185 27q-154 0 -154 -89q0 -17 8 -30.5t18 -21.5t31 -15.5t34 -10.5t41 -9q9 -2 14 -3l161 -39q155 -37 231.5 -120t76.5 -203 q0 -168 -131 -266q131 -79 131 -220q0 -156 -127.5 -250t-341.5 -94q-119 0 -235 29.5t-183 65.5l67 241q188 -92 365 -92q76 0 117 23t41 65q0 19 -9.5 34.5t-23.5 26t-42 20.5t-50 16t-64 16l-153 37q-139 35 -202 106.5t-63 190.5zM367 614q0 -48 25 -74.5t85 -41.5 l119 -33q63 9 102 45t39 92q0 54 -38 89t-103 46l-92 23q-66 -13 -101.5 -55t-35.5 -91z" />
<glyph unicode="&#xa8;" horiz-adv-x="1044" d="M141 1368q0 139 158 139q72 0 115 -34t43 -105t-43 -105t-115 -34q-158 0 -158 139zM588 1368q0 71 43 105t117 34q155 0 155 -139t-155 -139q-74 0 -117 34t-43 105z" />
<glyph unicode="&#xa9;" horiz-adv-x="1609" d="M88 694q0 152 54.5 285.5t149.5 228.5t227.5 150t283.5 55q152 0 285.5 -55t228.5 -150t150 -228.5t55 -285.5q0 -201 -93 -364.5t-258 -256.5t-368 -93q-201 0 -365 93t-257 256.5t-93 364.5zM244 694q0 -244 158.5 -404.5t400.5 -160.5q161 0 289 73.5t199 202.5 t71 289q0 121 -42 226t-115 180.5t-177.5 118.5t-224.5 43q-242 0 -400.5 -161.5t-158.5 -406.5zM449 694q0 157 103 258t261 101q163 0 281 -97l-93 -163q-67 57 -161 57q-77 0 -122.5 -43.5t-45.5 -112.5q0 -68 45.5 -110.5t122.5 -42.5q92 0 161 55l93 -166 q-123 -94 -281 -94t-261 100t-103 258z" />
<glyph unicode="&#xaa;" horiz-adv-x="868" d="M111 872q0 120 86.5 183t242.5 63h25v23q0 54 -21.5 75t-66.5 21q-43 0 -94 -15.5t-80 -37.5l-35 176q44 19 124.5 33t137.5 14q132 0 182 -60.5t50 -185.5v-274q0 -29 7.5 -41t30.5 -12q21 0 58 22l6 -160q-80 -32 -156 -32q-84 0 -121 73q-69 -73 -172 -73 q-93 0 -148.5 58t-55.5 150zM164 350v160h557v-160h-557zM281 899q0 -74 88 -74q48 0 96 29v4v129q-21 6 -53 6q-56 0 -93.5 -23t-37.5 -71z" />
<glyph unicode="&#xab;" horiz-adv-x="1007" d="M78 588v59l282 420h23l109 -55l-168 -394l168 -393l-109 -55h-23zM502 588v59l284 420h23l109 -55l-166 -394l166 -393l-109 -55h-23z" />
<glyph unicode="&#xac;" horiz-adv-x="1101" d="M115 625v237h848l-2 -610h-232v373h-614z" />
<glyph unicode="&#xad;" horiz-adv-x="960" d="M121 502v237h719v-237h-719z" />
<glyph unicode="&#xae;" horiz-adv-x="1609" d="M88 694q0 152 54.5 285.5t149.5 228.5t227.5 150t283.5 55q152 0 285.5 -55t228.5 -150t150 -228.5t55 -285.5q0 -201 -93 -364.5t-258 -256.5t-368 -93q-201 0 -365 93t-257 256.5t-93 364.5zM244 694q0 -244 158.5 -404.5t400.5 -160.5q161 0 289 73.5t199 202.5 t71 289q0 121 -42 226t-115 180.5t-177.5 118.5t-224.5 43q-242 0 -400.5 -161.5t-158.5 -406.5zM506 346v696h340q115 0 188.5 -62t73.5 -175q0 -71 -37.5 -124.5t-101.5 -78.5l157 -213v-43h-223l-162 236h-18v-236h-217zM723 731h106q30 0 48 19t18 47q0 32 -17.5 49.5 t-48.5 17.5h-106v-133z" />
<glyph unicode="&#xaf;" horiz-adv-x="1044" d="M293 1245v203h457v-203h-457z" />
<glyph unicode="&#xb0;" horiz-adv-x="831" d="M84 1036q0 177 91.5 277t238.5 100q149 0 240 -99.5t91 -277.5q0 -177 -90.5 -274.5t-240.5 -97.5q-147 0 -238.5 97.5t-91.5 274.5zM281 1036q0 -89 36 -133.5t97 -44.5q63 0 99 45t36 133q0 91 -35.5 136t-99.5 45q-61 0 -97 -45.5t-36 -135.5z" />
<glyph unicode="&#xb1;" horiz-adv-x="1105" d="M129 100v238h848v-238h-848zM129 731v238h309v372h232v-372h307v-238h-307v-239h-232v239h-309z" />
<glyph unicode="&#xb2;" horiz-adv-x="624" d="M59 1364q3 118 68.5 186t179.5 68q116 0 176 -64t60 -168q0 -67 -28.5 -124t-96.5 -115l-109 -92h248v-146h-477v125l223 197q76 68 76 143q0 39 -21.5 64.5t-60.5 25.5q-44 0 -67 -35t-23 -94z" />
<glyph unicode="&#xb3;" horiz-adv-x="598" d="M57 940l41 137q77 -37 164 -37q49 0 77 23t28 63q0 70 -101 70h-131v139h131q40 0 61 19t21 51q0 72 -92 72q-85 0 -164 -39l-35 139q34 15 94.5 28t120.5 13q118 0 180 -50.5t62 -146.5q0 -51 -26.5 -90.5t-73.5 -56.5q121 -32 121 -174q0 -93 -67.5 -147t-195.5 -54 q-102 0 -215 41z" />
<glyph unicode="&#xb4;" horiz-adv-x="1044" d="M305 1202l141 316h293l-188 -316h-246z" />
<glyph unicode="&#xb5;" horiz-adv-x="1159" d="M141 -385v1456h299v-514q0 -162 31 -231.5t119 -69.5q101 0 160 109v706h299v-1071h-299v72q-99 -92 -273 -92q-27 0 -37 2v-367h-299z" />
<glyph unicode="&#xb6;" horiz-adv-x="1118" d="M55 780q0 136 76 213.5t195 77.5h321v-1456h-215v877h-106q-120 0 -195.5 75.5t-75.5 212.5zM750 -385v1456h215v-1456h-215z" />
<glyph unicode="&#xb7;" horiz-adv-x="565" d="M109 604q0 86 45.5 133t128.5 47q84 0 131 -47t47 -133t-47 -132t-131 -46t-129 46t-45 132z" />
<glyph unicode="&#xb8;" horiz-adv-x="1044" d="M348 -383l23 98q64 -22 108 -22q84 0 84 55q0 53 -84 53q-70 0 -108 -10l-9 10l54 203h114l-30 -119q18 6 43 6q72 0 112.5 -38t40.5 -99q0 -75 -57.5 -117.5t-149.5 -42.5q-73 0 -141 23z" />
<glyph unicode="&#xb9;" horiz-adv-x="501" d="M20 1436l267 170h116v-697h-161v508l-156 -104z" />
<glyph unicode="&#xba;" horiz-adv-x="894" d="M117 1036q0 181 90 279t239 98t240.5 -98t91.5 -279q0 -180 -91 -276t-241 -96t-239.5 95.5t-89.5 276.5zM168 350v160h559v-160h-559zM299 1036q0 -98 40 -147t107 -49q69 0 108.5 49t39.5 147q0 99 -39.5 149t-108.5 50q-67 0 -107 -50t-40 -149z" />
<glyph unicode="&#xbb;" horiz-adv-x="1007" d="M90 223l166 395l-166 390l109 59h20l285 -420v-59l-285 -418h-20zM516 223l166 395l-166 390l109 59h22l283 -420v-59l-283 -418h-22z" />
<glyph unicode="&#xbc;" horiz-adv-x="1482" d="M49 1231l266 170h117v-696h-162v507l-155 -104zM303 0v23l643 1370h162v-23l-641 -1370h-164zM842 123v110l262 463h217v-448h92v-125h-92v-123h-164v123h-315zM1006 248h151v276z" />
<glyph unicode="&#xbd;" horiz-adv-x="1478" d="M49 1231l266 170h117v-696h-162v507l-155 -104zM303 0v23l643 1370h162v-23l-641 -1370h-164zM901 455q3 118 68.5 186t179.5 68q116 0 175.5 -64t59.5 -168q0 -68 -27.5 -124.5t-96.5 -112.5l-109 -95h248v-145h-475v125l221 197q76 68 76 143q0 40 -21 66t-61 26 q-44 0 -67 -36t-23 -95z" />
<glyph unicode="&#xbe;" horiz-adv-x="1550" d="M74 735l41 137q75 -36 164 -36q49 0 76.5 23t27.5 63q0 36 -24 52.5t-76 16.5h-131v139h131q40 0 61 19t21 51q0 72 -93 72q-84 0 -163 -39l-35 139q34 15 94.5 28t120.5 13q118 0 179.5 -50t61.5 -146q0 -51 -26.5 -91t-73.5 -57q121 -32 121 -174q0 -93 -67 -147 t-195 -54q-102 0 -215 41zM379 0v23l643 1370h162v-23l-641 -1370h-164zM920 123v110l262 463h217v-448h92v-125h-92v-123h-164v123h-315zM1083 248h152v276z" />
<glyph unicode="&#xbf;" horiz-adv-x="847" d="M63 18q0 97 38 173t110 151l108 113q24 26 32.5 36t15 26.5t6.5 39.5t-6 53h241q25 -66 25 -131q0 -48 -25 -88.5t-80 -95.5l-92 -100q-40 -41 -55.5 -74t-15.5 -88q0 -56 35 -89.5t96 -33.5q119 0 219 125l76 -236q-155 -139 -369 -139q-169 0 -264 98.5t-95 259.5z M309 922q0 86 46 132t130 46q86 0 130 -45.5t44 -132.5t-44.5 -134t-129.5 -47q-83 0 -129.5 47.5t-46.5 133.5z" />
<glyph unicode="&#xc0;" horiz-adv-x="1292" d="M18 0l455 1393h352l445 -1393h-301l-78 272h-492l-80 -272h-301zM352 1839h293l141 -315h-245zM473 496h344l-168 596z" />
<glyph unicode="&#xc1;" horiz-adv-x="1292" d="M18 0l455 1393h352l445 -1393h-301l-78 272h-492l-80 -272h-301zM473 496h344l-168 596zM492 1524l141 315h293l-189 -315h-245z" />
<glyph unicode="&#xc2;" horiz-adv-x="1292" d="M18 0l455 1393h352l445 -1393h-301l-78 272h-492l-80 -272h-301zM328 1524l174 315h291l174 -315h-219l-101 170l-102 -170h-217zM473 496h344l-168 596z" />
<glyph unicode="&#xc3;" horiz-adv-x="1292" d="M18 0l455 1393h352l445 -1393h-301l-78 272h-492l-80 -272h-301zM305 1659q29 75 85.5 125.5t119.5 50.5q44 0 85 -18.5t67.5 -41t59 -41t62.5 -18.5q76 0 117 90l86 -112q-79 -176 -207 -176q-40 0 -81 18.5t-69.5 40.5t-61 40.5t-58.5 18.5q-69 0 -123 -90zM473 496 h344l-168 596z" />
<glyph unicode="&#xc4;" horiz-adv-x="1292" d="M18 0l455 1393h352l445 -1393h-301l-78 272h-492l-80 -272h-301zM268 1690q0 139 158 139q72 0 115 -34t43 -105t-43 -105.5t-115 -34.5q-158 0 -158 140zM473 496h344l-168 596zM715 1690q0 72 43 105.5t116 33.5q156 0 156 -139q0 -72 -41.5 -106t-114.5 -34t-116 34 t-43 106z" />
<glyph unicode="&#xc5;" horiz-adv-x="1292" d="M18 0l455 1393h6q-30 47 -30 108q0 83 58.5 142t141.5 59t142 -59t59 -142q0 -57 -33 -108h8l445 -1393h-301l-78 272h-492l-80 -272h-301zM473 496h344l-168 596zM567 1501q0 -35 23.5 -58.5t58.5 -23.5q34 0 57 23.5t23 58.5q0 34 -23 57t-57 23q-35 0 -58.5 -23 t-23.5 -57z" />
<glyph unicode="&#xc6;" horiz-adv-x="1869" d="M-18 0l653 1393h1141v-267h-668v-292h541v-244h-541v-326h668v-264h-953v272h-409l-117 -272h-315zM522 496h301v643z" />
<glyph unicode="&#xc7;" horiz-adv-x="1236" d="M90 696q0 165 47 301t130 226.5t196 140t244 49.5q141 0 261.5 -60.5t205.5 -158.5l-150 -209q-70 72 -135.5 110t-153.5 38q-158 0 -247 -112t-89 -325t89 -324.5t247 -111.5q89 0 155 38t134 110l150 -209q-85 -98 -205.5 -158.5t-261.5 -60.5h-5l-24 -95q18 6 43 6 q72 0 112.5 -38t40.5 -99q0 -75 -57 -117.5t-149 -42.5q-74 0 -142 23l23 98q64 -22 108 -22q84 0 84 55q0 53 -84 53q-70 0 -108 -10l-8 10l49 189q-224 41 -362 228t-138 478z" />
<glyph unicode="&#xc8;" horiz-adv-x="1210" d="M158 0v1393h958v-267h-667v-284h540v-258h-540v-320h667v-264h-958zM354 1839h293l141 -315h-245z" />
<glyph unicode="&#xc9;" horiz-adv-x="1210" d="M158 0v1393h958v-267h-667v-284h540v-258h-540v-320h667v-264h-958zM492 1524l141 315h293l-189 -315h-245z" />
<glyph unicode="&#xca;" horiz-adv-x="1210" d="M158 0v1393h958v-267h-667v-284h540v-258h-540v-320h667v-264h-958zM324 1524l174 315h290l175 -315h-220l-100 170l-102 -170h-217z" />
<glyph unicode="&#xcb;" horiz-adv-x="1210" d="M158 0v1393h958v-267h-667v-284h540v-258h-540v-320h667v-264h-958zM262 1690q0 139 158 139q72 0 115 -34t43 -105t-43 -105.5t-115 -34.5q-158 0 -158 140zM709 1690q0 72 43 105.5t116 33.5q156 0 156 -139q0 -72 -41.5 -106t-114.5 -34t-116 34t-43 106z" />
<glyph unicode="&#xcc;" horiz-adv-x="620" d="M14 1839h293l142 -315h-246zM158 0v1393h303v-1393h-303z" />
<glyph unicode="&#xcd;" horiz-adv-x="620" d="M158 0v1393h303v-1393h-303zM180 1524l142 315h292l-188 -315h-246z" />
<glyph unicode="&#xce;" horiz-adv-x="620" d="M-8 1524l174 315h291l174 -315h-219l-101 170l-102 -170h-217zM158 0v1393h303v-1393h-303z" />
<glyph unicode="&#xcf;" horiz-adv-x="620" d="M-74 1690q0 139 158 139q72 0 115 -34t43 -105t-43 -105.5t-115 -34.5q-158 0 -158 140zM158 0v1393h303v-1393h-303zM373 1690q0 72 43 105.5t116 33.5q156 0 156 -139q0 -72 -41.5 -106t-114.5 -34t-116 34t-43 106z" />
<glyph unicode="&#xd0;" horiz-adv-x="1409" d="M63 618v150h609v-150h-609zM166 0v1393h539q132 0 243.5 -46.5t193.5 -133.5t128.5 -220t46.5 -299q0 -165 -46.5 -297.5t-128.5 -218.5t-193.5 -132t-243.5 -46h-539zM469 264h197q161 0 253.5 112.5t92.5 317.5q0 208 -92 321t-254 113h-197v-864z" />
<glyph unicode="&#xd1;" horiz-adv-x="1472" d="M158 0v1393h262l588 -885v885h305v-1393h-266l-588 883v-883h-301zM397 1659q29 75 85.5 125.5t119.5 50.5q44 0 85.5 -18.5t67.5 -41t59 -41t63 -18.5q75 0 116 90l86 -112q-79 -176 -207 -176q-40 0 -81 18.5t-69.5 40.5t-61 40.5t-58.5 18.5q-69 0 -123 -90z" />
<glyph unicode="&#xd2;" horiz-adv-x="1394" d="M88 694q0 210 73 372.5t211.5 254.5t321.5 92q185 0 325 -92t214 -255t74 -372q0 -208 -74 -369.5t-214 -253t-325 -91.5q-183 0 -321.5 91.5t-211.5 253t-73 369.5zM385 694q0 -214 83 -322t226 -108q146 0 231 108t85 322q0 217 -84.5 325.5t-231.5 108.5 q-144 0 -226.5 -108.5t-82.5 -325.5zM395 1839h293l141 -315h-245z" />
<glyph unicode="&#xd3;" horiz-adv-x="1394" d="M88 694q0 210 73 372.5t211.5 254.5t321.5 92q185 0 325 -92t214 -255t74 -372q0 -208 -74 -369.5t-214 -253t-325 -91.5q-183 0 -321.5 91.5t-211.5 253t-73 369.5zM385 694q0 -214 83 -322t226 -108q146 0 231 108t85 322q0 217 -84.5 325.5t-231.5 108.5 q-144 0 -226.5 -108.5t-82.5 -325.5zM561 1524l141 315h293l-188 -315h-246z" />
<glyph unicode="&#xd4;" horiz-adv-x="1394" d="M88 694q0 210 73 372.5t211.5 254.5t321.5 92q185 0 325 -92t214 -255t74 -372q0 -208 -74 -369.5t-214 -253t-325 -91.5q-183 0 -321.5 91.5t-211.5 253t-73 369.5zM377 1524l174 315h291l174 -315h-219l-101 170l-102 -170h-217zM385 694q0 -214 83 -322t226 -108 q146 0 231 108t85 322q0 217 -84.5 325.5t-231.5 108.5q-144 0 -226.5 -108.5t-82.5 -325.5z" />
<glyph unicode="&#xd5;" horiz-adv-x="1394" d="M88 694q0 210 73 372.5t211.5 254.5t321.5 92q185 0 325 -92t214 -255t74 -372q0 -208 -74 -369.5t-214 -253t-325 -91.5q-183 0 -321.5 91.5t-211.5 253t-73 369.5zM354 1659q29 75 85.5 125.5t119.5 50.5q44 0 85.5 -18.5t67.5 -41t59 -41t63 -18.5q75 0 116 90 l86 -112q-79 -176 -207 -176q-40 0 -81 18.5t-69.5 40.5t-61 40.5t-58.5 18.5q-69 0 -123 -90zM385 694q0 -214 83 -322t226 -108q146 0 231 108t85 322q0 217 -84.5 325.5t-231.5 108.5q-144 0 -226.5 -108.5t-82.5 -325.5z" />
<glyph unicode="&#xd6;" horiz-adv-x="1394" d="M88 694q0 210 73 372.5t211.5 254.5t321.5 92q185 0 325 -92t214 -255t74 -372q0 -208 -74 -369.5t-214 -253t-325 -91.5q-183 0 -321.5 91.5t-211.5 253t-73 369.5zM317 1690q0 139 158 139q72 0 115 -34t43 -105t-43 -105.5t-115 -34.5q-158 0 -158 140zM385 694 q0 -214 83 -322t226 -108q146 0 231 108t85 322q0 217 -84.5 325.5t-231.5 108.5q-144 0 -226.5 -108.5t-82.5 -325.5zM764 1690q0 71 43 105t117 34q155 0 155 -139q0 -140 -155 -140q-73 0 -116.5 34t-43.5 106z" />
<glyph unicode="&#xd7;" horiz-adv-x="976" d="M104 356l222 265l-222 262l166 170l219 -267l218 267l165 -170l-219 -262l219 -265l-165 -168l-218 265l-219 -265z" />
<glyph unicode="&#xd8;" horiz-adv-x="1392" d="M88 694q0 210 73 372.5t211.5 254.5t321.5 92q188 0 334 -100l55 80h199v-23l-125 -180q150 -195 150 -496q0 -208 -74 -369.5t-214 -253t-325 -91.5q-173 0 -311 83l-43 -63h-205v23l113 161q-160 199 -160 510zM385 694q0 -154 41 -250l438 633q-68 51 -170 51 q-144 0 -226.5 -108.5t-82.5 -325.5zM547 301q64 -37 147 -37q146 0 231 108t85 322q0 137 -35 230z" />
<glyph unicode="&#xd9;" horiz-adv-x="1394" d="M143 563v830h303v-809q0 -163 60.5 -244.5t187.5 -81.5q252 0 252 328v807h303v-830q0 -126 -33 -230.5t-99 -185t-174 -125.5t-249 -45q-276 0 -413.5 155.5t-137.5 430.5zM399 1839h293l142 -315h-246z" />
<glyph unicode="&#xda;" horiz-adv-x="1394" d="M143 563v830h303v-809q0 -163 60.5 -244.5t187.5 -81.5q252 0 252 328v807h303v-830q0 -126 -33 -230.5t-99 -185t-174 -125.5t-249 -45q-276 0 -413.5 155.5t-137.5 430.5zM563 1524l142 315h292l-188 -315h-246z" />
<glyph unicode="&#xdb;" horiz-adv-x="1394" d="M143 563v830h303v-809q0 -163 60.5 -244.5t187.5 -81.5q252 0 252 328v807h303v-830q0 -126 -33 -230.5t-99 -185t-174 -125.5t-249 -45q-276 0 -413.5 155.5t-137.5 430.5zM377 1524l174 315h291l174 -315h-219l-101 170l-102 -170h-217z" />
<glyph unicode="&#xdc;" horiz-adv-x="1394" d="M143 563v830h303v-809q0 -163 60.5 -244.5t187.5 -81.5q252 0 252 328v807h303v-830q0 -126 -33 -230.5t-99 -185t-174 -125.5t-249 -45q-276 0 -413.5 155.5t-137.5 430.5zM317 1690q0 139 158 139q72 0 115 -34t43 -105t-43 -105.5t-115 -34.5q-158 0 -158 140z M764 1690q0 71 43 105t117 34q155 0 155 -139q0 -140 -155 -140q-73 0 -116.5 34t-43.5 106z" />
<glyph unicode="&#xdd;" horiz-adv-x="1224" d="M12 1370v23h334l266 -568l269 568h329v-23l-450 -821v-549h-297v547zM479 1524l142 315h292l-188 -315h-246z" />
<glyph unicode="&#xde;" horiz-adv-x="1249" d="M158 0v1393h299v-189h291q91 0 168.5 -29t138.5 -87t96 -155.5t35 -223.5q0 -116 -35 -210t-95.5 -154.5t-139.5 -93t-168 -32.5h-291v-219h-299zM457 483h221q91 0 148 60.5t57 167.5q0 113 -56.5 171t-148.5 58h-221v-457z" />
<glyph unicode="&#xdf;" horiz-adv-x="1241" d="M139 0v905q0 124 28 222.5t75 162.5t112 106.5t136 60.5t151 18q106 0 191 -37.5t135 -98.5t76 -130.5t26 -139.5q0 -61 -18 -121.5t-39.5 -99t-39.5 -73t-18 -48.5q0 -13 21.5 -38t52 -59.5t61.5 -77.5t52.5 -104t21.5 -126q0 -148 -95.5 -245t-254.5 -97 q-144 0 -264 49l31 239q62 -32 120 -32q60 0 99 36.5t39 96.5q0 46 -30.5 96.5t-67 86t-67 77t-30.5 71.5q0 27 19 67.5t41.5 77t41.5 87t19 94.5q0 82 -42 133t-110 51q-85 0 -129.5 -82.5t-44.5 -224.5v-903h-299z" />
<glyph unicode="&#xe0;" d="M68 299q0 179 130 275t343 96q36 0 106 -8v12q0 89 -46 125.5t-134 36.5q-127 0 -262 -60l-53 240q186 74 366 74q202 0 311 -111t109 -313v-666h-291v72q-110 -92 -260 -92q-154 0 -236.5 85t-82.5 234zM268 1518h293l141 -316h-245zM365 330q0 -58 33.5 -88.5 t86.5 -30.5q108 0 162 65v185q-50 8 -86 8q-87 0 -141.5 -36.5t-54.5 -102.5z" />
<glyph unicode="&#xe1;" d="M68 299q0 179 130 275t343 96q36 0 106 -8v12q0 89 -46 125.5t-134 36.5q-127 0 -262 -60l-53 240q186 74 366 74q202 0 311 -111t109 -313v-666h-291v72q-110 -92 -260 -92q-154 0 -236.5 85t-82.5 234zM365 330q0 -58 33.5 -88.5t86.5 -30.5q108 0 162 65v185 q-50 8 -86 8q-87 0 -141.5 -36.5t-54.5 -102.5zM399 1202l142 316h293l-189 -316h-246z" />
<glyph unicode="&#xe2;" d="M68 299q0 179 130 275t343 96q36 0 106 -8v12q0 89 -46 125.5t-134 36.5q-127 0 -262 -60l-53 240q186 74 366 74q202 0 311 -111t109 -313v-666h-291v72q-110 -92 -260 -92q-154 0 -236.5 85t-82.5 234zM229 1202l174 316h291l174 -316h-219l-100 170l-103 -170h-217z M365 330q0 -58 33.5 -88.5t86.5 -30.5q108 0 162 65v185q-50 8 -86 8q-87 0 -141.5 -36.5t-54.5 -102.5z" />
<glyph unicode="&#xe3;" d="M68 299q0 179 130 275t343 96q36 0 106 -8v12q0 89 -46 125.5t-134 36.5q-127 0 -262 -60l-53 240q186 74 366 74q202 0 311 -111t109 -313v-666h-291v72q-110 -92 -260 -92q-154 0 -236.5 85t-82.5 234zM205 1337q29 75 85.5 125.5t119.5 50.5q44 0 85 -18.5t67.5 -40.5 t59 -40.5t62.5 -18.5q76 0 117 90l86 -113q-79 -176 -207 -176q-40 0 -81 18.5t-69.5 41t-61 41t-58.5 18.5q-69 0 -123 -90zM365 330q0 -58 33.5 -88.5t86.5 -30.5q108 0 162 65v185q-50 8 -86 8q-87 0 -141.5 -36.5t-54.5 -102.5z" />
<glyph unicode="&#xe4;" d="M68 299q0 179 130 275t343 96q36 0 106 -8v12q0 89 -46 125.5t-134 36.5q-127 0 -262 -60l-53 240q186 74 366 74q202 0 311 -111t109 -313v-666h-291v72q-110 -92 -260 -92q-154 0 -236.5 85t-82.5 234zM168 1368q0 139 158 139q72 0 114.5 -34t42.5 -105t-42.5 -105 t-114.5 -34q-158 0 -158 139zM365 330q0 -58 33.5 -88.5t86.5 -30.5q108 0 162 65v185q-50 8 -86 8q-87 0 -141.5 -36.5t-54.5 -102.5zM614 1368q0 71 43 105t117 34q156 0 156 -139t-156 -139q-74 0 -117 34t-43 105z" />
<glyph unicode="&#xe5;" d="M68 299q0 179 130 275t343 96q36 0 106 -8v12q0 89 -46 125.5t-134 36.5q-127 0 -262 -60l-53 240q186 74 366 74q202 0 311 -111t109 -313v-666h-291v72q-110 -92 -260 -92q-154 0 -236.5 85t-82.5 234zM330 1372q0 83 58.5 142t141.5 59t142 -59t59 -142t-59 -142 t-142 -59t-141.5 59t-58.5 142zM365 330q0 -58 33.5 -88.5t86.5 -30.5q108 0 162 65v185q-50 8 -86 8q-87 0 -141.5 -36.5t-54.5 -102.5zM449 1372q0 -35 23 -58.5t58 -23.5q34 0 57 23.5t23 58.5q0 34 -23 57t-57 23q-35 0 -58 -23t-23 -57z" />
<glyph unicode="&#xe6;" horiz-adv-x="1619" d="M68 305q0 171 131 267t342 96q59 0 108 -6q0 101 -44 137.5t-134 36.5q-122 0 -266 -58l-51 240q186 72 391 72q107 0 172.5 -35.5t111.5 -104.5q102 150 312 150q106 0 183.5 -33.5t121.5 -93.5t65 -133.5t21 -163.5q0 -130 -29 -219h-583q14 -254 241 -254 q146 0 260 106l99 -190q-158 -148 -383 -148q-250 0 -346 183q-170 -174 -381 -174q-158 0 -250 81.5t-92 243.5zM367 328q0 -60 34.5 -88.5t83.5 -28.5q103 0 164 65v187q-37 6 -92 6q-88 -5 -139 -39.5t-51 -101.5zM940 653h348q6 27 6 60q0 72 -43 120t-112 48 q-98 0 -148.5 -63t-50.5 -165z" />
<glyph unicode="&#xe7;" horiz-adv-x="1034" d="M84 537q0 260 146 411.5t374 151.5q206 0 365 -148l-131 -225q-50 48 -102.5 74t-125.5 26q-97 0 -160 -75.5t-63 -214.5q0 -140 64 -216.5t165 -76.5q69 0 121 26t101 74l131 -225q-160 -145 -361 -148l-22 -86q18 6 43 6q72 0 112.5 -38t40.5 -99q0 -75 -57.5 -117.5 t-149.5 -42.5q-73 0 -141 23l23 98q64 -22 108 -22q84 0 84 55q0 53 -84 53q-70 0 -108 -10l-8 10l47 181q-186 35 -299 181.5t-113 373.5z" />
<glyph unicode="&#xe8;" d="M84 532q0 249 133 408.5t350 159.5q105 0 185.5 -33t128.5 -92t72 -135.5t24 -169.5q0 -110 -27 -221h-573q17 -226 235 -226q136 0 250 99l109 -222q-155 -129 -404 -129q-120 0 -213.5 42t-151.5 117.5t-88 177t-30 224.5zM299 1518h293l141 -316h-246zM393 666h316 q6 21 6 47q0 69 -39 104t-107 35q-81 0 -125.5 -50t-50.5 -136z" />
<glyph unicode="&#xe9;" d="M84 532q0 249 133 408.5t350 159.5q105 0 185.5 -33t128.5 -92t72 -135.5t24 -169.5q0 -110 -27 -221h-573q17 -226 235 -226q136 0 250 99l109 -222q-155 -129 -404 -129q-120 0 -213.5 42t-151.5 117.5t-88 177t-30 224.5zM393 666h316q6 21 6 47q0 69 -39 104t-107 35 q-81 0 -125.5 -50t-50.5 -136zM430 1202l141 316h293l-188 -316h-246z" />
<glyph unicode="&#xea;" d="M84 532q0 249 133 408.5t350 159.5q105 0 185.5 -33t128.5 -92t72 -135.5t24 -169.5q0 -110 -27 -221h-573q17 -226 235 -226q136 0 250 99l109 -222q-155 -129 -404 -129q-120 0 -213.5 42t-151.5 117.5t-88 177t-30 224.5zM256 1202l174 316h291l174 -316h-219 l-101 170l-102 -170h-217zM393 666h316q6 21 6 47q0 69 -39 104t-107 35q-81 0 -125.5 -50t-50.5 -136z" />
<glyph unicode="&#xeb;" d="M84 532q0 249 133 408.5t350 159.5q105 0 185.5 -33t128.5 -92t72 -135.5t24 -169.5q0 -110 -27 -221h-573q17 -226 235 -226q136 0 250 99l109 -222q-155 -129 -404 -129q-120 0 -213.5 42t-151.5 117.5t-88 177t-30 224.5zM193 1368q0 139 157 139q72 0 115 -34 t43 -105t-43 -105t-115 -34q-157 0 -157 139zM393 666h316q6 21 6 47q0 69 -39 104t-107 35q-81 0 -125.5 -50t-50.5 -136zM639 1368q0 71 43 105t117 34q155 0 155 -139t-155 -139q-74 0 -117 34t-43 105z" />
<glyph unicode="&#xec;" horiz-adv-x="577" d="M14 1518h293l142 -316h-246zM139 0v1071h299v-1071h-299z" />
<glyph unicode="&#xed;" horiz-adv-x="577" d="M139 0v1071h299v-1071h-299zM145 1202l142 316h293l-189 -316h-246z" />
<glyph unicode="&#xee;" horiz-adv-x="577" d="M-29 1202l174 316h291l174 -316h-219l-100 170l-103 -170h-217zM139 0v1071h299v-1071h-299z" />
<glyph unicode="&#xef;" horiz-adv-x="577" d="M-90 1368q0 139 158 139q72 0 114.5 -34t42.5 -105t-42.5 -105t-114.5 -34q-158 0 -158 139zM139 0v1071h299v-1071h-299zM356 1368q0 71 43 105t117 34q156 0 156 -139t-156 -139q-74 0 -117 34t-43 105z" />
<glyph unicode="&#xf0;" horiz-adv-x="1116" d="M92 479q0 198 96.5 322.5t268.5 124.5q133 0 250 -105q-28 179 -138 309l-82 -100l-77 68l88 106q-65 53 -127 80l121 191q82 -17 170 -70l77 94l76 -67l-72 -89q124 -106 198.5 -273.5t74.5 -371.5q0 -346 -127.5 -532t-368.5 -186q-190 0 -309 136.5t-119 362.5z M389 475q0 -99 39.5 -159t106.5 -60q153 0 178 315q-90 111 -172 111q-71 0 -111.5 -51.5t-40.5 -155.5z" />
<glyph unicode="&#xf1;" horiz-adv-x="1212" d="M139 0v1071h297v-113q49 59 130.5 95.5t176.5 36.5q338 0 338 -418v-672h-299v610q0 104 -37 152.5t-118 48.5q-68 0 -118 -44t-73 -105v-662h-297zM279 1337q29 75 85.5 125.5t118.5 50.5q44 0 85.5 -18.5t67.5 -40.5t59 -40.5t63 -18.5q75 0 116 90l87 -113 q-79 -176 -207 -176q-40 0 -81.5 18.5t-69.5 41t-61 41t-59 18.5q-69 0 -123 -90z" />
<glyph unicode="&#xf2;" horiz-adv-x="1153" d="M84 532q0 266 133 417t358 151t358.5 -151t133.5 -417q0 -263 -133.5 -412t-358.5 -149t-358 149t-133 412zM276 1518h293l142 -316h-246zM379 532q0 -142 51.5 -214t144.5 -72q94 0 145.5 72t51.5 214q0 145 -51.5 218t-145.5 73q-93 0 -144.5 -73t-51.5 -218z" />
<glyph unicode="&#xf3;" horiz-adv-x="1153" d="M84 532q0 266 133 417t358 151t358.5 -151t133.5 -417q0 -263 -133.5 -412t-358.5 -149t-358 149t-133 412zM379 532q0 -142 51.5 -214t144.5 -72q94 0 145.5 72t51.5 214q0 145 -51.5 218t-145.5 73q-93 0 -144.5 -73t-51.5 -218zM442 1202l142 316h293l-189 -316h-246z " />
<glyph unicode="&#xf4;" horiz-adv-x="1153" d="M84 532q0 266 133 417t358 151t358.5 -151t133.5 -417q0 -263 -133.5 -412t-358.5 -149t-358 149t-133 412zM258 1202l174 316h291l174 -316h-219l-100 170l-103 -170h-217zM379 532q0 -142 51.5 -214t144.5 -72q94 0 145.5 72t51.5 214q0 145 -51.5 218t-145.5 73 q-93 0 -144.5 -73t-51.5 -218z" />
<glyph unicode="&#xf5;" horiz-adv-x="1153" d="M84 532q0 266 133 417t358 151t358.5 -151t133.5 -417q0 -263 -133.5 -412t-358.5 -149t-358 149t-133 412zM233 1337q29 75 85.5 125.5t119.5 50.5q44 0 85.5 -18.5t67.5 -40.5t59 -40.5t63 -18.5q75 0 116 90l86 -113q-79 -176 -206 -176q-40 0 -81.5 18.5t-69.5 41 t-61 41t-59 18.5q-69 0 -123 -90zM379 532q0 -142 51.5 -214t144.5 -72q94 0 145.5 72t51.5 214q0 145 -51.5 218t-145.5 73q-93 0 -144.5 -73t-51.5 -218z" />
<glyph unicode="&#xf6;" horiz-adv-x="1153" d="M84 532q0 266 133 417t358 151t358.5 -151t133.5 -417q0 -263 -133.5 -412t-358.5 -149t-358 149t-133 412zM195 1368q0 139 157 139q72 0 115 -34t43 -105t-43 -105t-115 -34q-157 0 -157 139zM379 532q0 -142 51.5 -214t144.5 -72q94 0 145.5 72t51.5 214 q0 145 -51.5 218t-145.5 73q-93 0 -144.5 -73t-51.5 -218zM641 1368q0 71 43 105t117 34q155 0 155 -139t-155 -139q-74 0 -117 34t-43 105z" />
<glyph unicode="&#xf7;" horiz-adv-x="1024" d="M88 502v237h848v-237h-848zM360 217q0 76 39.5 118t112.5 42q72 0 113 -42.5t41 -117.5q0 -77 -40.5 -119.5t-113.5 -42.5t-112.5 42t-39.5 120zM360 1020q0 76 39.5 119t112.5 43q72 0 113 -43.5t41 -118.5q0 -77 -40.5 -118.5t-113.5 -41.5q-74 0 -113 41t-39 119z" />
<glyph unicode="&#xf8;" horiz-adv-x="1153" d="M84 532q0 266 133 417t358 151q161 0 277 -78l35 49h137v-22l-80 -113q123 -151 123 -404q0 -263 -133.5 -412t-358.5 -149q-145 0 -262 68l-26 -39h-140v23l70 98q-133 148 -133 411zM379 532q0 -94 20 -153l287 407q-46 37 -111 37q-93 0 -144.5 -73t-51.5 -218z M477 272q42 -26 98 -26q94 0 145.5 72t51.5 214q0 77 -16 136z" />
<glyph unicode="&#xf9;" horiz-adv-x="1212" d="M131 399v672h299v-610q0 -103 37.5 -152t116.5 -49q69 0 119 44t73 106v661h297v-1071h-297v111q-47 -57 -129.5 -93t-177.5 -36q-171 0 -254.5 108t-83.5 309zM297 1518h293l141 -316h-246z" />
<glyph unicode="&#xfa;" horiz-adv-x="1212" d="M131 399v672h299v-610q0 -103 37.5 -152t116.5 -49q69 0 119 44t73 106v661h297v-1071h-297v111q-47 -57 -129.5 -93t-177.5 -36q-171 0 -254.5 108t-83.5 309zM483 1202l142 316h293l-189 -316h-246z" />
<glyph unicode="&#xfb;" horiz-adv-x="1212" d="M131 399v672h299v-610q0 -103 37.5 -152t116.5 -49q69 0 119 44t73 106v661h297v-1071h-297v111q-47 -57 -129.5 -93t-177.5 -36q-171 0 -254.5 108t-83.5 309zM283 1202l174 316h291l174 -316h-220l-100 170l-102 -170h-217z" />
<glyph unicode="&#xfc;" horiz-adv-x="1212" d="M131 399v672h299v-610q0 -103 37.5 -152t116.5 -49q69 0 119 44t73 106v661h297v-1071h-297v111q-47 -57 -129.5 -93t-177.5 -36q-171 0 -254.5 108t-83.5 309zM225 1368q0 139 158 139q72 0 115 -34t43 -105t-43 -105t-115 -34q-158 0 -158 139zM672 1368q0 72 43 105.5 t116 33.5q156 0 156 -139t-156 -139q-73 0 -116 33.5t-43 105.5z" />
<glyph unicode="&#xfd;" horiz-adv-x="1103" d="M18 1071h330l205 -739l205 737q49 0 149.5 1t149.5 1l-391 -1151q-56 -167 -142 -246.5t-241 -79.5q-55 0 -112 17.5t-97 42.5l43 225q73 -39 145 -39q57 0 90.5 33t55.5 107l16 51zM416 1202l141 316h293l-188 -316h-246z" />
<glyph unicode="&#xfe;" horiz-adv-x="1202" d="M139 -385v1839h297v-481q100 119 260 119q190 0 304 -147.5t114 -409.5q0 -263 -114 -408t-304 -145q-158 0 -260 110v-477h-297zM436 322q24 -32 69.5 -54t94.5 -22q99 0 155 77.5t56 215.5q0 135 -56.5 211.5t-154.5 76.5q-49 0 -93.5 -21.5t-70.5 -55.5v-428z" />
<glyph unicode="&#xff;" horiz-adv-x="1103" d="M18 1071h330l205 -739l205 737q49 0 149.5 1t149.5 1l-391 -1151q-56 -167 -142 -246.5t-241 -79.5q-55 0 -112 17.5t-97 42.5l43 225q73 -39 145 -39q57 0 90.5 33t55.5 107l16 51zM172 1368q0 139 158 139q72 0 114.5 -34t42.5 -105t-42.5 -105t-114.5 -34 q-158 0 -158 139zM618 1368q0 71 43 105t117 34q156 0 156 -139t-156 -139q-74 0 -117 34t-43 105z" />
<glyph unicode="&#x152;" horiz-adv-x="2004" d="M88 692q0 152 45.5 285.5t124.5 228.5t190 150t238 55q151 0 270 -80v62h957v-267h-668v-292h539v-244h-539v-326h666v-264h-955v61q-130 -84 -270 -84q-127 0 -238 54.5t-190 149.5t-124.5 227.5t-45.5 283.5zM375 692q0 -185 93 -308.5t239 -123.5q77 0 141.5 31 t107.5 88v633q-43 55 -108.5 85.5t-142.5 30.5q-145 0 -237.5 -124t-92.5 -312z" />
<glyph unicode="&#x153;" horiz-adv-x="1851" d="M84 532q0 266 132 417t355 151q134 0 239.5 -61.5t162.5 -172.5q56 109 154 171.5t225 62.5q105 0 185 -33t128.5 -94t73 -141t24.5 -179q0 -107 -24 -196h-588q0 -44 13.5 -86.5t40.5 -80t74.5 -60.5t109.5 -23q130 0 266 108l98 -206q-161 -138 -385 -138 q-288 0 -399 224q-57 -107 -161.5 -165.5t-236.5 -58.5q-224 0 -355.5 148.5t-131.5 412.5zM371 532q0 -141 55 -213.5t149 -72.5q95 0 150 72.5t55 213.5q0 144 -55 217.5t-150 73.5q-94 0 -149 -74t-55 -217zM1167 653h349q2 20 2 49q0 80 -41 128.5t-115 48.5 q-91 0 -141.5 -60t-53.5 -166z" />
<glyph unicode="&#x178;" horiz-adv-x="1224" d="M12 1370v23h334l266 -568l269 568h329v-23l-450 -821v-549h-297v547zM231 1690q0 139 158 139q72 0 115 -34t43 -105t-43 -105.5t-115 -34.5q-158 0 -158 140zM678 1690q0 71 43 105t117 34q155 0 155 -139q0 -140 -155 -140q-73 0 -116.5 34t-43.5 106z" />
<glyph unicode="&#x2c6;" horiz-adv-x="1044" d="M203 1202l174 316h291l174 -316h-219l-101 170l-102 -170h-217z" />
<glyph unicode="&#x2dc;" horiz-adv-x="1044" d="M180 1337q29 75 85.5 125.5t119.5 50.5q44 0 85 -18.5t67.5 -40.5t59 -40.5t62.5 -18.5q76 0 117 90l86 -113q-79 -176 -207 -176q-40 0 -81 18.5t-69.5 41t-61 41t-58.5 18.5q-69 0 -123 -90z" />
<glyph unicode="&#x2000;" horiz-adv-x="919" />
<glyph unicode="&#x2001;" horiz-adv-x="1839" />
<glyph unicode="&#x2002;" horiz-adv-x="919" />
<glyph unicode="&#x2003;" horiz-adv-x="1839" />
<glyph unicode="&#x2004;" horiz-adv-x="613" />
<glyph unicode="&#x2005;" horiz-adv-x="459" />
<glyph unicode="&#x2006;" horiz-adv-x="306" />
<glyph unicode="&#x2007;" horiz-adv-x="306" />
<glyph unicode="&#x2008;" horiz-adv-x="229" />
<glyph unicode="&#x2009;" horiz-adv-x="367" />
<glyph unicode="&#x200a;" horiz-adv-x="102" />
<glyph unicode="&#x2010;" horiz-adv-x="960" d="M121 502v237h719v-237h-719z" />
<glyph unicode="&#x2011;" horiz-adv-x="960" d="M121 502v237h719v-237h-719z" />
<glyph unicode="&#x2012;" horiz-adv-x="960" d="M121 502v237h719v-237h-719z" />
<glyph unicode="&#x2013;" horiz-adv-x="1130" d="M121 502v237h891v-237h-891z" />
<glyph unicode="&#x2014;" horiz-adv-x="1574" d="M121 502v237h1333v-237h-1333z" />
<glyph unicode="&#x2018;" horiz-adv-x="530" d="M92 913q0 109 46.5 256.5t101.5 243.5l163 -70l-71 -260q104 -34 104 -170q0 -88 -44.5 -137t-127.5 -49q-81 0 -126.5 49.5t-45.5 136.5z" />
<glyph unicode="&#x2019;" horiz-adv-x="526" d="M98 1225q0 89 44 137.5t126 48.5q81 0 127.5 -50.5t46.5 -135.5q0 -110 -46.5 -255.5t-102.5 -242.5l-164 66l74 264q-51 15 -78 59t-27 109z" />
<glyph unicode="&#x201a;" horiz-adv-x="542" d="M98 145q0 89 44 138t126 49q81 0 127.5 -50.5t46.5 -136.5q0 -110 -46.5 -255t-102.5 -242l-164 65l74 264q-51 15 -78 59.5t-27 108.5z" />
<glyph unicode="&#x201c;" horiz-adv-x="894" d="M92 963q0 97 42.5 231.5t90.5 218.5l142 -57l-66 -246q92 -23 92 -147q0 -78 -38.5 -122t-108.5 -44q-73 0 -113.5 45t-40.5 121zM498 963q0 97 42.5 231.5t90.5 218.5l141 -57l-65 -246q45 -12 68.5 -50.5t23.5 -96.5q0 -78 -39 -122t-111 -44q-71 0 -111 45t-40 121z " />
<glyph unicode="&#x201d;" horiz-adv-x="890" d="M96 1249q0 76 39.5 119t110.5 43t111 -44.5t40 -117.5q0 -100 -41.5 -234t-89.5 -218l-141 59l63 242q-92 27 -92 151zM500 1249q0 77 39.5 119.5t109.5 42.5q71 0 113.5 -44.5t42.5 -117.5q0 -99 -42.5 -233t-90.5 -219l-144 59l66 242q-94 28 -94 151z" />
<glyph unicode="&#x201e;" horiz-adv-x="909" d="M102 98q0 77 39 120.5t111 43.5q71 0 111 -44.5t40 -119.5q0 -100 -41.5 -233t-89.5 -217l-141 57l64 244q-45 12 -69 51t-24 98zM506 98q0 77 39 120.5t110 43.5t112.5 -45t41.5 -119q0 -100 -42 -233.5t-91 -216.5l-144 57l68 244q-94 24 -94 149z" />
<glyph unicode="&#x2022;" horiz-adv-x="788" d="M154 618q0 125 62.5 194t176.5 69t177 -69t63 -194q0 -126 -63 -194t-177 -68t-176.5 68t-62.5 194z" />
<glyph unicode="&#x2026;" horiz-adv-x="1480" d="M100 135q0 78 42.5 122t117.5 44q77 0 120.5 -44t43.5 -122q0 -81 -43 -123.5t-121 -42.5q-76 0 -118 42.5t-42 123.5zM582 135q0 78 41.5 122t117.5 44q74 0 117 -44t43 -122q0 -80 -42.5 -123t-117.5 -43q-77 0 -118 42.5t-41 123.5zM1061 135q0 78 43 122t119 44 q74 0 116.5 -44t42.5 -122q0 -81 -42 -123.5t-117 -42.5q-77 0 -119.5 42.5t-42.5 123.5z" />
<glyph unicode="&#x202f;" horiz-adv-x="367" />
<glyph unicode="&#x2039;" horiz-adv-x="581" d="M78 588v59l282 420h23l109 -55l-168 -394l168 -393l-109 -55h-23z" />
<glyph unicode="&#x203a;" horiz-adv-x="581" d="M90 223l166 395l-166 390l109 59h20l285 -420v-59l-285 -418h-20z" />
<glyph unicode="&#x205f;" horiz-adv-x="459" />
<glyph unicode="&#x20ac;" horiz-adv-x="1112" d="M92 465v166h80v71v27h-80v168h92q36 250 166.5 383t333.5 133q218 0 356 -135l-100 -238q-91 97 -221 97q-180 0 -227 -240h372l-63 -168h-324v-27v-71h297l-55 -166h-217q53 -209 215 -209q60 0 104 17.5t97 58.5l108 -238q-163 -114 -350 -114q-188 0 -314 126.5 t-169 358.5h-101z" />
<glyph unicode="&#x2122;" horiz-adv-x="1470" d="M129 1194v164h455v-164h-152v-463h-153v463h-150zM707 731v627h139l172 -248l174 248h137v-627h-158v344l-139 -194h-28l-138 194v-344h-159z" />
<glyph unicode="&#x25fc;" horiz-adv-x="1075" d="M0 0v1075h1075v-1075h-1075z" />
<glyph unicode="&#xfb01;" horiz-adv-x="1384" d="M68 786v236h155v82q0 185 78.5 278t249.5 93q137 0 235 -50l-59 -254q-62 41 -119 41q-44 0 -66 -22t-22 -72v-96h246v-236h-246v-786h-297v786h-155zM926 1372q0 146 174 146q168 0 168 -146q0 -149 -168 -149q-174 0 -174 149zM948 0v1071h299v-1071h-299z" />
<glyph unicode="&#xfb02;" horiz-adv-x="1443" d="M68 786v236h155v82q0 185 78.5 278t249.5 93q137 0 235 -50l-59 -254q-62 41 -119 41q-44 0 -66 -22t-22 -72v-96h246v-236h-246v-786h-297v786h-155zM944 246v1208h299v-1126q0 -52 16.5 -72t51.5 -20q45 0 92 28l10 -237q-100 -47 -217 -47q-129 0 -190.5 62t-61.5 204 z" />
</font>
</defs>
</svg>
