<?xml version="1.0" standalone="no"?>
<!DOCTYPE svg PUBLIC "-//W3C//DTD SVG 1.1//EN" "http://www.w3.org/Graphics/SVG/1.1/DTD/svg11.dtd" >
<svg xmlns="http://www.w3.org/2000/svg">
<metadata></metadata>
<defs>
<font id="pluto_sanscond_black" horiz-adv-x="1230" >
<font-face units-per-em="2048" ascent="1536" descent="-512" />
<missing-glyph horiz-adv-x="419" />
<glyph horiz-adv-x="0" />
<glyph horiz-adv-x="0" />
<glyph horiz-adv-x="682" />
<glyph unicode=" "  horiz-adv-x="419" />
<glyph unicode="&#x09;" horiz-adv-x="419" />
<glyph unicode="&#xa0;" horiz-adv-x="419" />
<glyph unicode="!" horiz-adv-x="612" d="M86 190q0 106 58 165t163 59q104 0 162.5 -59t58.5 -165q0 -105 -58 -163t-163 -58q-106 0 -163.5 57.5t-57.5 163.5zM104 1393h402l-64 -873h-276z" />
<glyph unicode="&#x22;" horiz-adv-x="927" d="M104 1393h310l-23 -545h-272zM516 1393h311l-22 -545h-275z" />
<glyph unicode="#" d="M66 299v223h170l71 326h-143v223h192l70 322h209v-29l-64 -293h238l70 322h208v-29l-63 -293h143v-223h-190l-70 -326h162v-223h-211l-63 -299h-213v31l57 268h-233l-64 -299h-213v31l57 268h-120zM455 522h233l72 326h-236z" />
<glyph unicode="$" horiz-adv-x="1091" d="M66 961q0 178 113.5 299.5t312.5 144.5v172h104v-166q117 -3 228 -28.5t182 -63.5l-111 -326q-149 79 -299 94v-217l115 -43q166 -64 239.5 -155t73.5 -228q0 -189 -114 -314.5t-314 -145.5v-248h-104v244q-116 4 -228.5 34.5t-181.5 67.5l92 336q147 -98 318 -111v230 l-148 55q-148 57 -213 140.5t-65 228.5zM422 1004q0 -69 70 -93v174q-70 -18 -70 -81zM596 313q68 27 68 95q0 56 -68 88v-183z" />
<glyph unicode="%" horiz-adv-x="1683" d="M59 1022q0 185 96 288t251 103t252.5 -103.5t97.5 -287.5t-97 -286.5t-253 -102.5q-155 0 -251 102.5t-96 286.5zM307 1022q0 -145 99 -145q98 0 98 145t-98 145q-99 0 -99 -145zM422 0v31l633 1362h211v-29l-631 -1364h-213zM928 367q0 186 96.5 288.5t251.5 102.5 q156 0 253 -103t97 -288q0 -184 -97 -285.5t-253 -101.5q-155 0 -251.5 101.5t-96.5 285.5zM1178 367q0 -146 98 -146q96 0 96 146q0 147 -96 147q-98 0 -98 -147z" />
<glyph unicode="&#x26;" horiz-adv-x="1454" d="M86 377q0 128 66 216.5t200 149.5q-61 75 -92 145.5t-31 162.5q0 157 113 259.5t330 102.5q215 0 328.5 -94t113.5 -262q0 -130 -82 -227t-213 -156l142 -148q116 129 200 287l283 -219q-113 -184 -244 -315l225 -236v-59h-417l-80 92q-190 -96 -406 -96 q-201 0 -318.5 109t-117.5 288zM492 428q0 -47 35 -83t102 -36q36 0 82 19l-176 204q-43 -43 -43 -104zM602 977q0 -56 49 -121q86 47 86 127q0 37 -16.5 61.5t-52.5 24.5q-30 0 -48 -26.5t-18 -65.5z" />
<glyph unicode="'" horiz-adv-x="514" d="M104 1393h310l-23 -545h-272z" />
<glyph unicode="(" horiz-adv-x="634" d="M63 537q0 166 29.5 323t76.5 273.5t98 201t102 133.5l219 -125q-78 -141 -127 -351.5t-49 -456.5q0 -243 49.5 -454t126.5 -351l-219 -125q-51 49 -102 133.5t-98 201.5t-76.5 274t-29.5 323z" />
<glyph unicode=")" horiz-adv-x="634" d="M45 -270q79 140 128.5 350.5t49.5 454.5q0 247 -49.5 457.5t-128.5 350.5l221 125q50 -50 101 -134t98 -200.5t76.5 -273.5t29.5 -323t-29.5 -323t-76.5 -274t-98 -201t-101 -134z" />
<glyph unicode="*" horiz-adv-x="966" d="M63 958l84 281l201 -92l-24 246h319l-27 -248l203 94l82 -281l-194 -51l139 -180l-240 -156l-123 209l-125 -209l-239 154l137 184z" />
<glyph unicode="+" horiz-adv-x="1019" d="M70 461v317h284v350h310v-350h286v-317h-286v-348h-310v348h-284z" />
<glyph unicode="," horiz-adv-x="598" d="M82 188q0 108 56.5 169t158.5 61q101 0 159 -62t58 -168q0 -127 -50 -277.5t-118 -266.5l-219 88l70 248q-115 43 -115 208z" />
<glyph unicode="-" horiz-adv-x="974" d="M106 461v317h762v-317h-762z" />
<glyph unicode="." horiz-adv-x="606" d="M80 190q0 106 58.5 165t162.5 59q106 0 165.5 -59t59.5 -165q0 -105 -59.5 -163t-165.5 -58q-105 0 -163 58t-58 163z" />
<glyph unicode="/" horiz-adv-x="935" d="M45 0v31l635 1362h211v-29l-631 -1364h-215z" />
<glyph unicode="0" horiz-adv-x="1249" d="M82 694q0 339 141.5 529t399.5 190q261 0 402.5 -190t141.5 -529q0 -336 -142 -525t-402 -189q-258 0 -399.5 189.5t-141.5 524.5zM471 694q0 -170 36 -256t116 -86q82 0 116.5 84.5t34.5 257.5q0 176 -34.5 261t-116.5 85q-80 0 -116 -86.5t-36 -259.5z" />
<glyph unicode="1" horiz-adv-x="954" d="M0 1032l522 361h291v-1393h-403v909l-254 -184z" />
<glyph unicode="2" horiz-adv-x="1163" d="M66 893q5 241 137.5 380.5t361.5 139.5q237 0 361.5 -129t124.5 -336q0 -123 -53 -224.5t-179 -227.5l-143 -142h397v-354h-960v303l407 375q64 62 89.5 118t25.5 122q0 122 -92 122q-113 0 -113 -219z" />
<glyph unicode="3" horiz-adv-x="1101" d="M61 1341q63 25 185.5 48.5t218.5 23.5q264 0 389 -100.5t125 -298.5q0 -100 -48.5 -177.5t-133.5 -109.5q225 -79 225 -344q0 -189 -136.5 -296t-420.5 -107q-104 0 -215 25.5t-180 51.5l96 336q151 -69 280 -69q73 0 117.5 34.5t44.5 90.5q0 57 -35.5 81.5t-111.5 24.5 h-240v309h240q54 0 82 26t28 66q0 113 -137 113q-71 0 -155.5 -27t-128.5 -49z" />
<glyph unicode="4" horiz-adv-x="1239" d="M45 225v262l444 906h529v-869h151v-299h-151v-225h-404v225h-569zM442 524h172v385z" />
<glyph unicode="5" horiz-adv-x="1091" d="M59 63l97 334q154 -73 272 -73q77 0 122.5 35.5t45.5 99.5q0 116 -150 116h-311l-16 15l63 803h787v-355h-451l-10 -166q250 -2 375 -100.5t125 -302.5q0 -244 -137.5 -366.5t-399.5 -122.5q-117 0 -229.5 27t-182.5 56z" />
<glyph unicode="6" horiz-adv-x="1204" d="M80 698q0 215 64 375t192.5 250t308.5 90q124 0 242 -29t184 -59l-98 -334q-56 29 -134 52.5t-145 23.5q-109 0 -154 -62.5t-53 -185.5q90 94 213 94q214 0 322 -111t108 -317q0 -233 -134.5 -369t-354.5 -136q-267 0 -414 194t-147 524zM492 541q23 -189 131 -189 q50 0 79 39t29 94q0 59 -27.5 92t-78.5 33q-77 0 -133 -69z" />
<glyph unicode="7" horiz-adv-x="1032" d="M59 1038v355h932v-281l-420 -1112h-442v37l414 1001h-484z" />
<glyph unicode="8" horiz-adv-x="1234" d="M80 383q0 142 52 225.5t165 118.5q-83 29 -129.5 107.5t-46.5 179.5q0 399 497 399q496 0 496 -399q0 -101 -47 -179.5t-131 -107.5q114 -35 166.5 -118.5t52.5 -225.5q0 -188 -133 -295.5t-404 -107.5q-273 0 -405.5 107.5t-132.5 295.5zM489 449q0 -62 31.5 -103 t97.5 -41q63 0 95 41.5t32 102.5q0 58 -33 98.5t-96 40.5q-62 0 -94.5 -40.5t-32.5 -98.5zM520 973q0 -51 24 -85t72 -34q49 0 73 33.5t24 85.5q0 119 -95 119q-98 0 -98 -119z" />
<glyph unicode="9" horiz-adv-x="1204" d="M74 907q0 232 135 369t354 137q267 0 414 -194.5t147 -524.5q0 -328 -147.5 -521t-417.5 -193q-124 0 -242 29t-184 59l98 333q56 -30 134 -53.5t145 -23.5q107 0 152 62t53 185q-88 -92 -211 -92q-214 0 -322 111t-108 317zM473 907q0 -60 28 -92.5t79 -32.5 q75 0 131 68q-20 190 -129 190q-50 0 -79.5 -39t-29.5 -94z" />
<glyph unicode=":" horiz-adv-x="638" d="M102 182q0 101 56 158t157 57q103 0 161.5 -57t58.5 -158q0 -102 -58 -157.5t-162 -55.5q-102 0 -157.5 55.5t-55.5 157.5zM102 883q0 101 56 158t157 57q103 0 161.5 -57t58.5 -158q0 -102 -58 -157.5t-162 -55.5q-102 0 -157.5 55.5t-55.5 157.5z" />
<glyph unicode=";" horiz-adv-x="632" d="M94 883q0 101 56 158t157 57q103 0 161 -57t58 -158q0 -102 -58 -157.5t-161 -55.5q-102 0 -157.5 55.5t-55.5 157.5zM109 178q0 104 54.5 162.5t153.5 58.5q97 0 153 -59.5t56 -161.5q0 -122 -48 -266.5t-113 -255.5l-211 84l65 237q-110 43 -110 201z" />
<glyph unicode="&#x3c;" horiz-adv-x="1054" d="M66 457v311l854 360h26v-305l-567 -205l567 -200v-309h-26z" />
<glyph unicode="=" horiz-adv-x="1110" d="M115 178v318h880v-318h-880zM115 743v318h880v-318h-880z" />
<glyph unicode="&#x3e;" horiz-adv-x="1054" d="M109 109v309l569 200l-569 205v305h28l852 -360v-311l-852 -348h-28z" />
<glyph unicode="?" horiz-adv-x="894" d="M66 1303q183 110 387 110q180 0 279 -100t99 -256q0 -181 -137 -314l-108 -102q-3 -3 -13 -13.5t-12 -13t-8 -11t-7 -13.5t-3 -14.5t-2 -20.5q0 -17 4 -41h-324q-31 78 -31 150q0 88 97 172l92 79q47 42 47 93q0 32 -20.5 50.5t-55.5 18.5q-46 0 -91 -26t-101 -72z M162 190q0 106 58 165t163 59t164 -59t59 -165q0 -105 -59 -163t-164 -58q-106 0 -163.5 57.5t-57.5 163.5z" />
<glyph unicode="@" horiz-adv-x="1705" d="M74 539q0 217 58.5 393.5t163.5 294.5t251 182t321 64t319 -56t246.5 -160t159 -258.5t56.5 -345.5q0 -327 -119 -478.5t-348 -151.5q-93 0 -150 27t-92 89q-74 -114 -225 -114q-158 0 -259.5 139t-101.5 356q0 220 101.5 361t259.5 141q132 0 196 -90v74h385v-691 q0 -58 11.5 -79t44.5 -21q62 0 105.5 107t43.5 325q0 332 -168 507t-465 175t-473 -203.5t-176 -586.5q0 -384 174.5 -589.5t474.5 -205.5q170 0 316 84l45 -131q-163 -94 -361 -94q-363 0 -578.5 248.5t-215.5 687.5zM748 520q0 -72 28 -115t70 -43q39 0 65 29v262 q-25 29 -65 29q-44 0 -71 -43.5t-27 -118.5z" />
<glyph unicode="A" horiz-adv-x="1327" d="M0 0l424 1393h477l426 -1393h-407l-56 229h-403l-55 -229h-406zM561 528h205l-102 461z" />
<glyph unicode="B" horiz-adv-x="1323" d="M137 0v1393h596q434 0 434 -381q0 -200 -143 -285q238 -70 238 -342q0 -181 -117.5 -283t-331.5 -102h-676zM547 307h182q53 0 80 32.5t27 86.5q0 123 -111 123h-178v-242zM547 862h106q103 0 103 113q0 110 -101 110h-108v-223z" />
<glyph unicode="C" horiz-adv-x="1220" d="M72 696q0 165 48 301t132 226.5t197.5 140t244.5 49.5q140 0 267.5 -55.5t212.5 -140.5l-164 -293q-64 57 -123.5 85.5t-134.5 28.5q-124 0 -195.5 -85.5t-71.5 -256.5t72 -257.5t195 -86.5q74 0 133 29t125 86l164 -291q-85 -85 -212.5 -140.5t-267.5 -55.5 q-131 0 -244.5 49.5t-197.5 139.5t-132 226t-48 301z" />
<glyph unicode="D" horiz-adv-x="1411" d="M137 0v1393h588q132 0 243.5 -46.5t193.5 -133.5t128.5 -220t46.5 -299q0 -165 -46.5 -297.5t-128.5 -218.5t-193.5 -132t-243.5 -46h-588zM547 354h121q125 0 189.5 88t64.5 252q0 166 -64.5 255t-187.5 89h-123v-684z" />
<glyph unicode="E" horiz-adv-x="1218" d="M137 0v1393h991v-355h-600v-168h473v-331h-473v-185h600v-354h-991z" />
<glyph unicode="F" horiz-adv-x="1146" d="M137 0v1393h957v-357h-566v-264h471v-356h-471v-416h-391z" />
<glyph unicode="G" horiz-adv-x="1312" d="M70 694q0 166 49 303t134.5 227t200.5 139.5t246 49.5q297 0 474 -147l-160 -324q-140 96 -262 96q-267 0 -267 -344q0 -342 246 -342q77 0 133 35v156h-215v280h572v-682q-87 -68 -236 -114.5t-285 -46.5q-131 0 -246 49t-200.5 139t-134.5 226t-49 300z" />
<glyph unicode="H" horiz-adv-x="1480" d="M137 0v1393h410v-510h387v510h409v-1393h-409v528h-387v-528h-410z" />
<glyph unicode="I" horiz-adv-x="684" d="M137 0v1393h410v-1393h-410z" />
<glyph unicode="J" horiz-adv-x="1134" d="M14 475l387 37q3 -93 27 -135.5t74 -42.5q48 0 73 44.5t25 147.5v867h410v-871q0 -119 -30 -216t-90.5 -171t-161.5 -114.5t-234 -40.5q-231 0 -354.5 134t-125.5 361z" />
<glyph unicode="K" horiz-adv-x="1353" d="M137 0v1393h410v-521h53l305 521h410v-62l-408 -633l420 -657v-41h-442l-289 518h-49v-518h-410z" />
<glyph unicode="L" horiz-adv-x="1105" d="M137 0v1393h410v-1039h532v-354h-942z" />
<glyph unicode="M" horiz-adv-x="1689" d="M137 0v1393h363l346 -500l346 500h360v-1393h-409v713l-266 -402h-64l-266 402v-713h-410z" />
<glyph unicode="N" horiz-adv-x="1478" d="M137 0v1393h352l441 -705v705h411v-1393h-356l-440 705v-705h-408z" />
<glyph unicode="O" horiz-adv-x="1361" d="M72 694q0 155 41.5 287t117.5 228t191 150t256 54q189 0 329 -94t211.5 -255.5t71.5 -369.5q0 -206 -71.5 -366.5t-211.5 -254t-329 -93.5q-187 0 -326 93.5t-209.5 254t-70.5 366.5zM465 694q0 -166 57 -249t156 -83q102 0 160.5 83t58.5 249q0 168 -58.5 252t-160.5 84 q-99 0 -156 -84t-57 -252z" />
<glyph unicode="P" horiz-adv-x="1277" d="M137 0v1393h647q93 0 173 -32.5t143 -95t99 -165t36 -232.5q0 -119 -36.5 -218t-98.5 -164t-143.5 -100.5t-172.5 -35.5h-237v-350h-410zM549 705h145q54 0 90.5 46.5t36.5 118.5q0 73 -36.5 120.5t-90.5 47.5h-145v-333z" />
<glyph unicode="Q" horiz-adv-x="1382" d="M72 694q0 155 41.5 287t117.5 228t191 150t256 54q189 0 329 -94t211.5 -255.5t71.5 -369.5q0 -197 -67.5 -355t-192.5 -251q49 -56 90.5 -86.5t85.5 -30.5q96 0 150 23l37 -324q-97 -39 -217 -39q-76 0 -147.5 29t-127 75.5t-99 92t-83.5 92t-60 62.5q-182 4 -316.5 98 t-202.5 252.5t-68 361.5zM461 694q0 -166 59 -250t158 -84q102 0 159.5 83.5t57.5 250.5q0 168 -57.5 252t-159.5 84q-99 0 -158 -84.5t-59 -251.5z" />
<glyph unicode="R" horiz-adv-x="1329" d="M137 0v1393h656q197 0 311.5 -132t114.5 -327q0 -127 -64 -228t-170 -159l287 -459v-88h-393l-279 485h-53v-485h-410zM547 774h139q57 0 88 37.5t31 93.5q0 57 -31 95t-88 38h-139v-264z" />
<glyph unicode="S" horiz-adv-x="1105" d="M68 82l94 354q71 -52 157.5 -83t157.5 -31q62 0 99.5 26t37.5 76q0 31 -21 54.5t-77 45.5l-154 60q-148 54 -216 144.5t-68 236.5q0 197 135.5 321.5t374.5 124.5q111 0 227.5 -28t194.5 -68l-111 -332q-163 94 -299 94q-58 0 -88.5 -24.5t-30.5 -63.5q0 -65 86 -94 l154 -55q166 -63 240.5 -160.5t74.5 -239.5q0 -203 -143.5 -331.5t-388.5 -128.5q-115 0 -239 31.5t-197 70.5z" />
<glyph unicode="T" horiz-adv-x="1099" d="M45 1036v357h1010v-357h-301v-1036h-410v1036h-299z" />
<glyph unicode="U" horiz-adv-x="1402" d="M123 571v822h409v-795q0 -132 39.5 -189t128.5 -57q92 0 132 57.5t40 188.5v795h410v-822q0 -130 -34 -236t-103 -186.5t-182.5 -124.5t-262.5 -44q-293 0 -435 153.5t-142 437.5z" />
<glyph unicode="V" horiz-adv-x="1359" d="M-2 1393h442l240 -899l238 899h442l-424 -1393h-512z" />
<glyph unicode="W" horiz-adv-x="1978" d="M-2 1393h436l246 -934l137 493l-123 441h443l190 -865l209 865h442l-424 -1393h-440l-119 467l-133 -467h-438z" />
<glyph unicode="X" horiz-adv-x="1357" d="M35 0v31l360 663l-360 670v29h457l188 -435l186 435h459v-29l-364 -670l364 -663v-31h-463l-182 428l-186 -428h-459z" />
<glyph unicode="Y" horiz-adv-x="1236" d="M-6 1364v29h448l176 -496l177 496h448v-29l-424 -842v-522h-401v520z" />
<glyph unicode="Z" horiz-adv-x="1169" d="M92 0v281l465 757h-465v355h987v-281l-461 -758h461v-354h-987z" />
<glyph unicode="[" horiz-adv-x="686" d="M123 -385v1839h491v-317h-182v-1205h182v-317h-491z" />
<glyph unicode="\" horiz-adv-x="935" d="M45 1364v29h211l635 -1362v-31h-215z" />
<glyph unicode="]" horiz-adv-x="686" d="M70 -68h182v1205h-182v317h493v-1839h-493v317z" />
<glyph unicode="^" horiz-adv-x="1099" d="M70 754v28l333 611h293l334 -611v-28h-311l-168 370l-174 -370h-307z" />
<glyph unicode="_" horiz-adv-x="1085" d="M106 -63h871v-256h-871v256z" />
<glyph unicode="`" horiz-adv-x="1044" d="M256 1518h391l141 -336h-327z" />
<glyph unicode="a" horiz-adv-x="1083" d="M51 295q0 173 124.5 265.5t332.5 92.5q42 0 82 -6q-1 70 -35.5 93.5t-103.5 23.5q-46 0 -116 -15t-124 -36l-68 305q223 72 408 72q211 0 319.5 -121t108.5 -346v-623h-389v66q-100 -86 -232 -86q-147 0 -227 85t-80 230zM410 336q0 -41 22.5 -61.5t61.5 -20.5 q59 0 96 41v135q-21 6 -49 6q-60 0 -95.5 -26t-35.5 -74z" />
<glyph unicode="b" horiz-adv-x="1220" d="M115 0v1454h403v-467q100 103 238 103q182 0 287.5 -143t105.5 -410t-105.5 -412t-287.5 -145q-149 0 -238 106v-86h-403zM518 375q41 -41 94 -41q61 0 93 51.5t32 146.5q0 97 -31.5 150t-93.5 53q-26 0 -52.5 -12.5t-41.5 -28.5v-319z" />
<glyph unicode="c" horiz-adv-x="1009" d="M63 537q0 265 143 414t378 149q218 0 381 -133l-156 -293q-77 67 -168 67q-71 0 -119.5 -52t-48.5 -152q0 -102 48 -154.5t122 -52.5q91 0 168 71l154 -297q-159 -133 -381 -133q-235 0 -378 150.5t-143 415.5z" />
<glyph unicode="d" horiz-adv-x="1218" d="M70 537q0 266 108 409.5t291 143.5q133 0 231 -101v465h402v-1454h-402v86q-93 -106 -231 -106q-182 0 -290.5 145.5t-108.5 411.5zM479 532q0 -94 31.5 -146t91.5 -52t98 41v319q-41 41 -98 41q-61 0 -92 -53t-31 -150z" />
<glyph unicode="e" horiz-adv-x="1040" d="M66 532q0 248 134.5 408t352.5 160q211 0 313.5 -119t102.5 -324q0 -116 -23 -202h-497q2 -75 40 -123.5t119 -48.5q59 0 119 25.5t104 60.5l132 -267q-160 -131 -400 -131q-124 0 -220 42t-156 117.5t-90.5 177t-30.5 224.5zM455 662h198q6 21 6 47q0 49 -24.5 75.5 t-69.5 26.5q-53 0 -80.5 -39t-29.5 -110z" />
<glyph unicode="f" horiz-adv-x="835" d="M61 717v315h138v49q0 199 78.5 296.5t254.5 97.5q59 0 133 -12.5t123 -28.5l-51 -297q-46 24 -88 24q-49 0 -49 -61v-68h186v-315h-186v-717h-401v717h-138z" />
<glyph unicode="g" horiz-adv-x="1218" d="M72 573q0 240 108.5 378.5t288.5 138.5q141 0 231 -97v78h404v-965q0 -260 -137 -386t-375 -126q-234 0 -408 82l86 308q167 -82 277 -82q73 0 113 33t40 112v94q-93 -80 -231 -80q-180 0 -288.5 137.5t-108.5 374.5zM481 573q0 -75 32 -117t93 -42q43 0 94 37v247 q-41 37 -94 37q-62 0 -93.5 -42.5t-31.5 -119.5z" />
<glyph unicode="h" d="M115 0v1454h403v-477q42 53 118.5 83t162.5 30q325 0 325 -416v-674h-401v588q0 67 -24 96t-72 29q-36 0 -65 -16t-44 -40v-657h-403z" />
<glyph unicode="i" horiz-adv-x="632" d="M102 1356q0 178 217 178q211 0 211 -178q0 -180 -211 -180q-217 0 -217 180zM115 0v1071h403v-1071h-403z" />
<glyph unicode="j" horiz-adv-x="634" d="M10 -168q107 115 107 274v965h403v-932q0 -88 -15.5 -164.5t-39.5 -131.5t-60.5 -103.5t-71.5 -80.5t-79 -62zM104 1356q0 178 215 178q213 0 213 -178q0 -180 -213 -180q-215 0 -215 180z" />
<glyph unicode="k" horiz-adv-x="1249" d="M115 0v1454h403v-813l250 430h428v-67l-311 -449l325 -487v-68h-428l-264 453v-453h-403z" />
<glyph unicode="l" horiz-adv-x="686" d="M113 272v1182h403v-1065q0 -37 11.5 -52t37.5 -15q39 0 72 20l6 -319q-95 -43 -240 -43q-152 0 -221 67.5t-69 224.5z" />
<glyph unicode="m" horiz-adv-x="1806" d="M115 0v1071h403v-92q45 53 119 82t160 29q181 0 258 -138q107 138 291 138q188 0 270 -105.5t82 -308.5v-676h-400v590q0 66 -23.5 94.5t-70.5 28.5q-60 0 -92 -45v-668h-399v590q0 67 -21 95t-67 28q-37 0 -66 -14.5t-41 -36.5v-662h-403z" />
<glyph unicode="n" d="M115 0v1071h403v-94q42 53 118.5 83t162.5 30q325 0 325 -416v-674h-403v588q0 67 -23 96t-69 29q-38 0 -68 -16.5t-43 -39.5v-657h-403z" />
<glyph unicode="o" horiz-adv-x="1120" d="M66 532q0 270 132 419t361 149q230 0 363 -148.5t133 -419.5q0 -267 -133 -414t-363 -147q-229 0 -361 147t-132 414zM455 532q0 -103 26 -145.5t78 -42.5q53 0 80 43t27 145q0 104 -27.5 149.5t-79.5 45.5t-78 -45t-26 -150z" />
<glyph unicode="p" horiz-adv-x="1220" d="M115 -385v1456h403v-90q92 109 234 109q182 0 290.5 -146t108.5 -412t-108 -409t-291 -143q-139 0 -234 102v-467h-403zM518 373q14 -16 42 -27.5t56 -11.5q61 0 93 53.5t32 149.5q0 94 -32.5 146t-92.5 52q-58 0 -98 -43v-319z" />
<glyph unicode="q" horiz-adv-x="1220" d="M70 535q0 267 106.5 412t288.5 145q146 0 237 -109v88h402v-1456h-402v469q-99 -102 -237 -102q-182 0 -288.5 143.5t-106.5 409.5zM481 539q0 -98 32 -150.5t93 -52.5q60 0 96 41v317q-40 43 -96 43q-60 0 -92.5 -52.5t-32.5 -145.5z" />
<glyph unicode="r" horiz-adv-x="919" d="M115 0v1071h403v-115q78 134 230 134q37 0 80 -11t69 -24l-41 -379q-76 37 -164 37q-63 0 -108 -32t-66 -87v-594h-403z" />
<glyph unicode="s" horiz-adv-x="919" d="M61 59l70 310q55 -39 119.5 -64.5t109.5 -25.5q40 0 61 17t21 44q0 24 -14 41t-49 31l-80 37q-113 47 -165 113t-52 175q0 165 107.5 259t306.5 94q88 0 190 -20t162 -46l-96 -299q-122 70 -199 70q-61 0 -61 -56q0 -18 14 -32t51 -31l76 -31q122 -53 168.5 -127.5 t46.5 -179.5q0 -154 -112 -256t-296 -102q-116 0 -218.5 23.5t-160.5 55.5z" />
<glyph unicode="t" horiz-adv-x="944" d="M49 756v315h166l47 272h328v-272h274v-315h-274v-334q0 -90 72 -90q67 0 147 51l90 -307q-95 -46 -178 -71t-195 -25q-161 0 -250.5 94.5t-89.5 292.5v389h-137z" />
<glyph unicode="u" d="M106 395v674h404v-588q0 -67 23.5 -96t70.5 -29q35 0 66 16.5t45 39.5v657h401v-1071h-401v94q-44 -52 -120.5 -82t-160.5 -30q-328 0 -328 415z" />
<glyph unicode="v" horiz-adv-x="1148" d="M12 1071h398l161 -706l172 706h396l-353 -1071h-430z" />
<glyph unicode="w" horiz-adv-x="1800" d="M23 1071h397l117 -706l153 706h426l139 -706l131 706h398l-303 -1071h-428l-154 602l-158 -602h-430z" />
<glyph unicode="x" horiz-adv-x="1144" d="M49 0v31l242 501l-242 510v29h428l94 -330l97 330h428v-29l-246 -510l246 -501v-31h-432l-93 322l-90 -322h-432z" />
<glyph unicode="y" horiz-adv-x="1110" d="M-4 1071h444l113 -627l133 625q68 0 202 1t202 1l-371 -1134q-29 -88 -63 -148.5t-83.5 -106t-116.5 -67t-157 -21.5q-52 0 -110 16.5t-99 39.5l53 295q67 -31 125 -31q44 0 69.5 23t35.5 75l8 31z" />
<glyph unicode="z" horiz-adv-x="948" d="M90 0v281l266 473h-266v317h770v-280l-262 -474h262v-317h-770z" />
<glyph unicode="{" horiz-adv-x="710" d="M43 412v233q105 0 152 33.5t47 107.5q0 63 -34 190t-34 206q0 272 340 272h121v-280h-49q-59 0 -80 -25.5t-21 -65.5q0 -45 34 -166.5t34 -189.5q0 -165 -166 -199q166 -34 166 -198q0 -70 -34 -192t-34 -167q0 -40 21 -65t82 -25h47v-280h-121q-171 0 -255.5 69.5 t-84.5 218.5q0 78 34 209t34 199q0 65 -45.5 90t-153.5 25z" />
<glyph unicode="|" horiz-adv-x="555" d="M123 -385v1839h309v-1839h-309z" />
<glyph unicode="}" horiz-adv-x="710" d="M76 -119h53q57 0 76.5 25t19.5 65q0 45 -33.5 167t-33.5 192q0 164 166 198q-166 34 -166 199q0 68 33.5 189.5t33.5 166.5q0 40 -19.5 65.5t-76.5 25.5h-53v280h121q338 0 338 -272q0 -79 -33 -206t-33 -190q0 -74 47 -107.5t152 -33.5v-233q-108 0 -153.5 -25 t-45.5 -90q0 -68 33 -199t33 -209q0 -149 -84 -218.5t-254 -69.5h-121v280z" />
<glyph unicode="~" horiz-adv-x="976" d="M68 623q31 79 100 134.5t149 55.5q53 0 103.5 -19t82 -42.5t68.5 -42.5t68 -19q84 0 149 105l121 -197q-33 -91 -105.5 -146t-152.5 -55q-47 0 -92 19t-75 42.5t-70.5 42.5t-79.5 19q-43 0 -82 -28.5t-68 -77.5z" />
<glyph unicode="&#xa1;" horiz-adv-x="589" d="M72 879q0 105 59 163t162 58q107 0 164 -57.5t57 -163.5q0 -105 -57.5 -164.5t-163.5 -59.5q-103 0 -162 60t-59 164zM94 -324l64 873h276l62 -873h-402z" />
<glyph unicode="&#xa2;" horiz-adv-x="1069" d="M76 537q0 265 142.5 414t377.5 149q55 0 117 -10l51 219l119 -29l-54 -225q79 -34 148 -88l-156 -293q-54 42 -71 51l-97 -408q81 2 170 84l154 -297q-159 -133 -381 -133h-25l-59 -250l-115 29l56 238q-174 42 -275.5 185t-101.5 364zM463 537q0 -134 76 -187l94 404 q-73 -5 -121.5 -59.5t-48.5 -157.5z" />
<glyph unicode="&#xa3;" horiz-adv-x="1138" d="M66 229q0 102 54 164t140 62q20 0 64 -11q-2 66 -35 193h-150v137h115q-27 135 -27 232q0 180 102.5 293.5t305.5 113.5q100 0 214 -29.5t179 -68.5l-106 -354q-41 33 -93.5 56t-95.5 23q-102 0 -102 -141q0 -52 6 -125h227v-137h-213q15 -179 2 -295q39 -39 64 -39 q36 0 44.5 47.5t-1.5 136.5h299q19 -150 0.5 -260.5t-87 -178.5t-184.5 -68q-20 0 -42 6.5t-37 13t-39 23.5t-34 25t-36.5 30.5t-32.5 27.5q-56 -69 -117.5 -97.5t-156.5 -28.5q-106 0 -166.5 70t-60.5 179zM227 186q0 -49 33 -49t49 88q-17 17 -39 17q-21 0 -32 -16.5 t-11 -39.5z" />
<glyph unicode="&#xa4;" horiz-adv-x="1120" d="M84 369l96 98q-30 65 -30 151q0 84 30 154l-96 98l225 226l109 -109q67 23 131 23q75 0 147 -29l115 115l225 -226l-114 -112q26 -67 26 -140q0 -67 -24 -137l112 -112l-225 -226l-115 115q-68 -27 -147 -27q-73 0 -131 21l-109 -109zM401 618q0 -62 42 -105.5t106 -43.5 q63 0 103 43t40 106t-40 107.5t-103 44.5t-105.5 -44.5t-42.5 -107.5z" />
<glyph unicode="&#xa5;" horiz-adv-x="1142" d="M61 1364v29h414l90 -551l107 551h413v-29l-280 -739h170v-138h-209v-116h209v-138h-209v-233h-406v233h-206v138h206v116h-206v138h170z" />
<glyph unicode="&#xa6;" horiz-adv-x="569" d="M129 326h311v-711h-311v711zM129 768v686h311v-686h-311z" />
<glyph unicode="&#xa7;" horiz-adv-x="1105" d="M92 573q0 144 105 246q-105 74 -105 225q0 164 131.5 266.5t356.5 102.5q112 0 227.5 -26t187.5 -62l-106 -309q-77 41 -169.5 69.5t-162.5 28.5q-76 0 -76 -47q0 -14 10 -23.5t20 -13t32 -10.5l168 -51q158 -50 230.5 -128.5t72.5 -189.5q0 -150 -109 -256 q109 -79 109 -215q0 -167 -129.5 -271t-352.5 -104q-118 0 -236.5 29.5t-186.5 65.5l90 311q185 -100 338 -100q34 0 52.5 12.5t18.5 34.5q0 42 -82 61l-166 47q-140 38 -204 111.5t-64 195.5zM442 621q0 -52 64 -70l80 -25q28 10 45.5 31.5t17.5 50.5q0 30 -23.5 50 t-58.5 28l-61 16q-30 -12 -47 -34t-17 -47z" />
<glyph unicode="&#xa8;" horiz-adv-x="1044" d="M109 1352q0 168 186 168q182 0 182 -168q0 -170 -182 -170q-87 0 -136.5 41.5t-49.5 128.5zM565 1352q0 168 187 168q182 0 182 -168q0 -170 -182 -170q-88 0 -137.5 41.5t-49.5 128.5z" />
<glyph unicode="&#xa9;" horiz-adv-x="1576" d="M72 694q0 203 93 368t256.5 258t364.5 93q152 0 285.5 -55t228.5 -150t150 -228.5t55 -285.5q0 -201 -93 -364.5t-258 -256.5t-368 -93q-201 0 -364.5 93t-256.5 256.5t-93 364.5zM209 694q0 -124 43.5 -232t119.5 -185t183.5 -121.5t230.5 -44.5q252 0 416 165.5 t164 417.5q0 167 -74 301.5t-206.5 210.5t-299.5 76q-165 0 -297 -76t-206 -210.5t-74 -301.5zM430 696q0 155 102.5 256t270.5 101q154 0 276 -103l-100 -176q-74 53 -158 53q-63 0 -101 -35.5t-38 -95.5q0 -62 37.5 -97.5t101.5 -35.5q89 0 158 53l100 -178 q-120 -102 -276 -102q-168 0 -270.5 101.5t-102.5 258.5z" />
<glyph unicode="&#xaa;" horiz-adv-x="880" d="M90 842q0 118 88.5 183.5t251.5 68.5v22q0 41 -15 54.5t-46 13.5q-40 0 -93 -18t-81 -40l-43 230q49 20 139 34.5t151 14.5q76 0 126 -17.5t76.5 -53.5t37 -80.5t10.5 -108.5v-244q0 -24 6 -34.5t25 -10.5q23 0 55 18l6 -208q-97 -33 -184 -33q-90 0 -133 72 q-72 -72 -172 -72q-90 0 -147.5 59t-57.5 150zM160 311v189h575v-189h-575zM313 883q0 -60 62 -60q29 0 55 15v24v92q-5 0 -14 1t-13 1q-34 0 -62 -18.5t-28 -54.5z" />
<glyph unicode="&#xab;" horiz-adv-x="1071" d="M66 580v73l286 430h29l145 -65l-131 -402l131 -399l-145 -67h-29zM530 580v73l289 430h27l147 -65l-131 -402l131 -399l-147 -67h-27z" />
<glyph unicode="&#xac;" horiz-adv-x="1095" d="M94 584v317h881l-2 -665h-311v348h-568z" />
<glyph unicode="&#xad;" horiz-adv-x="974" d="M106 461v317h762v-317h-762z" />
<glyph unicode="&#xae;" horiz-adv-x="1576" d="M72 694q0 203 93 368t256.5 258t364.5 93q152 0 285.5 -55t228.5 -150t150 -228.5t55 -285.5q0 -201 -93 -364.5t-258 -256.5t-368 -93q-201 0 -364.5 93t-256.5 256.5t-93 364.5zM209 694q0 -124 43.5 -232t119.5 -185t183.5 -121.5t230.5 -44.5q252 0 416 165.5 t164 417.5q0 167 -74 301.5t-206.5 210.5t-299.5 76q-165 0 -297 -76t-206 -210.5t-74 -301.5zM477 346v696h389q113 0 178.5 -63t65.5 -166q0 -143 -125 -197l143 -221v-49h-245l-138 242h-20v-242h-248zM725 750h94q21 0 31 12.5t10 28.5q0 40 -41 40h-94v-81z" />
<glyph unicode="&#xaf;" horiz-adv-x="1044" d="M283 1227v233h477v-233h-477z" />
<glyph unicode="&#xb0;" horiz-adv-x="835" d="M70 1022q0 184 96 287.5t250 103.5q156 0 253 -103t97 -288q0 -184 -96.5 -286.5t-253.5 -102.5q-154 0 -250 102.5t-96 286.5zM315 1022q0 -152 101 -152q102 0 102 152t-102 152q-101 0 -101 -152z" />
<glyph unicode="&#xb1;" horiz-adv-x="1101" d="M111 55v318h880v-318h-880zM111 696v318h286v348h310v-348h284v-318h-284v-188h-310v188h-286z" />
<glyph unicode="&#xb2;" horiz-adv-x="645" d="M47 1343q3 128 73.5 201.5t192.5 73.5q127 0 193.5 -67.5t66.5 -178.5q0 -65 -32.5 -123t-104.5 -121l-65 -59h215v-190h-512v161l219 195q61 56 61 119q0 28 -13 46.5t-38 18.5q-63 0 -63 -112z" />
<glyph unicode="&#xb3;" horiz-adv-x="610" d="M45 1579q36 14 102.5 26.5t128.5 12.5q130 0 195.5 -54t65.5 -157q0 -51 -28 -90.5t-75 -56.5q123 -39 123 -179q0 -99 -70.5 -156t-210.5 -57q-114 0 -227 41l51 176q26 -12 73 -22t87 -10q78 0 78 61q0 29 -19 41t-61 12h-127v164h127q61 0 61 53q0 50 -67 50 q-81 0 -162 -35z" />
<glyph unicode="&#xb4;" horiz-adv-x="1044" d="M256 1182l139 336h393l-204 -336h-328z" />
<glyph unicode="&#xb5;" horiz-adv-x="1187" d="M123 -385v1456h403v-565q2 -85 18 -119.5t64 -34.5q51 0 82 43v676h404v-1071h-404v70q-74 -64 -164 -82v-373h-403z" />
<glyph unicode="&#xb6;" horiz-adv-x="1130" d="M51 745q0 152 86 238t221 88h312v-1456h-203v803h-109q-135 0 -221 86t-86 241zM791 -385v1456h202v-1456h-202z" />
<glyph unicode="&#xb7;" horiz-adv-x="620" d="M86 600q0 106 58.5 164.5t162.5 58.5q106 0 165.5 -58.5t59.5 -164.5q0 -105 -59.5 -163t-165.5 -58q-105 0 -163 58t-58 163z" />
<glyph unicode="&#xb8;" horiz-adv-x="1044" d="M334 -385l28 123q71 -23 109 -23q68 0 68 39q0 41 -76 41q-67 0 -113 -8l-6 12l55 205h148l-29 -104q20 4 31 4q76 0 118 -39.5t42 -104.5q0 -77 -63 -121.5t-163 -44.5q-73 0 -149 21z" />
<glyph unicode="&#xb9;" horiz-adv-x="534" d="M12 1417l281 189h151v-727h-213v479l-137 -105z" />
<glyph unicode="&#xba;" horiz-adv-x="894" d="M98 1022q0 190 95.5 290.5t252.5 100.5q156 0 253.5 -101t97.5 -290t-97.5 -289t-253.5 -100q-157 0 -252.5 99.5t-95.5 289.5zM160 311v189h573v-189h-573zM338 1022q0 -156 108 -156q105 0 105 156t-105 156q-108 0 -108 -156z" />
<glyph unicode="&#xbb;" horiz-adv-x="1071" d="M78 215l131 401l-131 400l145 67h29l287 -430v-73l-287 -430h-29zM543 215l131 401l-131 400l147 67h29l287 -430v-73l-287 -430h-29z" />
<glyph unicode="&#xbc;" horiz-adv-x="1531" d="M49 1212l281 189h151v-727h-213v479l-137 -104zM324 0v31l643 1362h190v-29l-641 -1364h-192zM858 115v141l246 469h272v-449h82v-161h-82v-115h-213v115h-305zM1067 276h96v197z" />
<glyph unicode="&#xbd;" horiz-adv-x="1554" d="M49 1212l281 189h151v-727h-213v479l-137 -104zM324 0v31l643 1362h190v-29l-641 -1364h-192zM938 465q3 127 73.5 199.5t192.5 72.5q126 0 193 -67t67 -176q0 -65 -32.5 -123.5t-104.5 -122.5l-65 -58h213v-190h-510v162l219 194q61 56 61 119q0 28 -13 46t-38 18 q-64 0 -64 -111z" />
<glyph unicode="&#xbe;" horiz-adv-x="1566" d="M63 1374q36 14 103 26.5t129 12.5q260 0 260 -211q0 -51 -27.5 -90.5t-74.5 -56.5q122 -39 122 -178q0 -99 -70 -156t-210 -57q-114 0 -227 41l51 176q26 -12 73 -22.5t87 -10.5q77 0 77 61q0 29 -19 41.5t-61 12.5h-126v163h126q31 0 46.5 15t15.5 39q0 49 -68 49 q-80 0 -161 -35zM373 0v31l643 1362h190v-29l-641 -1364h-192zM909 115v141l246 469h272v-449h82v-161h-82v-115h-213v115h-305zM1118 276h96v197z" />
<glyph unicode="&#xbf;" horiz-adv-x="880" d="M55 12q0 180 138 314l108 104l8.5 8.5l7.5 7.5t6.5 7t6.5 7.5t5.5 6.5t4.5 7t3 7.5t3 8.5t1.5 9.5t0.5 10.5q0 24 -6 45h324q32 -69 32 -149q0 -88 -98 -173l-90 -79q-47 -42 -47 -93q0 -33 20 -51t56 -18q46 0 91 26t101 72l92 -321q-185 -113 -389 -113 q-179 0 -279 101t-100 255zM281 879q0 105 59.5 163t163.5 58q107 0 164 -57.5t57 -163.5q0 -105 -57.5 -164.5t-163.5 -59.5q-103 0 -163 60t-60 164z" />
<glyph unicode="&#xc0;" horiz-adv-x="1327" d="M0 0l424 1393h477l426 -1393h-407l-56 229h-403l-55 -229h-406zM315 1839h392l141 -336h-328zM561 528h205l-102 461z" />
<glyph unicode="&#xc1;" horiz-adv-x="1327" d="M0 0l424 1393h477l426 -1393h-407l-56 229h-403l-55 -229h-406zM461 1503l139 336h393l-205 -336h-327zM561 528h205l-102 461z" />
<glyph unicode="&#xc2;" horiz-adv-x="1327" d="M0 0l424 1393h477l426 -1393h-407l-56 229h-403l-55 -229h-406zM301 1503l168 336h385l166 -336h-283l-75 146l-76 -146h-285zM561 528h205l-102 461z" />
<glyph unicode="&#xc3;" horiz-adv-x="1327" d="M0 0l424 1393h477l426 -1393h-407l-56 229h-403l-55 -229h-406zM297 1640q37 87 96 142t125 55q49 0 93 -18t71 -39.5t60.5 -39.5t62.5 -18q73 0 117 90l102 -112q-52 -103 -103 -151t-120 -48q-44 0 -88 17.5t-73.5 39t-63 39t-58.5 17.5q-67 0 -123 -88zM561 528h205 l-102 461z" />
<glyph unicode="&#xc4;" horiz-adv-x="1327" d="M0 0l424 1393h477l426 -1393h-407l-56 229h-403l-55 -229h-406zM250 1673q0 168 186 168q182 0 182 -168q0 -170 -182 -170q-87 0 -136.5 41.5t-49.5 128.5zM561 528h205l-102 461zM707 1673q0 168 186 168q182 0 182 -168q0 -170 -182 -170q-87 0 -136.5 41.5 t-49.5 128.5z" />
<glyph unicode="&#xc5;" horiz-adv-x="1327" d="M0 0l424 1393h59q-20 39 -20 88q0 83 59 141.5t142 58.5t141.5 -58.5t58.5 -141.5q0 -43 -20 -88h57l426 -1393h-407l-56 229h-403l-55 -229h-406zM561 528h205l-102 461zM594 1481q0 -31 19.5 -50.5t50.5 -19.5t50 19.5t19 50.5t-19 50t-50 19t-50.5 -19t-19.5 -50z" />
<glyph unicode="&#xc6;" horiz-adv-x="1898" d="M-39 0l598 1393h1247v-357h-600v-168h473v-327h-473v-187h600v-354h-985v229h-358l-76 -229h-426zM606 528h215v537z" />
<glyph unicode="&#xc7;" horiz-adv-x="1220" d="M72 696q0 165 48 301t132 226.5t197.5 140t244.5 49.5q140 0 267.5 -55.5t212.5 -140.5l-164 -293q-64 57 -123.5 85.5t-134.5 28.5q-124 0 -195.5 -85.5t-71.5 -256.5t72 -257.5t195 -86.5q74 0 133 29t125 86l164 -291q-78 -78 -192.5 -131.5t-240.5 -62.5l-22 -82 q20 4 31 4q76 0 117.5 -39.5t41.5 -104.5q0 -77 -62.5 -121.5t-162.5 -44.5q-72 0 -149 21l28 123q71 -23 109 -23q67 0 67 39q0 41 -75 41q-67 0 -113 -8l-6 12l51 189q-234 35 -379 223t-145 485z" />
<glyph unicode="&#xc8;" horiz-adv-x="1218" d="M137 0v1393h991v-355h-600v-168h473v-331h-473v-185h600v-354h-991zM301 1839h391l142 -336h-328z" />
<glyph unicode="&#xc9;" horiz-adv-x="1218" d="M137 0v1393h991v-355h-600v-168h473v-331h-473v-185h600v-354h-991zM442 1503l140 336h393l-205 -336h-328z" />
<glyph unicode="&#xca;" horiz-adv-x="1218" d="M137 0v1393h991v-355h-600v-168h473v-331h-473v-185h600v-354h-991zM279 1503l167 336h385l166 -336h-282l-76 146l-76 -146h-284z" />
<glyph unicode="&#xcb;" horiz-adv-x="1218" d="M137 0v1393h991v-355h-600v-168h473v-331h-473v-185h600v-354h-991zM225 1673q0 168 187 168q182 0 182 -168q0 -170 -182 -170q-88 0 -137.5 41.5t-49.5 128.5zM682 1673q0 168 186 168q183 0 183 -168q0 -170 -183 -170q-87 0 -136.5 41.5t-49.5 128.5z" />
<glyph unicode="&#xcc;" horiz-adv-x="684" d="M-12 1839h391l141 -336h-327zM137 0v1393h410v-1393h-410z" />
<glyph unicode="&#xcd;" horiz-adv-x="684" d="M137 0v1393h410v-1393h-410zM168 1503l139 336h393l-204 -336h-328z" />
<glyph unicode="&#xce;" horiz-adv-x="684" d="M-14 1503l168 336h385l166 -336h-283l-76 146l-76 -146h-284zM137 0v1393h410v-1393h-410z" />
<glyph unicode="&#xcf;" horiz-adv-x="684" d="M-72 1673q0 168 187 168q182 0 182 -168q0 -170 -182 -170q-88 0 -137.5 41.5t-49.5 128.5zM137 0v1393h410v-1393h-410zM385 1673q0 168 186 168q183 0 183 -168q0 -170 -183 -170q-87 0 -136.5 41.5t-49.5 128.5z" />
<glyph unicode="&#xd0;" horiz-adv-x="1417" d="M45 594v192h651v-192h-651zM143 0v1393h588q132 0 243.5 -46.5t193.5 -133.5t128.5 -220t46.5 -299q0 -165 -46.5 -297.5t-128.5 -218.5t-193.5 -132t-243.5 -46h-588zM553 354h121q126 0 191 88t65 252q0 166 -64.5 255t-189.5 89h-123v-684z" />
<glyph unicode="&#xd1;" horiz-adv-x="1478" d="M137 0v1393h352l441 -705v705h411v-1393h-356l-440 705v-705h-408zM373 1640q37 87 96 142t125 55q49 0 93 -18t71 -39.5t60.5 -39.5t62.5 -18q72 0 116 90l103 -112q-52 -103 -103 -151t-120 -48q-44 0 -88 17.5t-73.5 39t-63 39t-58.5 17.5q-67 0 -123 -88z" />
<glyph unicode="&#xd2;" horiz-adv-x="1361" d="M72 694q0 155 41.5 287t117.5 228t191 150t256 54q189 0 329 -94t211.5 -255.5t71.5 -369.5q0 -206 -71.5 -366.5t-211.5 -254t-329 -93.5q-187 0 -326 93.5t-209.5 254t-70.5 366.5zM326 1839h391l141 -336h-328zM465 694q0 -166 57 -249t156 -83q102 0 160.5 83 t58.5 249q0 168 -58.5 252t-160.5 84q-99 0 -156 -84t-57 -252z" />
<glyph unicode="&#xd3;" horiz-adv-x="1361" d="M72 694q0 155 41.5 287t117.5 228t191 150t256 54q189 0 329 -94t211.5 -255.5t71.5 -369.5q0 -206 -71.5 -366.5t-211.5 -254t-329 -93.5q-187 0 -326 93.5t-209.5 254t-70.5 366.5zM465 694q0 -166 57 -249t156 -83q102 0 160.5 83t58.5 249q0 168 -58.5 252t-160.5 84 q-99 0 -156 -84t-57 -252zM502 1503l139 336h393l-205 -336h-327z" />
<glyph unicode="&#xd4;" horiz-adv-x="1361" d="M72 694q0 155 41.5 287t117.5 228t191 150t256 54q189 0 329 -94t211.5 -255.5t71.5 -369.5q0 -206 -71.5 -366.5t-211.5 -254t-329 -93.5q-187 0 -326 93.5t-209.5 254t-70.5 366.5zM319 1503l168 336h385l166 -336h-282l-76 146l-76 -146h-285zM465 694q0 -166 57 -249 t156 -83q102 0 160.5 83t58.5 249q0 168 -58.5 252t-160.5 84q-99 0 -156 -84t-57 -252z" />
<glyph unicode="&#xd5;" horiz-adv-x="1361" d="M72 694q0 155 41.5 287t117.5 228t191 150t256 54q189 0 329 -94t211.5 -255.5t71.5 -369.5q0 -206 -71.5 -366.5t-211.5 -254t-329 -93.5q-187 0 -326 93.5t-209.5 254t-70.5 366.5zM315 1640q37 87 96 142t126 55q49 0 93 -18t71 -39.5t60 -39.5t62 -18q73 0 117 90 l102 -112q-52 -103 -103 -151t-120 -48q-55 0 -109.5 28.5t-98.5 56.5t-74 28q-67 0 -123 -88zM465 694q0 -166 57 -249t156 -83q102 0 160.5 83t58.5 249q0 168 -58.5 252t-160.5 84q-99 0 -156 -84t-57 -252z" />
<glyph unicode="&#xd6;" horiz-adv-x="1361" d="M72 694q0 155 41.5 287t117.5 228t191 150t256 54q189 0 329 -94t211.5 -255.5t71.5 -369.5q0 -206 -71.5 -366.5t-211.5 -254t-329 -93.5q-187 0 -326 93.5t-209.5 254t-70.5 366.5zM270 1673q0 168 187 168q182 0 182 -168q0 -170 -182 -170q-88 0 -137.5 41.5 t-49.5 128.5zM465 694q0 -166 57 -249t156 -83q102 0 160.5 83t58.5 249q0 168 -58.5 252t-160.5 84q-99 0 -156 -84t-57 -252zM727 1673q0 168 186 168q183 0 183 -168q0 -170 -183 -170q-87 0 -136.5 41.5t-49.5 128.5z" />
<glyph unicode="&#xd7;" horiz-adv-x="1009" d="M82 375l203 246l-203 245l223 226l201 -248l199 248l223 -226l-203 -245l203 -246l-223 -228l-199 248l-201 -248z" />
<glyph unicode="&#xd8;" horiz-adv-x="1359" d="M72 694q0 155 41.5 287t117.5 228t191 150t256 54q188 0 330 -96l53 76h201v-29l-119 -172q147 -194 147 -498q0 -206 -71.5 -366.5t-211.5 -254t-329 -93.5q-179 0 -313 86l-46 -66h-202v31l108 157q-153 194 -153 506zM465 694q0 -82 12 -141l309 444q-44 33 -108 33 q-99 0 -156 -84t-57 -252zM586 385q39 -23 92 -23q102 0 160.5 83t58.5 249q0 63 -10 125z" />
<glyph unicode="&#xd9;" horiz-adv-x="1402" d="M123 571v822h409v-795q0 -132 39.5 -189t128.5 -57q92 0 132 57.5t40 188.5v795h410v-822q0 -130 -34 -236t-103 -186.5t-182.5 -124.5t-262.5 -44q-293 0 -435 153.5t-142 437.5zM348 1839h391l142 -336h-328z" />
<glyph unicode="&#xda;" horiz-adv-x="1402" d="M123 571v822h409v-795q0 -132 39.5 -189t128.5 -57q92 0 132 57.5t40 188.5v795h410v-822q0 -130 -34 -236t-103 -186.5t-182.5 -124.5t-262.5 -44q-293 0 -435 153.5t-142 437.5zM524 1503l140 336h393l-205 -336h-328z" />
<glyph unicode="&#xdb;" horiz-adv-x="1402" d="M123 571v822h409v-795q0 -132 39.5 -189t128.5 -57q92 0 132 57.5t40 188.5v795h410v-822q0 -130 -34 -236t-103 -186.5t-182.5 -124.5t-262.5 -44q-293 0 -435 153.5t-142 437.5zM342 1503l168 336h385l166 -336h-283l-76 146l-75 -146h-285z" />
<glyph unicode="&#xdc;" horiz-adv-x="1402" d="M123 571v822h409v-795q0 -132 39.5 -189t128.5 -57q92 0 132 57.5t40 188.5v795h410v-822q0 -130 -34 -236t-103 -186.5t-182.5 -124.5t-262.5 -44q-293 0 -435 153.5t-142 437.5zM289 1673q0 168 186 168q182 0 182 -168q0 -170 -182 -170q-87 0 -136.5 41.5 t-49.5 128.5zM745 1673q0 168 187 168q182 0 182 -168q0 -170 -182 -170q-88 0 -137.5 41.5t-49.5 128.5z" />
<glyph unicode="&#xdd;" horiz-adv-x="1236" d="M-6 1364v29h448l176 -496l177 496h448v-29l-424 -842v-522h-401v520zM440 1503l140 336h393l-205 -336h-328z" />
<glyph unicode="&#xde;" horiz-adv-x="1290" d="M137 0v1393h402v-166h237q93 0 173.5 -32t143 -94t98.5 -164t36 -232q0 -118 -36 -216t-98 -162t-143.5 -99t-173.5 -35h-237v-193h-402zM541 547h139q61 0 98 45t37 117q0 74 -37 118.5t-98 44.5h-139v-325z" />
<glyph unicode="&#xdf;" horiz-adv-x="1269" d="M115 0v885q0 136 32 241t83.5 169.5t124 106t146.5 57.5t158 16q99 0 179.5 -28t131.5 -72t86 -101t49.5 -111.5t14.5 -107.5q0 -73 -25.5 -145.5t-51 -120.5t-25.5 -62q0 -15 30.5 -53.5t66.5 -82t66.5 -116t30.5 -147.5q0 -146 -95 -247t-259 -101q-155 0 -264 40 l35 318q32 -16 69 -16q34 0 54 19t20 50t-24.5 72.5t-53.5 76t-53.5 76t-24.5 72.5q0 37 46.5 144t46.5 161q0 58 -21.5 92.5t-64.5 34.5q-107 0 -107 -241v-879h-401z" />
<glyph unicode="&#xe0;" horiz-adv-x="1083" d="M51 295q0 173 124.5 265.5t332.5 92.5q42 0 82 -6q-1 70 -35.5 93.5t-103.5 23.5q-46 0 -116 -15t-124 -36l-68 305q223 72 408 72q211 0 319.5 -121t108.5 -346v-623h-389v66q-100 -86 -232 -86q-147 0 -227 85t-80 230zM223 1518h391l142 -336h-328zM410 336 q0 -41 22.5 -61.5t61.5 -20.5q59 0 96 41v135q-21 6 -49 6q-60 0 -95.5 -26t-35.5 -74z" />
<glyph unicode="&#xe1;" horiz-adv-x="1083" d="M51 295q0 173 124.5 265.5t332.5 92.5q42 0 82 -6q-1 70 -35.5 93.5t-103.5 23.5q-46 0 -116 -15t-124 -36l-68 305q223 72 408 72q211 0 319.5 -121t108.5 -346v-623h-389v66q-100 -86 -232 -86q-147 0 -227 85t-80 230zM375 1182l139 336h393l-205 -336h-327zM410 336 q0 -41 22.5 -61.5t61.5 -20.5q59 0 96 41v135q-21 6 -49 6q-60 0 -95.5 -26t-35.5 -74z" />
<glyph unicode="&#xe2;" horiz-adv-x="1083" d="M51 295q0 173 124.5 265.5t332.5 92.5q42 0 82 -6q-1 70 -35.5 93.5t-103.5 23.5q-46 0 -116 -15t-124 -36l-68 305q223 72 408 72q211 0 319.5 -121t108.5 -346v-623h-389v66q-100 -86 -232 -86q-147 0 -227 85t-80 230zM207 1182l168 336h385l166 -336h-283l-76 145 l-75 -145h-285zM410 336q0 -41 22.5 -61.5t61.5 -20.5q59 0 96 41v135q-21 6 -49 6q-60 0 -95.5 -26t-35.5 -74z" />
<glyph unicode="&#xe3;" horiz-adv-x="1083" d="M51 295q0 173 124.5 265.5t332.5 92.5q42 0 82 -6q-1 70 -35.5 93.5t-103.5 23.5q-46 0 -116 -15t-124 -36l-68 305q223 72 408 72q211 0 319.5 -121t108.5 -346v-623h-389v66q-100 -86 -232 -86q-147 0 -227 85t-80 230zM203 1319q37 87 96 142t125 55q49 0 93 -18 t71 -39.5t60.5 -39.5t62.5 -18q72 0 116 90l103 -113q-52 -103 -103 -150.5t-120 -47.5q-44 0 -88 17.5t-73.5 38.5t-63 38.5t-58.5 17.5q-67 0 -123 -88zM410 336q0 -41 22.5 -61.5t61.5 -20.5q59 0 96 41v135q-21 6 -49 6q-60 0 -95.5 -26t-35.5 -74z" />
<glyph unicode="&#xe4;" horiz-adv-x="1083" d="M51 295q0 173 124.5 265.5t332.5 92.5q42 0 82 -6q-1 70 -35.5 93.5t-103.5 23.5q-46 0 -116 -15t-124 -36l-68 305q223 72 408 72q211 0 319.5 -121t108.5 -346v-623h-389v66q-100 -86 -232 -86q-147 0 -227 85t-80 230zM137 1352q0 168 187 168q182 0 182 -168 q0 -170 -182 -170q-88 0 -137.5 41.5t-49.5 128.5zM410 336q0 -41 22.5 -61.5t61.5 -20.5q59 0 96 41v135q-21 6 -49 6q-60 0 -95.5 -26t-35.5 -74zM594 1352q0 168 186 168q183 0 183 -168q0 -170 -183 -170q-87 0 -136.5 41.5t-49.5 128.5z" />
<glyph unicode="&#xe5;" horiz-adv-x="1083" d="M51 295q0 173 124.5 265.5t332.5 92.5q42 0 82 -6q-1 70 -35.5 93.5t-103.5 23.5q-46 0 -116 -15t-124 -36l-68 305q223 72 408 72q211 0 319.5 -121t108.5 -346v-623h-389v66q-100 -86 -232 -86q-147 0 -227 85t-80 230zM354 1372q0 83 59 142t142 59t142 -59t59 -142 t-59 -142t-142 -59t-142 59t-59 142zM410 336q0 -41 22.5 -61.5t61.5 -20.5q59 0 96 41v135q-21 6 -49 6q-60 0 -95.5 -26t-35.5 -74zM485 1372q0 -31 19.5 -50t50.5 -19t50.5 19t19.5 50t-19.5 50.5t-50.5 19.5t-50.5 -19.5t-19.5 -50.5z" />
<glyph unicode="&#xe6;" horiz-adv-x="1585" d="M51 297q0 115 62.5 197t162.5 120.5t226 38.5q44 0 90 -6q0 65 -33 91t-92 26q-58 0 -135 -16t-121 -37l-66 307q203 72 422 72q175 0 267 -95q102 105 278 105q108 0 187.5 -34.5t124.5 -97t66 -139.5t21 -170q0 -131 -22 -202h-537q8 -79 58 -128.5t139 -49.5 q65 0 126 26.5t103 63.5l127 -252q-72 -69 -173 -107.5t-218 -38.5q-241 0 -342 160q-162 -151 -379 -151q-163 0 -252.5 77.5t-89.5 239.5zM412 336q0 -82 82 -82q57 0 98 41v135q-21 6 -55 6q-62 -1 -93.5 -29t-31.5 -71zM975 659h237q5 25 5 46q0 51 -29 82.5t-78 31.5 q-64 0 -99.5 -44.5t-35.5 -115.5z" />
<glyph unicode="&#xe7;" horiz-adv-x="1011" d="M66 537q0 265 142.5 414t377.5 149q218 0 381 -133l-156 -293q-77 67 -168 67q-71 0 -119.5 -52t-48.5 -152q0 -102 48 -154.5t122 -52.5q91 0 168 71l154 -297q-154 -127 -361 -133l-18 -71q20 4 30 4q76 0 118 -39.5t42 -104.5q0 -77 -62.5 -121.5t-162.5 -44.5 q-73 0 -150 21l29 123q71 -23 109 -23q67 0 67 39q0 41 -76 41q-66 0 -112 -8l-6 12l49 185q-184 36 -290.5 180t-106.5 373z" />
<glyph unicode="&#xe8;" horiz-adv-x="1040" d="M66 532q0 248 134.5 408t352.5 160q211 0 313.5 -119t102.5 -324q0 -116 -23 -202h-497q2 -75 40 -123.5t119 -48.5q59 0 119 25.5t104 60.5l132 -267q-160 -131 -400 -131q-124 0 -220 42t-156 117.5t-90.5 177t-30.5 224.5zM231 1518h392l141 -336h-328zM455 662h198 q6 21 6 47q0 49 -24.5 75.5t-69.5 26.5q-53 0 -80.5 -39t-29.5 -110z" />
<glyph unicode="&#xe9;" horiz-adv-x="1040" d="M66 532q0 248 134.5 408t352.5 160q211 0 313.5 -119t102.5 -324q0 -116 -23 -202h-497q2 -75 40 -123.5t119 -48.5q59 0 119 25.5t104 60.5l132 -267q-160 -131 -400 -131q-124 0 -220 42t-156 117.5t-90.5 177t-30.5 224.5zM373 1182l139 336h393l-205 -336h-327z M455 662h198q6 21 6 47q0 49 -24.5 75.5t-69.5 26.5q-53 0 -80.5 -39t-29.5 -110z" />
<glyph unicode="&#xea;" horiz-adv-x="1040" d="M66 532q0 248 134.5 408t352.5 160q211 0 313.5 -119t102.5 -324q0 -116 -23 -202h-497q2 -75 40 -123.5t119 -48.5q59 0 119 25.5t104 60.5l132 -267q-160 -131 -400 -131q-124 0 -220 42t-156 117.5t-90.5 177t-30.5 224.5zM197 1182l168 336h385l165 -336h-282 l-76 145l-76 -145h-284zM455 662h198q6 21 6 47q0 49 -24.5 75.5t-69.5 26.5q-53 0 -80.5 -39t-29.5 -110z" />
<glyph unicode="&#xeb;" horiz-adv-x="1040" d="M66 532q0 248 134.5 408t352.5 160q211 0 313.5 -119t102.5 -324q0 -116 -23 -202h-497q2 -75 40 -123.5t119 -48.5q59 0 119 25.5t104 60.5l132 -267q-160 -131 -400 -131q-124 0 -220 42t-156 117.5t-90.5 177t-30.5 224.5zM143 1352q0 168 187 168q182 0 182 -168 q0 -170 -182 -170q-88 0 -137.5 41.5t-49.5 128.5zM455 662h198q6 21 6 47q0 49 -24.5 75.5t-69.5 26.5q-53 0 -80.5 -39t-29.5 -110zM600 1352q0 168 186 168q183 0 183 -168q0 -170 -183 -170q-87 0 -136.5 41.5t-49.5 128.5z" />
<glyph unicode="&#xec;" horiz-adv-x="632" d="M-14 1518h391l141 -336h-328zM115 0v1071h403v-1071h-403z" />
<glyph unicode="&#xed;" horiz-adv-x="632" d="M115 0v1071h403v-1071h-403zM125 1182l139 336h393l-204 -336h-328z" />
<glyph unicode="&#xee;" horiz-adv-x="632" d="M-43 1182l168 336h385l166 -336h-283l-76 145l-75 -145h-285zM115 0v1071h403v-1071h-403z" />
<glyph unicode="&#xef;" horiz-adv-x="632" d="M-92 1352q0 168 186 168q182 0 182 -168q0 -170 -182 -170q-87 0 -136.5 41.5t-49.5 128.5zM115 0v1071h403v-1071h-403zM365 1352q0 168 186 168q182 0 182 -168q0 -170 -182 -170q-87 0 -136.5 41.5t-49.5 128.5z" />
<glyph unicode="&#xf0;" horiz-adv-x="1099" d="M66 485q0 188 93.5 308t264.5 120q86 0 172 -53q-29 123 -102 213l-62 -76l-96 82l67 84q-48 39 -92 60l160 252q73 -15 145 -50l66 80l96 -82l-53 -65q136 -104 216.5 -275t80.5 -385q0 -352 -130 -535t-380 -183q-199 0 -322.5 136t-123.5 369zM465 481q0 -129 65 -129 q41 0 60 54.5t24 173.5q-45 30 -73 30q-76 0 -76 -129z" />
<glyph unicode="&#xf1;" d="M115 0v1071h403v-94q42 53 118.5 83t162.5 30q325 0 325 -416v-674h-403v588q0 67 -23 96t-69 29q-38 0 -68 -16.5t-43 -39.5v-657h-403zM262 1319q37 87 96 142t125 55q49 0 93 -18t71 -39.5t60.5 -39.5t62.5 -18q73 0 117 90l102 -113q-52 -103 -103 -150.5t-120 -47.5 q-44 0 -88 17.5t-73.5 38.5t-63 38.5t-58.5 17.5q-67 0 -123 -88z" />
<glyph unicode="&#xf2;" horiz-adv-x="1120" d="M66 532q0 270 132 419t361 149q230 0 363 -148.5t133 -419.5q0 -267 -133 -414t-363 -147q-229 0 -361 147t-132 414zM207 1518h391l141 -336h-327zM455 532q0 -103 26 -145.5t78 -42.5q53 0 80 43t27 145q0 104 -27.5 149.5t-79.5 45.5t-78 -45t-26 -150z" />
<glyph unicode="&#xf3;" horiz-adv-x="1120" d="M66 532q0 270 132 419t361 149q230 0 363 -148.5t133 -419.5q0 -267 -133 -414t-363 -147q-229 0 -361 147t-132 414zM381 1182l139 336h393l-204 -336h-328zM455 532q0 -103 26 -145.5t78 -42.5q53 0 80 43t27 145q0 104 -27.5 149.5t-79.5 45.5t-78 -45t-26 -150z" />
<glyph unicode="&#xf4;" horiz-adv-x="1120" d="M66 532q0 270 132 419t361 149q230 0 363 -148.5t133 -419.5q0 -267 -133 -414t-363 -147q-229 0 -361 147t-132 414zM199 1182l168 336h385l166 -336h-283l-76 145l-76 -145h-284zM455 532q0 -103 26 -145.5t78 -42.5q53 0 80 43t27 145q0 104 -27.5 149.5t-79.5 45.5 t-78 -45t-26 -150z" />
<glyph unicode="&#xf5;" horiz-adv-x="1120" d="M66 532q0 270 132 419t361 149q230 0 363 -148.5t133 -419.5q0 -267 -133 -414t-363 -147q-229 0 -361 147t-132 414zM195 1319q37 87 96 142t125 55q49 0 93 -18t71 -39.5t60 -39.5t62 -18q73 0 117 90l103 -113q-52 -103 -103.5 -150.5t-120.5 -47.5q-44 0 -88 17.5 t-73 38.5t-62.5 38.5t-58.5 17.5q-67 0 -123 -88zM455 532q0 -103 26 -145.5t78 -42.5q53 0 80 43t27 145q0 104 -27.5 149.5t-79.5 45.5t-78 -45t-26 -150z" />
<glyph unicode="&#xf6;" horiz-adv-x="1120" d="M66 532q0 270 132 419t361 149q230 0 363 -148.5t133 -419.5q0 -267 -133 -414t-363 -147q-229 0 -361 147t-132 414zM145 1352q0 168 187 168q182 0 182 -168q0 -170 -182 -170q-88 0 -137.5 41.5t-49.5 128.5zM455 532q0 -103 26 -145.5t78 -42.5q53 0 80 43t27 145 q0 104 -27.5 149.5t-79.5 45.5t-78 -45t-26 -150zM602 1352q0 168 186 168q183 0 183 -168q0 -170 -183 -170q-87 0 -136.5 41.5t-49.5 128.5z" />
<glyph unicode="&#xf7;" horiz-adv-x="1019" d="M70 461v317h880v-317h-880zM330 188q0 92 49.5 143.5t140.5 51.5q88 0 139.5 -52.5t51.5 -142.5q0 -91 -51 -141.5t-140 -50.5q-92 0 -141 50t-49 142zM330 1047q0 92 49.5 143t140.5 51q88 0 139.5 -52t51.5 -142q0 -91 -51 -142t-140 -51q-92 0 -141 50t-49 143z" />
<glyph unicode="&#xf8;" horiz-adv-x="1120" d="M66 532q0 270 132 419t361 149q162 0 277 -74l32 45h133v-29l-71 -100q125 -150 125 -410q0 -267 -133 -414t-363 -147q-153 0 -268 70l-29 -41h-139v31l67 94q-124 149 -124 407zM455 494l155 219q-20 14 -51 14q-52 0 -78 -45t-26 -150v-38zM512 354q18 -10 47 -10 q53 0 80 43t27 145q0 25 -2 35z" />
<glyph unicode="&#xf9;" d="M106 395v674h404v-588q0 -67 23.5 -96t70.5 -29q35 0 66 16.5t45 39.5v657h401v-1071h-401v94q-44 -52 -120.5 -82t-160.5 -30q-328 0 -328 415zM250 1518h391l141 -336h-327z" />
<glyph unicode="&#xfa;" d="M106 395v674h404v-588q0 -67 23.5 -96t70.5 -29q35 0 66 16.5t45 39.5v657h401v-1071h-401v94q-44 -52 -120.5 -82t-160.5 -30q-328 0 -328 415zM455 1182l139 336h393l-205 -336h-327z" />
<glyph unicode="&#xfb;" d="M106 395v674h404v-588q0 -67 23.5 -96t70.5 -29q35 0 66 16.5t45 39.5v657h401v-1071h-401v94q-44 -52 -120.5 -82t-160.5 -30q-328 0 -328 415zM250 1182l168 336h385l166 -336h-283l-76 145l-75 -145h-285z" />
<glyph unicode="&#xfc;" d="M106 395v674h404v-588q0 -67 23.5 -96t70.5 -29q35 0 66 16.5t45 39.5v657h401v-1071h-401v94q-44 -52 -120.5 -82t-160.5 -30q-328 0 -328 415zM203 1352q0 168 186 168q182 0 182 -168q0 -170 -182 -170q-87 0 -136.5 41.5t-49.5 128.5zM659 1352q0 168 187 168 q182 0 182 -168q0 -170 -182 -170q-88 0 -137.5 41.5t-49.5 128.5z" />
<glyph unicode="&#xfd;" horiz-adv-x="1110" d="M-4 1071h444l113 -627l133 625q68 0 202 1t202 1l-371 -1134q-29 -88 -63 -148.5t-83.5 -106t-116.5 -67t-157 -21.5q-52 0 -110 16.5t-99 39.5l53 295q67 -31 125 -31q44 0 69.5 23t35.5 75l8 31zM375 1182l139 336h393l-205 -336h-327z" />
<glyph unicode="&#xfe;" horiz-adv-x="1220" d="M115 -385v1839h403v-473q92 109 234 109q182 0 290.5 -146t108.5 -412t-108 -409t-291 -143q-139 0 -234 102v-467h-403zM518 373q14 -16 42 -27.5t56 -11.5q61 0 93 53.5t32 149.5q0 94 -32.5 146t-92.5 52q-58 0 -98 -43v-319z" />
<glyph unicode="&#xff;" horiz-adv-x="1110" d="M-4 1071h444l113 -627l133 625q68 0 202 1t202 1l-371 -1134q-29 -88 -63 -148.5t-83.5 -106t-116.5 -67t-157 -21.5q-52 0 -110 16.5t-99 39.5l53 295q67 -31 125 -31q44 0 69.5 23t35.5 75l8 31zM143 1352q0 168 187 168q182 0 182 -168q0 -170 -182 -170 q-88 0 -137.5 41.5t-49.5 128.5zM600 1352q0 168 186 168q183 0 183 -168q0 -170 -183 -170q-87 0 -136.5 41.5t-49.5 128.5z" />
<glyph unicode="&#x152;" horiz-adv-x="1957" d="M70 692q0 204 77 368t214 257.5t307 93.5q115 0 213 -53v35h985v-357h-598v-168h471v-327h-471v-187h598v-354h-985v35q-109 -58 -213 -58q-170 0 -307 93t-214 256.5t-77 365.5zM459 692q0 -142 64.5 -238t170.5 -96q58 0 107 26t80 71v479q-32 43 -81.5 68.5 t-109.5 25.5q-104 0 -167.5 -96t-63.5 -240z" />
<glyph unicode="&#x153;" horiz-adv-x="1767" d="M66 532q0 271 131.5 419.5t359.5 148.5q244 0 373 -168q61 79 151.5 123.5t198.5 44.5q210 0 313 -120t103 -327q0 -110 -23 -196h-502q0 -72 40 -125t122 -53q104 0 228 88l127 -263q-159 -133 -394 -133q-245 0 -370 160q-126 -160 -367 -160q-229 0 -360 146.5 t-131 414.5zM451 532q0 -192 108 -192q109 0 109 192q0 195 -109 195q-108 0 -108 -195zM1180 659h209q2 8 2 21q0 70 -23.5 103.5t-73.5 33.5q-56 0 -85 -41.5t-29 -116.5z" />
<glyph unicode="&#x178;" horiz-adv-x="1236" d="M-6 1364v29h448l176 -496l177 496h448v-29l-424 -842v-522h-401v520zM205 1673q0 168 186 168q182 0 182 -168q0 -170 -182 -170q-87 0 -136.5 41.5t-49.5 128.5zM662 1673q0 168 186 168q182 0 182 -168q0 -170 -182 -170q-87 0 -136.5 41.5t-49.5 128.5z" />
<glyph unicode="&#x2c6;" horiz-adv-x="1044" d="M162 1182l168 336h385l166 -336h-283l-76 145l-76 -145h-284z" />
<glyph unicode="&#x2dc;" horiz-adv-x="1044" d="M158 1319q37 87 96 142t125 55q49 0 93 -18t71 -39.5t60.5 -39.5t62.5 -18q72 0 116 90l103 -113q-52 -103 -103 -150.5t-120 -47.5q-44 0 -88 17.5t-73.5 38.5t-63 38.5t-58.5 17.5q-67 0 -123 -88z" />
<glyph unicode="&#x2000;" horiz-adv-x="920" />
<glyph unicode="&#x2001;" horiz-adv-x="1841" />
<glyph unicode="&#x2002;" horiz-adv-x="920" />
<glyph unicode="&#x2003;" horiz-adv-x="1841" />
<glyph unicode="&#x2004;" horiz-adv-x="613" />
<glyph unicode="&#x2005;" horiz-adv-x="460" />
<glyph unicode="&#x2006;" horiz-adv-x="306" />
<glyph unicode="&#x2007;" horiz-adv-x="306" />
<glyph unicode="&#x2008;" horiz-adv-x="230" />
<glyph unicode="&#x2009;" horiz-adv-x="368" />
<glyph unicode="&#x200a;" horiz-adv-x="102" />
<glyph unicode="&#x2010;" horiz-adv-x="974" d="M106 461v317h762v-317h-762z" />
<glyph unicode="&#x2011;" horiz-adv-x="974" d="M106 461v317h762v-317h-762z" />
<glyph unicode="&#x2012;" horiz-adv-x="974" d="M106 461v317h762v-317h-762z" />
<glyph unicode="&#x2013;" horiz-adv-x="1150" d="M106 461v317h938v-317h-938z" />
<glyph unicode="&#x2014;" horiz-adv-x="1619" d="M106 461v317h1405v-317h-1405z" />
<glyph unicode="&#x2018;" horiz-adv-x="581" d="M74 866q0 128 50 280t118 267l219 -90l-70 -246q117 -48 117 -211q0 -105 -57 -166t-160 -61q-101 0 -159 60.5t-58 166.5z" />
<glyph unicode="&#x2019;" horiz-adv-x="579" d="M78 1184q0 108 56.5 168.5t158.5 60.5q101 0 159 -61.5t58 -167.5q0 -127 -50 -278t-118 -267l-219 88l70 248q-115 43 -115 209z" />
<glyph unicode="&#x201a;" horiz-adv-x="598" d="M82 188q0 108 56.5 169t158.5 61q101 0 159 -62t58 -168q0 -127 -50 -277.5t-118 -266.5l-219 88l70 248q-115 43 -115 208z" />
<glyph unicode="&#x201c;" horiz-adv-x="985" d="M78 936q0 110 43.5 243t101.5 234l189 -78l-60 -217q99 -36 99 -182q0 -93 -48.5 -146t-136.5 -53q-89 0 -138.5 53t-49.5 146zM535 936q0 111 43 244.5t102 232.5l186 -78l-57 -217q98 -39 98 -182q0 -93 -49.5 -146t-136.5 -53q-89 0 -137.5 53t-48.5 146z" />
<glyph unicode="&#x201d;" horiz-adv-x="978" d="M78 1214q0 93 48.5 146t137.5 53q87 0 137 -53t50 -146q0 -112 -43 -244.5t-103 -232.5l-186 78l57 217q-98 37 -98 182zM535 1214q0 93 48 146t136 53t138 -53.5t50 -145.5q0 -112 -43 -243.5t-102 -233.5l-189 78l60 217q-98 36 -98 182z" />
<glyph unicode="&#x201e;" horiz-adv-x="997" d="M84 121q0 93 48.5 144.5t137.5 51.5q87 0 137 -52.5t50 -143.5q0 -112 -43 -244.5t-103 -232.5l-186 75l57 220q-98 34 -98 182zM541 121q0 93 47.5 144.5t136.5 51.5q88 0 138 -52.5t50 -143.5q0 -112 -43 -243.5t-102 -233.5l-188 75l59 220q-98 33 -98 182z" />
<glyph unicode="&#x2022;" horiz-adv-x="847" d="M129 618q0 149 78 232.5t219 83.5q138 0 216.5 -83.5t78.5 -232.5q0 -150 -78 -231.5t-217 -81.5q-142 0 -219.5 81.5t-77.5 231.5z" />
<glyph unicode="&#x2026;" horiz-adv-x="1630" d="M82 168q0 95 53 149t148 54q94 0 147 -54t53 -149q0 -96 -52.5 -147.5t-147.5 -51.5q-96 0 -148.5 51.5t-52.5 147.5zM614 168q0 95 53 149t148 54q93 0 147 -54t54 -149t-53.5 -147t-147.5 -52q-96 0 -148.5 51.5t-52.5 147.5zM1149 168q0 96 52 149.5t147 53.5 q94 0 147 -54t53 -149q0 -96 -52.5 -147.5t-147.5 -51.5q-96 0 -147.5 51.5t-51.5 147.5z" />
<glyph unicode="&#x202f;" horiz-adv-x="368" />
<glyph unicode="&#x2039;" horiz-adv-x="604" d="M66 580v73l286 430h29l145 -65l-131 -402l131 -399l-145 -67h-29z" />
<glyph unicode="&#x203a;" horiz-adv-x="604" d="M78 215l131 401l-131 400l145 67h29l287 -430v-73l-287 -430h-29z" />
<glyph unicode="&#x205f;" horiz-adv-x="460" />
<glyph unicode="&#x20ac;" horiz-adv-x="1120" d="M78 498v137h76v61v21h-76v137h84q32 267 171 413t359 146q221 0 367 -139l-133 -318q-78 84 -185 84q-66 0 -106 -44.5t-57 -141.5h299l-56 -137h-254v-21v-61h226l-56 -137h-151q35 -146 153 -146q42 0 73.5 13t78.5 47l143 -322q-171 -110 -350 -110q-206 0 -342 135.5 t-174 382.5h-90z" />
<glyph unicode="&#x2122;" horiz-adv-x="1464" d="M123 1145v213h455v-213h-127v-414h-205v414h-123zM692 731v627h172l150 -219l153 219h170v-627h-207v285l-98 -160h-35l-98 160v-285h-207z" />
<glyph unicode="&#x25fc;" horiz-adv-x="1075" d="M0 0v1075h1075v-1075h-1075z" />
<glyph unicode="&#xfb01;" horiz-adv-x="1464" d="M61 717v315h138v49q0 199 78.5 296.5t254.5 97.5q59 0 133 -12.5t123 -28.5l-51 -297q-46 24 -88 24q-49 0 -49 -61v-68h186v-315h-186v-717h-401v717h-138zM934 1356q0 178 217 178q211 0 211 -178q0 -180 -211 -180q-217 0 -217 180zM946 0v1071h404v-1071h-404z" />
<glyph unicode="&#xfb02;" horiz-adv-x="1515" d="M61 717v315h138v49q0 199 78.5 296.5t254.5 97.5q59 0 133 -12.5t123 -28.5l-51 -297q-46 24 -88 24q-49 0 -49 -61v-68h186v-315h-186v-717h-401v717h-138zM944 272v1182h404v-1065q0 -37 11.5 -52t37.5 -15q38 0 71 20l7 -319q-95 -43 -240 -43q-152 0 -221.5 67.5 t-69.5 224.5z" />
</font>
</defs>
</svg>
